<svg width="320" height="189" viewBox="0 0 320 189" fill="none" xmlns="http://www.w3.org/2000/svg">
<path d="M27.8936 127.222H75.5003V90.5038H27.8936L27.8936 127.222Z" fill="#F5F5F5"/>
<path d="M39.8219 126.964C39.8859 126.964 39.9408 118.777 39.9408 108.684C39.9408 98.587 39.8859 90.4049 39.8219 90.4049C39.758 90.4049 39.7031 98.587 39.7031 108.684C39.7031 118.782 39.7534 126.964 39.8219 126.964Z" fill="#EBEBEB"/>
<path d="M31.9314 122.994H35.579V118.866H31.9314V122.994Z" fill="#FAFAFA"/>
<path d="M60.9766 90.5969H55.5691V98.4316H60.9766V90.5969Z" fill="#EBEBEB"/>
<path d="M60.9766 119.28H55.5691V127.114H60.9766V119.28Z" fill="#EBEBEB"/>
<path d="M93.6457 127.741H15.0524V188.356H93.6457V127.741Z" fill="#EBEBEB"/>
<path d="M73.9538 187.931C73.8669 187.931 73.7984 174.419 73.7984 157.758C73.7984 141.088 73.8669 127.581 73.9538 127.581C74.0406 127.581 74.1092 141.088 74.1092 157.758C74.1092 174.419 74.0361 187.931 73.9538 187.931Z" fill="#E0E0E0"/>
<path d="M86.9769 174.561H80.9523V181.372H86.9769V174.561Z" fill="#FAFAFA"/>
<path d="M47.9545 127.896H39.0274V140.832H47.9545V127.896Z" fill="#E0E0E0"/>
<path d="M47.9545 175.242H39.0274V188.178H47.9545V175.242Z" fill="#E0E0E0"/>
<path d="M155.047 20.9627C155.047 21.0267 154.535 21.0816 153.905 21.0816C153.274 21.0816 152.762 21.0267 152.762 20.9627C152.762 20.8987 153.274 20.8439 153.905 20.8439C154.535 20.8439 155.047 20.8941 155.047 20.9627Z" fill="#EBEBEB"/>
<path d="M159.618 20.9627C159.618 21.0267 159.106 21.0816 158.476 21.0816C157.845 21.0816 157.333 21.0267 157.333 20.9627C157.333 20.8987 157.845 20.8439 158.476 20.8439C159.106 20.8439 159.618 20.8941 159.618 20.9627Z" fill="#EBEBEB"/>
<path d="M164.189 20.9627C164.189 21.0267 163.677 21.0816 163.046 21.0816C162.416 21.0816 161.904 21.0267 161.904 20.9627C161.904 20.8987 162.416 20.8439 163.046 20.8439C163.677 20.8439 164.189 20.8941 164.189 20.9627Z" fill="#EBEBEB"/>
<path d="M168.76 20.9627C168.76 21.0267 168.248 21.0816 167.618 21.0816C166.987 21.0816 166.475 21.0267 166.475 20.9627C166.475 20.8987 166.987 20.8439 167.618 20.8439C168.248 20.8439 168.76 20.8941 168.76 20.9627Z" fill="#EBEBEB"/>
<path d="M173.331 20.9627C173.331 21.0267 172.819 21.0816 172.189 21.0816C171.558 21.0816 171.046 21.0267 171.046 20.9627C171.046 20.8987 171.558 20.8439 172.189 20.8439C172.819 20.8439 173.331 20.8941 173.331 20.9627Z" fill="#EBEBEB"/>
<path d="M177.902 20.9627C177.902 21.0267 177.39 21.0816 176.76 21.0816C176.129 21.0816 175.617 21.0267 175.617 20.9627C175.617 20.8987 176.129 20.8439 176.76 20.8439C177.39 20.8439 177.902 20.8941 177.902 20.9627Z" fill="#EBEBEB"/>
<path d="M182.473 20.9627C182.473 21.0267 181.961 21.0816 181.331 21.0816C180.7 21.0816 180.188 21.0267 180.188 20.9627C180.188 20.8987 180.7 20.8439 181.331 20.8439C181.961 20.8439 182.473 20.8941 182.473 20.9627Z" fill="#EBEBEB"/>
<path d="M187.044 20.9627C187.044 21.0267 186.532 21.0816 185.902 21.0816C185.271 21.0816 184.759 21.0267 184.759 20.9627C184.759 20.8987 185.271 20.8439 185.902 20.8439C186.532 20.8439 187.044 20.8941 187.044 20.9627Z" fill="#EBEBEB"/>
<path d="M191.615 20.9627C191.615 21.0267 191.103 21.0816 190.472 21.0816C189.841 21.0816 189.329 21.0267 189.329 20.9627C189.329 20.8987 189.841 20.8439 190.472 20.8439C191.103 20.8439 191.615 20.8941 191.615 20.9627Z" fill="#EBEBEB"/>
<path d="M196.186 20.9627C196.186 21.0267 195.674 21.0816 195.043 21.0816C194.413 21.0816 193.901 21.0267 193.901 20.9627C193.901 20.8987 194.413 20.8439 195.043 20.8439C195.674 20.8439 196.186 20.8941 196.186 20.9627Z" fill="#EBEBEB"/>
<path d="M200.757 20.9627C200.757 21.0267 200.245 21.0816 199.614 21.0816C198.983 21.0816 198.471 21.0267 198.471 20.9627C198.471 20.8987 198.983 20.8439 199.614 20.8439C200.245 20.8439 200.757 20.8941 200.757 20.9627Z" fill="#EBEBEB"/>
<path d="M205.328 20.9627C205.328 21.0267 204.816 21.0816 204.185 21.0816C203.555 21.0816 203.043 21.0267 203.043 20.9627C203.043 20.8987 203.555 20.8439 204.185 20.8439C204.816 20.8439 205.328 20.8941 205.328 20.9627Z" fill="#EBEBEB"/>
<path d="M209.899 20.9627C209.899 21.0267 209.387 21.0816 208.756 21.0816C208.126 21.0816 207.614 21.0267 207.614 20.9627C207.614 20.8987 208.126 20.8439 208.756 20.8439C209.387 20.8439 209.899 20.8941 209.899 20.9627Z" fill="#EBEBEB"/>
<path d="M214.47 20.9627C214.47 21.0267 213.958 21.0816 213.327 21.0816C212.697 21.0816 212.185 21.0267 212.185 20.9627C212.185 20.8987 212.697 20.8439 213.327 20.8439C213.958 20.8439 214.47 20.8941 214.47 20.9627Z" fill="#EBEBEB"/>
<path d="M219.041 20.9627C219.041 21.0267 218.529 21.0816 217.898 21.0816C217.267 21.0816 216.755 21.0267 216.755 20.9627C216.755 20.8987 217.267 20.8439 217.898 20.8439C218.529 20.8439 219.041 20.8941 219.041 20.9627Z" fill="#EBEBEB"/>
<path d="M223.612 20.9627C223.612 21.0267 223.1 21.0816 222.469 21.0816C221.838 21.0816 221.326 21.0267 221.326 20.9627C221.326 20.8987 221.838 20.8439 222.469 20.8439C223.1 20.8439 223.612 20.8941 223.612 20.9627Z" fill="#EBEBEB"/>
<path d="M228.183 20.9627C228.183 21.0267 227.671 21.0816 227.04 21.0816C226.409 21.0816 225.897 21.0267 225.897 20.9627C225.897 20.8987 226.409 20.8439 227.04 20.8439C227.671 20.8439 228.183 20.8941 228.183 20.9627Z" fill="#EBEBEB"/>
<path d="M232.754 20.9627C232.754 21.0267 232.242 21.0816 231.612 21.0816C230.981 21.0816 230.469 21.0267 230.469 20.9627C230.469 20.8987 230.981 20.8439 231.612 20.8439C232.242 20.8439 232.754 20.8941 232.754 20.9627Z" fill="#EBEBEB"/>
<path d="M237.325 20.9627C237.325 21.0267 236.813 21.0816 236.183 21.0816C235.552 21.0816 235.04 21.0267 235.04 20.9627C235.04 20.8987 235.552 20.8439 236.183 20.8439C236.813 20.8439 237.325 20.8941 237.325 20.9627Z" fill="#EBEBEB"/>
<path d="M241.896 20.9627C241.896 21.0267 241.384 21.0816 240.753 21.0816C240.122 21.0816 239.61 21.0267 239.61 20.9627C239.61 20.8987 240.122 20.8439 240.753 20.8439C241.384 20.8439 241.896 20.8941 241.896 20.9627Z" fill="#EBEBEB"/>
<path d="M246.467 20.9627C246.467 21.0267 245.955 21.0816 245.325 21.0816C244.694 21.0816 244.182 21.0267 244.182 20.9627C244.182 20.8987 244.694 20.8439 245.325 20.8439C245.955 20.8439 246.467 20.8941 246.467 20.9627Z" fill="#EBEBEB"/>
<path d="M251.038 20.9627C251.038 21.0267 250.526 21.0816 249.895 21.0816C249.264 21.0816 248.752 21.0267 248.752 20.9627C248.752 20.8987 249.264 20.8439 249.895 20.8439C250.526 20.8439 251.038 20.8941 251.038 20.9627Z" fill="#EBEBEB"/>
<path d="M255.609 20.9627C255.609 21.0267 255.097 21.0816 254.466 21.0816C253.835 21.0816 253.324 21.0267 253.324 20.9627C253.324 20.8987 253.835 20.8439 254.466 20.8439C255.097 20.8439 255.609 20.8941 255.609 20.9627Z" fill="#EBEBEB"/>
<path d="M256.779 24.359C256.715 24.359 256.66 23.8471 256.66 23.2163C256.66 22.5855 256.715 22.0735 256.779 22.0735C256.843 22.0735 256.898 22.5855 256.898 23.2163C256.898 23.8516 256.843 24.359 256.779 24.359Z" fill="#EBEBEB"/>
<path d="M256.779 28.9299C256.715 28.9299 256.66 28.4179 256.66 27.7872C256.66 27.1564 256.715 26.6444 256.779 26.6444C256.843 26.6444 256.898 27.1564 256.898 27.7872C256.898 28.4225 256.843 28.9299 256.779 28.9299Z" fill="#EBEBEB"/>
<path d="M256.779 33.5008C256.715 33.5008 256.66 32.9888 256.66 32.358C256.66 31.7272 256.715 31.2153 256.779 31.2153C256.843 31.2153 256.898 31.7272 256.898 32.358C256.898 32.9934 256.843 33.5008 256.779 33.5008Z" fill="#EBEBEB"/>
<path d="M256.779 38.0719C256.715 38.0719 256.66 37.56 256.66 36.9292C256.66 36.2984 256.715 35.7864 256.779 35.7864C256.843 35.7864 256.898 36.2984 256.898 36.9292C256.898 37.5645 256.843 38.0719 256.779 38.0719Z" fill="#EBEBEB"/>
<path d="M256.779 42.6428C256.715 42.6428 256.66 42.1308 256.66 41.5C256.66 40.8693 256.715 40.3573 256.779 40.3573C256.843 40.3573 256.898 40.8693 256.898 41.5C256.898 42.1354 256.843 42.6428 256.779 42.6428Z" fill="#EBEBEB"/>
<path d="M257.67 46.3223C257.67 46.3772 257.291 46.4275 256.779 46.4366L256.665 46.4412V46.3223C256.665 46.2355 256.665 46.1532 256.66 46.0709C256.66 45.4401 256.715 44.9282 256.779 44.9282C256.843 44.9282 256.898 45.4401 256.898 46.0709C256.898 46.1532 256.898 46.2355 256.893 46.3223L256.779 46.2081C257.291 46.2218 257.67 46.2675 257.67 46.3223Z" fill="#EBEBEB"/>
<path d="M262.241 46.3224C262.241 46.3864 261.729 46.4413 261.098 46.4413C260.467 46.4413 259.955 46.3864 259.955 46.3224C259.955 46.2584 260.467 46.2036 261.098 46.2036C261.729 46.2036 262.241 46.2584 262.241 46.3224Z" fill="#EBEBEB"/>
<path d="M266.812 46.3224C266.812 46.3864 266.3 46.4413 265.669 46.4413C265.038 46.4413 264.526 46.3864 264.526 46.3224C264.526 46.2584 265.038 46.2036 265.669 46.2036C266.3 46.2036 266.812 46.2584 266.812 46.3224Z" fill="#EBEBEB"/>
<path d="M271.383 46.3224C271.383 46.3864 270.871 46.4413 270.24 46.4413C269.61 46.4413 269.098 46.3864 269.098 46.3224C269.098 46.2584 269.61 46.2036 270.24 46.2036C270.871 46.2036 271.383 46.2584 271.383 46.3224Z" fill="#EBEBEB"/>
<path d="M275.954 46.3224C275.954 46.3864 275.442 46.4413 274.811 46.4413C274.18 46.4413 273.669 46.3864 273.669 46.3224C273.669 46.2584 274.18 46.2036 274.811 46.2036C275.442 46.2036 275.954 46.2584 275.954 46.3224Z" fill="#EBEBEB"/>
<path d="M280.526 46.3224C280.526 46.3864 280.014 46.4413 279.383 46.4413C278.752 46.4413 278.24 46.3864 278.24 46.3224C278.24 46.2584 278.752 46.2036 279.383 46.2036C280.014 46.2036 280.526 46.2584 280.526 46.3224Z" fill="#EBEBEB"/>
<path d="M285.096 46.3224C285.096 46.3864 284.584 46.4413 283.954 46.4413C283.323 46.4413 282.811 46.3864 282.811 46.3224C282.811 46.2584 283.323 46.2036 283.954 46.2036C284.584 46.2036 285.096 46.2584 285.096 46.3224Z" fill="#EBEBEB"/>
<path d="M289.668 46.3224C289.668 46.3864 289.156 46.4413 288.525 46.4413C287.894 46.4413 287.382 46.3864 287.382 46.3224C287.382 46.2584 287.894 46.2036 288.525 46.2036C289.156 46.2036 289.668 46.2584 289.668 46.3224Z" fill="#EBEBEB"/>
<path d="M294.238 46.3224C294.238 46.3864 293.726 46.4413 293.096 46.4413C292.465 46.4413 291.953 46.3864 291.953 46.3224C291.953 46.2584 292.465 46.2036 293.096 46.2036C293.726 46.2036 294.238 46.2584 294.238 46.3224Z" fill="#EBEBEB"/>
<path d="M296.016 49.1198C295.952 49.1198 295.898 48.6079 295.898 47.9771C295.898 47.3463 295.952 46.8343 296.016 46.8343C296.08 46.8343 296.135 47.3463 296.135 47.9771C296.135 48.6079 296.08 49.1198 296.016 49.1198Z" fill="#EBEBEB"/>
<path d="M296.016 53.6907C295.952 53.6907 295.898 53.1787 295.898 52.5479C295.898 51.9171 295.952 51.4052 296.016 51.4052C296.08 51.4052 296.135 51.9171 296.135 52.5479C296.135 53.1787 296.08 53.6907 296.016 53.6907Z" fill="#EBEBEB"/>
<path d="M296.016 58.2618C295.952 58.2618 295.898 57.7499 295.898 57.1191C295.898 56.4883 295.952 55.9763 296.016 55.9763C296.08 55.9763 296.135 56.4883 296.135 57.1191C296.135 57.7499 296.08 58.2618 296.016 58.2618Z" fill="#EBEBEB"/>
<path d="M296.016 62.8327C295.952 62.8327 295.898 62.3207 295.898 61.69C295.898 61.0592 295.952 60.5472 296.016 60.5472C296.08 60.5472 296.135 61.0592 296.135 61.69C296.135 62.3207 296.08 62.8327 296.016 62.8327Z" fill="#EBEBEB"/>
<path d="M296.016 67.4038C295.952 67.4038 295.898 66.8919 295.898 66.2611C295.898 65.6303 295.952 65.1183 296.016 65.1183C296.08 65.1183 296.135 65.6303 296.135 66.2611C296.135 66.8919 296.08 67.4038 296.016 67.4038Z" fill="#EBEBEB"/>
<path d="M296.016 71.9747C295.952 71.9747 295.898 71.4628 295.898 70.832C295.898 70.2012 295.952 69.6892 296.016 69.6892C296.08 69.6892 296.135 70.2012 296.135 70.832C296.135 71.4628 296.08 71.9747 296.016 71.9747Z" fill="#EBEBEB"/>
<path d="M296.016 76.5456C295.952 76.5456 295.898 76.0336 295.898 75.4028C295.898 74.7721 295.952 74.2601 296.016 74.2601C296.08 74.2601 296.135 74.7721 296.135 75.4028C296.135 76.0336 296.08 76.5456 296.016 76.5456Z" fill="#EBEBEB"/>
<path d="M296.016 81.1167C295.952 81.1167 295.898 80.6048 295.898 79.974C295.898 79.3432 295.952 78.8312 296.016 78.8312C296.08 78.8312 296.135 79.3432 296.135 79.974C296.135 80.6048 296.08 81.1167 296.016 81.1167Z" fill="#EBEBEB"/>
<path d="M296.016 85.6876C295.952 85.6876 295.898 85.1757 295.898 84.5449C295.898 83.9141 295.952 83.4021 296.016 83.4021C296.08 83.4021 296.135 83.9141 296.135 84.5449C296.135 85.1757 296.08 85.6876 296.016 85.6876Z" fill="#EBEBEB"/>
<path d="M296.016 90.2585C295.952 90.2585 295.898 89.7465 295.898 89.1157C295.898 88.4849 295.952 87.973 296.016 87.973C296.08 87.973 296.135 88.4849 296.135 89.1157C296.135 89.7465 296.08 90.2585 296.016 90.2585Z" fill="#EBEBEB"/>
<path d="M296.016 94.8296C295.952 94.8296 295.898 94.3177 295.898 93.6869C295.898 93.0561 295.952 92.5441 296.016 92.5441C296.08 92.5441 296.135 93.0561 296.135 93.6869C296.135 94.3177 296.08 94.8296 296.016 94.8296Z" fill="#EBEBEB"/>
<path d="M179.031 28.7608C179.031 28.7608 175.484 26.7953 172.005 35.1876C168.527 43.5799 167.334 48.352 167.334 48.352C167.334 48.352 166.378 50.1255 165.131 49.1154C163.883 48.1006 162.045 45.0929 160.116 45.8105C158.114 46.5556 157.621 48.8959 158.274 52.219C158.928 55.5467 160.093 62.8831 160.199 63.5505C160.299 64.2041 160.002 65.196 159.038 64.6429C158.078 64.0899 152.373 58.6595 149.96 61.521C147.546 64.3824 150.892 73.3461 151.239 74.3334C151.587 75.3207 151.422 75.7687 150.965 76.0521C150.508 76.3401 148.762 74.3334 147.075 72.857C145.389 71.3806 143.176 69.9636 141.924 71.728C140.671 73.4969 140.767 80.4128 148.195 91.0769L151.962 95.7941L157.968 94.9851C170.721 92.471 175.594 87.5618 175.918 85.418C176.243 83.2742 173.665 82.7577 171.429 82.6526C169.19 82.5475 166.543 82.776 166.41 82.2503C166.278 81.7247 166.47 81.2904 167.407 80.8196C168.344 80.3488 176.974 76.2212 177.225 72.4867C177.477 68.7523 169.601 68.6974 168.527 68.4277C167.453 68.158 167.928 67.2347 168.454 66.837C168.989 66.4302 174.926 61.9598 177.705 60.0217C180.485 58.0836 181.755 56.0587 180.832 54.1297C179.945 52.2739 176.531 53.1607 174.931 53.0235C173.331 52.8864 173.875 50.9483 173.875 50.9483C173.875 50.9483 176.334 46.6836 179.657 38.2319C182.98 29.7801 178.962 28.7242 178.962 28.7242" fill="#EBEBEB"/>
<path d="M152.167 94.5462C154.631 88.3479 158.11 79.8139 161.981 70.3977C165.853 60.9861 169.35 52.4612 171.85 46.2767C173.093 43.1913 174.103 40.691 174.803 38.9494C175.15 38.0901 175.42 37.4227 175.607 36.9565C175.699 36.7371 175.772 36.5634 175.822 36.44C175.872 36.3257 175.9 36.2663 175.9 36.2663C175.9 36.2663 175.882 36.3303 175.84 36.4491C175.795 36.5771 175.731 36.7508 175.644 36.9748C175.466 37.441 175.205 38.1175 174.876 38.9814C174.204 40.723 173.217 43.2324 171.983 46.3315C169.519 52.5298 166.04 61.0638 162.169 70.4754C158.297 79.8916 154.796 88.4165 152.3 94.601" fill="#E0E0E0"/>
<path d="M162.521 50.1255C162.534 50.1209 162.598 50.2626 162.708 50.5186C162.818 50.7792 162.964 51.154 163.138 51.6248C163.485 52.5664 163.938 53.8737 164.404 55.3318C164.856 56.7671 165.268 58.0607 165.583 59.0618C165.725 59.5051 165.848 59.88 165.944 60.1908C166.031 60.4559 166.072 60.6067 166.059 60.6113C166.045 60.6159 165.976 60.4742 165.867 60.2182C165.757 59.9577 165.611 59.5783 165.441 59.1075C165.099 58.1658 164.669 56.8494 164.203 55.3913C163.741 53.9606 163.321 52.6715 162.996 51.6705C162.85 51.2271 162.726 50.8523 162.626 50.5415C162.548 50.2809 162.507 50.1301 162.521 50.1255Z" fill="#E0E0E0"/>
<path d="M166.625 60.6798C166.607 60.625 169.267 59.5782 172.567 58.3441C175.872 57.1053 178.564 56.15 178.583 56.2003C178.601 56.2551 175.941 57.3019 172.64 58.5361C169.336 59.7748 166.643 60.7347 166.625 60.6798Z" fill="#E0E0E0"/>
<path d="M160.025 74.8683C160.025 74.8546 160.18 74.8317 160.468 74.8089C160.797 74.7815 161.199 74.754 161.675 74.7175C162.694 74.6398 164.102 74.5209 165.647 74.3426C167.197 74.1644 168.591 73.9541 169.601 73.7941C170.072 73.721 170.469 73.657 170.798 73.6067C171.082 73.5656 171.237 73.5473 171.242 73.561C171.246 73.5747 171.091 73.6204 170.812 73.6844C170.533 73.7484 170.127 73.8398 169.624 73.9358C168.618 74.1324 167.219 74.3655 165.67 74.5438C164.116 74.7266 162.703 74.818 161.679 74.8592C161.167 74.8774 160.751 74.8912 160.468 74.8866C160.185 74.8866 160.025 74.882 160.025 74.8683Z" fill="#E0E0E0"/>
<path d="M154.211 66.1377C154.224 66.1286 154.316 66.2428 154.476 66.4531C154.636 66.6634 154.86 66.9742 155.134 67.3581C155.682 68.1261 156.432 69.2003 157.246 70.3887C158.059 71.5772 158.791 72.665 159.307 73.4558C159.568 73.8489 159.773 74.1735 159.911 74.3974C160.048 74.6214 160.121 74.7494 160.107 74.7586C160.093 74.7677 160.002 74.6534 159.842 74.4432C159.682 74.2329 159.458 73.9221 159.184 73.5381C158.635 72.7702 157.886 71.696 157.072 70.5075C156.258 69.3191 155.527 68.2358 155.01 67.445C154.75 67.0519 154.544 66.7274 154.407 66.5034C154.27 66.2748 154.201 66.1468 154.211 66.1377Z" fill="#E0E0E0"/>
<path d="M146.796 77.9216C146.81 77.9125 146.924 78.0587 147.13 78.3284C147.354 78.6347 147.637 79.0232 147.98 79.4849C148.688 80.4676 149.657 81.8344 150.718 83.3474C151.778 84.8649 152.724 86.2408 153.405 87.2464C153.725 87.7264 153.991 88.124 154.201 88.4394C154.384 88.7228 154.48 88.8874 154.471 88.892C154.457 88.9011 154.343 88.7548 154.137 88.4851C153.913 88.1789 153.629 87.7903 153.287 87.3287C152.578 86.3459 151.609 84.9792 150.549 83.4662C149.488 81.9532 148.542 80.5728 147.861 79.5672C147.541 79.0872 147.276 78.6895 147.066 78.3741C146.878 78.0907 146.782 77.9308 146.796 77.9216Z" fill="#E0E0E0"/>
<path d="M154.356 88.5857C154.356 88.572 154.553 88.54 154.914 88.4989C155.312 88.4532 155.828 88.3938 156.441 88.3252C157.73 88.1789 159.508 87.9687 161.469 87.6853C163.43 87.4019 165.194 87.1047 166.47 86.8762C167.077 86.7711 167.585 86.6796 167.983 86.6111C168.339 86.5517 168.54 86.5242 168.545 86.538C168.549 86.5517 168.353 86.6065 168.001 86.6888C167.649 86.7756 167.137 86.8899 166.497 87.0179C165.226 87.2784 163.457 87.603 161.496 87.8864C159.535 88.1698 157.748 88.3572 156.455 88.4669C155.805 88.5217 155.284 88.5583 154.919 88.5766C154.558 88.5949 154.356 88.5995 154.356 88.5857Z" fill="#E0E0E0"/>
<path d="M312.074 106.015C312.074 96.1277 303.138 88.3251 292.899 90.2449C286.459 91.4516 281.33 96.7128 280.201 103.167C279.497 107.203 280.329 110.997 282.167 114.128H282.157L282.203 114.188C282.82 115.225 283.593 115.966 284.37 117.058L293.695 129.409C294.856 130.945 297.164 130.945 298.325 129.409L307.494 117.259C307.494 117.259 309.204 115.216 309.826 114.169L309.858 114.124H309.853C311.261 111.747 312.074 108.977 312.074 106.015ZM296.017 113.008C292.113 113.008 288.95 109.845 288.95 105.942C288.95 102.038 292.113 98.8749 296.017 98.8749C299.92 98.8749 303.083 102.038 303.083 105.942C303.083 109.841 299.92 113.008 296.017 113.008Z" fill="#F5F5F5"/>
<path d="M236.246 34.6025V53.4898C236.246 53.8966 236.575 54.2257 236.982 54.2257H276.585C276.996 54.2257 277.325 53.892 277.321 53.4807L277.229 46.5648C277.229 46.4094 277.174 46.2585 277.083 46.1351L271.401 38.5427C271.264 38.3599 271.049 38.2502 270.816 38.2456L264.271 38.1953C263.868 38.1907 263.539 37.8616 263.539 37.4594V34.6025C263.539 34.1957 263.21 33.8666 262.803 33.8666H236.977C236.575 33.8666 236.246 34.1957 236.246 34.6025Z" fill="#F5F5F5"/>
<path d="M265.386 39.8408V45.9019C265.386 46.1396 265.578 46.327 265.816 46.3224L274.56 46.167C274.893 46.1625 275.09 45.7876 274.903 45.5088L270.816 39.4797C270.734 39.3608 270.601 39.2923 270.455 39.2969L265.802 39.4203C265.569 39.4248 265.386 39.6122 265.386 39.8408Z" fill="#EBEBEB"/>
<path d="M278.107 54.8017H235.446V56.1181H278.107V54.8017Z" fill="#F5F5F5"/>
<path d="M248.318 58.2883C249.965 56.6407 249.965 53.9693 248.318 52.3217C246.67 50.6741 243.999 50.6741 242.351 52.3217C240.704 53.9694 240.704 56.6407 242.351 58.2883C243.999 59.9359 246.67 59.9359 248.318 58.2883Z" fill="#EBEBEB"/>
<path d="M247.82 55.3045C247.82 56.6758 246.709 57.7865 245.338 57.7865C243.967 57.7865 242.856 56.6758 242.856 55.3045C242.856 53.9332 243.967 52.8224 245.338 52.8224C246.709 52.8224 247.82 53.9332 247.82 55.3045Z" fill="#FAFAFA"/>
<path d="M263.512 54.2257C263.407 54.2257 263.32 49.6685 263.32 44.0462C263.32 38.4239 263.407 33.8666 263.512 33.8666C263.617 33.8666 263.704 38.4239 263.704 44.0462C263.704 49.6685 263.617 54.2257 263.512 54.2257Z" fill="#EBEBEB"/>
<path d="M271.31 58.2904C272.958 56.6428 272.958 53.9715 271.31 52.3239C269.663 50.6763 266.992 50.6763 265.344 52.3239C263.696 53.9715 263.696 56.6429 265.344 58.2905C266.992 59.9381 269.663 59.9381 271.31 58.2904Z" fill="#EBEBEB"/>
<path d="M270.816 55.3045C270.816 56.6758 269.706 57.7865 268.334 57.7865C266.963 57.7865 265.852 56.6758 265.852 55.3045C265.852 53.9332 266.963 52.8224 268.334 52.8224C269.701 52.8224 270.816 53.9332 270.816 55.3045Z" fill="#FAFAFA"/>
<path d="M268.343 47.5201C268.343 47.6252 267.74 47.712 266.995 47.712C266.25 47.712 265.647 47.6252 265.647 47.5201C265.647 47.4149 266.25 47.3281 266.995 47.3281C267.736 47.3281 268.343 47.4149 268.343 47.5201Z" fill="#EBEBEB"/>
<path d="M320 188.356C320 188.42 248.359 188.475 160.007 188.475C71.6271 188.475 0 188.425 0 188.356C0 188.292 71.6271 188.237 160.007 188.237C248.359 188.237 320 188.292 320 188.356Z" fill="black"/>
<path d="M63.9024 186.345C70.0595 182.076 71.481 174.113 71.2662 166.951C71.2296 165.753 71.3668 164.496 70.8 163.445C70.2332 162.393 68.9122 161.671 67.838 162.174C66.9466 162.59 66.5581 163.618 66.0599 164.473C65.3971 165.607 64.4052 166.544 63.2487 167.142C62.4854 167.536 61.5437 167.773 60.7941 167.357C59.7656 166.786 59.6468 165.36 59.6605 164.171C59.6834 161.954 59.7016 159.738 59.7245 157.525C59.7382 156.337 59.7428 155.121 59.3771 153.992C59.0114 152.863 58.1978 151.811 57.0688 151.491C55.9397 151.172 54.5364 151.816 54.2942 152.982C54.1936 153.466 54.2896 153.969 54.253 154.463C54.2165 154.956 53.9879 155.5 53.5171 155.637C53.0417 155.774 52.5664 155.436 52.2144 155.089C50.9894 153.882 50.162 152.333 49.3895 150.792C48.617 149.252 47.8674 147.675 46.7566 146.363C45.6459 145.051 44.11 144.004 42.4096 143.904C40.7047 143.803 38.89 144.845 38.4512 146.518C38.0124 148.191 38.986 149.896 40.0465 151.258C41.6189 153.279 43.4793 155.066 45.5545 156.547C45.9293 156.812 46.3315 157.105 46.4732 157.543C46.7292 158.339 45.975 159.12 45.1934 159.381C44.3066 159.674 43.3467 159.578 42.4188 159.683C41.4909 159.788 40.4853 160.195 40.1333 161.068C39.6442 162.279 40.6544 163.559 41.6509 164.395C43.6484 166.073 45.9293 167.403 48.3656 168.304C49.2387 168.628 50.1574 168.911 50.8614 169.529C51.5653 170.146 51.9858 171.215 51.5562 172.052C51.1265 172.888 50.034 173.153 49.1153 172.98C48.2011 172.806 47.3829 172.308 46.5098 171.974C44.878 171.352 42.7662 171.457 41.7149 172.865C41.0246 173.793 40.9606 175.082 41.3035 176.193C41.6463 177.299 42.3502 178.255 43.0953 179.137C45.7053 182.218 49.0467 184.704 52.836 186.03C56.6208 187.342 60.1313 187.707 63.9024 186.345Z" fill="#027A48"/>
<path d="M63.4956 188.361C63.2442 185.522 63.1162 185.463 62.0694 181.847C61.0272 178.227 59.5554 174.36 57.8824 170.361C57.4573 169.364 57.0414 168.377 56.63 167.408C56.2186 166.439 55.8072 165.479 55.3455 164.565C54.4359 162.732 53.4212 161.036 52.4064 159.459C51.3916 157.882 50.3723 156.419 49.4124 155.061C48.4479 153.704 47.52 152.456 46.6287 151.354C44.8506 149.142 43.2142 147.533 42.0394 146.473C41.4543 145.942 40.9881 145.545 40.6681 145.275C40.5127 145.147 40.3939 145.051 40.3025 144.973C40.2202 144.909 40.1745 144.873 40.1745 144.877C40.1699 144.882 40.211 144.918 40.2887 144.992C40.3756 145.069 40.4944 145.174 40.6407 145.307C40.9515 145.581 41.4086 145.993 41.9846 146.532C43.1365 147.611 44.7546 149.233 46.5098 151.45C47.392 152.557 48.3062 153.804 49.2616 155.167C50.2169 156.529 51.2317 157.991 52.2373 159.568C53.2429 161.145 54.2485 162.837 55.1536 164.661C55.6106 165.57 56.0129 166.525 56.4289 167.495C56.8402 168.464 57.2562 169.451 57.6813 170.447C59.3588 174.442 60.8307 178.3 61.8774 181.902C62.9333 185.504 63.075 185.545 63.3402 188.37" fill="black"/>
<path d="M55.2814 164.555C55.2951 164.56 55.3362 164.377 55.4002 164.048C55.4642 163.719 55.5419 163.243 55.6242 162.649C55.7979 161.465 55.9807 159.824 56.1727 158.014C56.3647 156.204 56.5704 154.568 56.7624 153.388C56.8538 152.799 56.9361 152.323 56.9955 151.994C57.0549 151.665 57.0777 151.482 57.064 151.478C57.0503 151.473 56.9955 151.651 56.9132 151.976C56.8263 152.301 56.7258 152.771 56.6115 153.361C56.383 154.536 56.1498 156.177 55.9579 157.987C55.7705 159.774 55.6013 161.392 55.4733 162.626C55.4093 163.184 55.3591 163.655 55.3179 164.034C55.2814 164.368 55.2676 164.555 55.2814 164.555Z" fill="black"/>
<path d="M40.0056 161.644C40.0056 161.657 40.2205 161.685 40.6136 161.717C41.0067 161.753 41.5735 161.804 42.2728 161.886C43.6715 162.041 45.6005 162.325 47.7077 162.732C49.8195 163.143 51.7119 163.591 53.074 163.961C53.7551 164.139 54.3036 164.299 54.683 164.405C55.0624 164.514 55.2727 164.569 55.2772 164.551C55.2818 164.537 55.0807 164.455 54.7059 164.322C54.3356 164.19 53.7917 164.007 53.1106 163.81C51.7576 163.403 49.8606 162.928 47.7443 162.517C45.6279 162.11 43.6898 161.849 42.282 161.735C41.578 161.671 41.0067 161.644 40.6136 161.635C40.225 161.625 40.0056 161.63 40.0056 161.644Z" fill="black"/>
<path d="M61.8821 181.569C61.8913 181.573 61.9233 181.509 61.9873 181.381C62.0604 181.23 62.1472 181.047 62.2524 180.828C62.4809 180.348 62.7872 179.644 63.162 178.771C63.9071 177.02 64.8578 174.575 65.868 171.86C66.8828 169.145 67.8107 166.69 68.5146 164.93C68.862 164.075 69.1454 163.372 69.3557 162.846C69.4471 162.617 69.5202 162.43 69.5796 162.279C69.6299 162.147 69.6528 162.078 69.6436 162.073C69.6345 162.069 69.6025 162.133 69.5385 162.261C69.4654 162.412 69.3785 162.59 69.2734 162.814C69.0448 163.294 68.7386 163.998 68.3638 164.871C67.6187 166.622 66.6679 169.067 65.6532 171.782C64.6384 174.497 63.7105 176.952 63.0066 178.712C62.6592 179.566 62.3758 180.27 62.1655 180.796C62.0741 181.025 62.001 181.212 61.9415 181.363C61.9004 181.495 61.8776 181.564 61.8821 181.569Z" fill="black"/>
<path d="M41.5916 174.95C41.5916 174.959 41.6602 174.986 41.7927 175.032C41.9527 175.087 42.1447 175.151 42.3824 175.233C42.9263 175.411 43.6623 175.654 44.5536 175.946C46.3866 176.55 48.9143 177.409 51.7026 178.364C54.4909 179.32 57.0278 180.156 58.8745 180.723C59.7978 181.006 60.5474 181.226 61.0685 181.367C61.3108 181.431 61.5073 181.486 61.6719 181.527C61.809 181.559 61.8822 181.578 61.8867 181.568C61.8867 181.559 61.8182 181.532 61.6856 181.486C61.5256 181.431 61.3337 181.367 61.096 181.285C60.552 181.107 59.8161 180.865 58.9247 180.572C57.0918 179.969 54.564 179.109 51.7757 178.154C48.9875 177.199 46.4551 176.362 44.6039 175.795C43.6806 175.512 42.9309 175.293 42.4098 175.151C42.1676 175.087 41.971 175.032 41.8065 174.991C41.6648 174.954 41.5916 174.941 41.5916 174.95Z" fill="black"/>
<path d="M138.126 188.356H74.5115C66.8231 188.32 60.3278 181.765 60.3597 174.081L61.0362 13.8639C61.0682 6.17097 67.3305 -0.036407 75.0234 0.00016074L138.93 0.297274C146.619 0.333842 152.821 6.5915 152.785 14.2753L152.108 174.492C152.076 182.185 145.814 188.393 138.126 188.356Z" fill="black"/>
<path d="M138.839 6.38592L126.447 6.33107C124.788 6.32193 123.43 7.72522 123.426 9.46219L123.416 11.7065C123.407 13.4435 122.054 14.8468 120.395 14.8376L96.2419 14.7279C94.5827 14.7188 93.2388 13.3064 93.248 11.5694L93.2571 9.32049C93.2662 7.58352 91.9224 6.16651 90.2631 6.16194L85.907 6.14366L75.0601 6.09338C69.6754 6.07052 65.2873 10.4175 65.2645 15.8021L64.6017 172.189C64.5788 177.573 68.9212 181.957 74.3058 181.98L138.085 182.272C143.469 182.295 147.857 177.948 147.88 172.564L148.543 16.1769C148.566 10.7923 144.223 6.40878 138.839 6.38592Z" fill="#F5F5F5"/>
<path d="M111.769 152.716C111.696 154.604 111.627 156.377 111.568 157.849H120.728L119.608 152.222L111.769 152.716Z" fill="#F5F5F5"/>
<path d="M74.5389 155.07L74.6166 157.845H110.659C110.718 156.286 110.787 154.554 110.855 152.771L74.5389 155.07Z" fill="#F5F5F5"/>
<path d="M120.07 152.191L121.199 157.849H138.089L137.888 151.066L120.07 152.191Z" fill="#F5F5F5"/>
<path d="M112.688 73.1172L115.879 54.6001L107.514 53.9785V73.1172H112.688Z" fill="#F5F5F5"/>
<path d="M73.7847 144.79L64.7068 148.346L64.6793 154.778L74.0544 154.183L73.7847 144.79Z" fill="#F5F5F5"/>
<path d="M73.7434 143.346L73.2451 126.099H73.2406V120.015L64.8208 120.907L64.7111 146.874L73.7388 143.337L73.7434 143.346Z" fill="#F5F5F5"/>
<path d="M73.241 106.44L64.8853 105.338L64.8258 119.531L73.241 118.639V106.44Z" fill="#F5F5F5"/>
<path d="M135.488 120.272L135.136 125.217L125.272 126.278L126.035 130.191L137.234 129.345L137.065 123.736L137.961 120.025L135.488 120.272Z" fill="#F5F5F5"/>
<path d="M117.711 130.817L125.578 130.227L123.864 121.446L116.998 122.141L117.711 130.817Z" fill="#F5F5F5"/>
<path d="M117.785 131.731L118.388 139.049L119.453 149.087L119.892 151.285L137.86 150.152L137.262 130.259L117.785 131.731Z" fill="#F5F5F5"/>
<path d="M86.8623 97.1697L87.5526 98.3536L73.6979 106.435V125.606L88.3205 124.573L116.505 121.73L115.472 109.164L88.5445 105.644L88.7227 104.287L115.358 107.765L113.612 86.4965L87.2509 89.0334L87.164 88.1237L113.539 85.5868L112.629 74.4885H87.2692L64.9994 78.543L64.8897 103.958L73.3231 105.068L86.8623 97.1697ZM75.1149 123.777C75.1149 123.777 75.2201 107.971 75.1149 107.377L86.4235 101.361L87.8908 122.968L75.1149 123.777Z" fill="#F5F5F5"/>
<path d="M134.565 120.367L124.321 121.4L125.098 125.377L134.281 124.39L134.565 120.367Z" fill="#F5F5F5"/>
<path d="M111.902 149.329C111.87 150.161 111.838 150.984 111.806 151.798L119.43 151.313L119.037 149.348L111.902 149.329Z" fill="#F5F5F5"/>
<path d="M95.4781 73.1172L96.8219 67.0286H107.056V53.9465L75.0504 51.5742V63.8564L65.0537 66.119L65.0034 77.1442L87.1452 73.1172H95.4781Z" fill="#F5F5F5"/>
<path d="M116.834 36.7186L116.559 35.5987L128.782 30.7627L120.833 14.8054C120.692 14.8282 120.545 14.842 120.394 14.842L106.887 14.778L107.253 37.1117L116.834 36.7186Z" fill="#F5F5F5"/>
<path d="M135.36 28.1571L135.346 6.3673L126.451 6.32616C124.792 6.31702 123.434 7.7203 123.429 9.45727L123.416 11.7062C123.411 12.7804 122.895 13.722 122.108 14.2842L130.062 30.2552L135.36 28.1571Z" fill="#F5F5F5"/>
<path d="M89.4127 29.0942L88.3842 6.15247L85.9067 6.13875L76.2391 6.09304L72.1207 26.6121L89.4127 29.0942ZM87.2049 8.47452L87.534 27.1607L74.685 25.282L77.5007 8.47909L87.2049 8.47452Z" fill="#F5F5F5"/>
<path d="M89.8791 29.1627L89.8837 29.3592C89.9066 31.151 89.9431 34.3736 89.9706 37.8201L106.805 37.1344L106.44 14.7778L96.2511 14.7321C94.5918 14.723 93.2479 13.3105 93.2571 11.5736L93.2662 9.32463C93.2754 7.58767 91.9315 6.17066 90.2722 6.16609L88.8461 6.16152L89.8791 29.1672V29.1627Z" fill="#F5F5F5"/>
<path d="M70.7587 26.4157L74.836 6.09769C69.552 6.19368 65.2872 10.4858 65.2644 15.7973L65.2233 25.9266L65.2644 25.6295L70.7587 26.4157Z" fill="#F5F5F5"/>
<path d="M73.6795 51.4737L65.1181 50.8383L65.0587 64.7112L73.6795 62.7594V51.4737Z" fill="#F5F5F5"/>
<path d="M70.6667 26.8636L65.2226 26.0819L65.1267 48.5482L66.2968 48.6351L70.6667 26.8636Z" fill="#F5F5F5"/>
<path d="M87.9632 143.085L88.1049 125.048L73.7018 126.067L74.2091 143.734L87.9632 143.085Z" fill="#F5F5F5"/>
<path d="M90.6104 138.921L111.011 148.694C111.253 142.308 111.472 136.338 111.449 135.954L111.893 135.931L112.108 135.502C112.396 135.648 112.396 135.648 112.245 140C112.158 142.427 112.039 145.659 111.916 148.895H118.969L117.931 139.09L116.542 122.182L89.8882 124.87L90.6104 138.921Z" fill="#F5F5F5"/>
<path d="M140.612 108.99L140.383 106.609L115.933 109.155L116.962 121.684L138.07 119.554L140.612 108.99Z" fill="#F5F5F5"/>
<path d="M107.057 68.3999H97.9241L96.8819 73.1171H107.057V68.3999Z" fill="#F5F5F5"/>
<path d="M136.837 69.9907L113.959 68.4092L113.027 73.8121L113.991 85.5412L138.117 83.2191L136.837 69.9907ZM114.805 73.8029L116.034 70.393L135.904 71.65L137.056 81.409L115.481 83.9688L114.805 73.8029Z" fill="#F5F5F5"/>
<path d="M139.209 94.5049L138.208 84.1334L114.068 86.4508L114.973 97.4943L139.209 94.5049Z" fill="#F5F5F5"/>
<path d="M74.0816 155.102L64.7157 155.692L64.6746 155.084L64.6654 157.849H74.1593L74.0816 155.102Z" fill="#F5F5F5"/>
<path d="M148.378 23.0058L148.515 23.3532L148.547 16.1722C148.57 10.7876 144.228 6.40858 138.843 6.38116L135.803 6.36744L135.817 27.9744L148.378 23.0058Z" fill="#F5F5F5"/>
<path d="M110.992 149.192L90.1715 139.218L89.4356 124.925L88.5626 125.012L88.4163 143.519L74.2234 144.191L74.2371 144.603L74.2417 144.612H74.2371L74.5114 154.156L110.892 151.857C110.924 150.97 110.956 150.079 110.992 149.192ZM75.1148 145.371L94.9802 143.977L107.902 149.974L75.1148 151.747V145.371Z" fill="#F5F5F5"/>
<path d="M142.459 47.0078L143.309 41.9568C135.84 39.292 135.324 31.5076 135.347 29.149L130.474 31.0779L137.815 45.8102L142.459 47.0078Z" fill="#F5F5F5"/>
<path d="M115.819 107.788L125.971 106.732L123.969 97.7638L115.088 98.8609L115.819 107.788Z" fill="#F5F5F5"/>
<path d="M136.873 54.7511H117.913L116.341 54.6322L114.197 67.0515L136.704 68.6057L136.183 63.2074L138.395 55.2356L136.873 54.7511Z" fill="#F5F5F5"/>
<path d="M136.411 52.4656L136.649 46.5371L129.198 31.5763L117.643 36.1472L121.615 52.461H136.411V52.4656ZM128.746 33.4001L135.575 46.3908L134.588 50.4407L122.904 50.0019L119.983 37.7151L128.746 33.4001Z" fill="#F5F5F5"/>
<path d="M139.359 123.974L139.707 135.616L147.925 135.155L147.948 135.612L139.72 136.073L140.141 150.006L147.907 149.512L147.967 150.426L140.168 150.92L140.374 157.849H147.944L148.108 119.001L140.37 119.782L139.359 123.974Z" fill="#F5F5F5"/>
<path d="M89.4266 29.5559L72.0295 27.0602L67.6779 48.7357L89.4998 50.3538C89.5912 47.017 89.5135 36.7781 89.4266 29.5559Z" fill="#F5F5F5"/>
<path d="M118.041 52.4656H120.669L116.944 37.1711L107.262 37.5688L107.496 51.6885L118.041 52.4656Z" fill="#F5F5F5"/>
<path d="M64.6197 168.975L64.606 172.184C64.606 172.285 64.6151 172.381 64.6197 172.477V168.975Z" fill="#F5F5F5"/>
<path d="M89.9471 50.3859L107.038 51.652L106.805 37.5871L89.9654 38.2774C90.002 43.0312 90.0202 48.1049 89.9471 50.3859Z" fill="#F5F5F5"/>
<path d="M139.341 95.8717L124.426 97.7092L126.428 106.682L140.251 105.247L139.341 95.8717Z" fill="#F5F5F5"/>
<path d="M143.387 41.4952L144.342 35.8272L148.461 36.1471L148.511 23.9381L135.808 28.9661C135.552 37.555 140.95 40.5764 143.387 41.4952Z" fill="#F5F5F5"/>
<path d="M138.496 63.4131L139.017 68.7657L148.319 69.4102L148.364 58.3805L140.575 55.9213L138.496 63.4131Z" fill="#F5F5F5"/>
<path d="M142.925 109.15L140.479 119.312L148.108 118.544L148.154 107.889C145.814 107.272 143.771 106.769 142.669 106.559L142.925 109.15Z" fill="#F5F5F5"/>
<path d="M137.773 52.6393L148.378 55.9898L148.401 49.9607L137.988 47.2684L137.773 52.6393Z" fill="#F5F5F5"/>
<path d="M142.536 105.16C143.391 105.288 145.009 105.631 148.159 106.462L148.259 83.1688L140.479 83.9184L142.536 105.16Z" fill="#F5F5F5"/>
<path d="M140.393 83.0043L148.264 82.2455L148.314 70.7861L139.15 70.1507L140.393 83.0043Z" fill="#F5F5F5"/>
<path d="M144.264 41.7879C145.754 42.2404 147.144 42.5924 148.428 42.8483L148.451 37.0661L145.1 36.8055L144.264 41.7879Z" fill="#F5F5F5"/>
<path d="M143.346 47.2364L148.406 48.5437L148.429 43.3145C147.121 43.054 145.709 42.6975 144.187 42.2358L143.346 47.2364Z" fill="#F5F5F5"/>
<path d="M74.0819 155.102L74.1596 157.849H74.6167L74.539 155.075L110.855 152.776C110.787 154.558 110.718 156.291 110.659 157.849H111.573C111.632 156.378 111.701 154.604 111.774 152.716L119.613 152.223L120.733 157.849H121.199L120.07 152.191L137.884 151.061L138.089 157.845H140.375L140.164 150.915L147.963 150.422L147.903 149.507L140.137 149.996L139.717 136.064L147.944 135.602L147.917 135.145L139.703 135.607L139.355 123.965L140.366 119.769L148.109 118.987V118.525L140.48 119.293L142.925 109.132L142.674 106.536C143.771 106.746 145.814 107.249 148.159 107.866L148.164 106.44C145.014 105.612 143.396 105.269 142.541 105.137L140.484 83.891L148.264 83.1414L148.269 82.2226L140.398 82.9814L139.154 70.1278L148.319 70.7632L148.324 69.3873L139.017 68.7428L138.501 63.3857L140.58 55.8984L148.369 58.3576L148.378 55.9624L137.778 52.6164L137.993 47.2455L148.406 49.9378L148.41 48.5254L143.35 47.2181L144.191 42.2221C145.709 42.6837 147.121 43.0403 148.433 43.3008V42.83C147.149 42.574 145.759 42.222 144.269 41.7695L145.11 36.7872L148.461 37.0477L148.465 36.1289L144.347 35.809L143.392 41.477C140.955 40.5582 135.557 37.5368 135.813 28.9434L148.516 23.9153L148.52 23.3348L148.383 22.9874L135.822 27.956L135.808 6.34905H135.351L135.365 28.1389L130.072 30.2324L122.118 14.2614C121.743 14.5311 121.314 14.7094 120.843 14.7779L128.792 30.7352L116.569 35.5713L116.843 36.6912L107.263 37.0843L106.897 14.7505H106.44L106.806 37.1071L89.9706 37.7928C89.9432 34.3463 89.9066 31.1237 89.8838 29.3319L89.8792 29.1354H89.8746L88.8416 6.12965H88.3845L89.413 29.0714L72.121 26.5893L76.2394 6.07022L75.0601 6.06565C74.987 6.06565 74.9138 6.07479 74.8361 6.07479L70.7588 26.3928L65.2645 25.602L65.2234 25.8991V26.0545L70.672 26.8362L66.3021 48.6031L65.1274 48.5163L65.1182 50.8063L73.6797 51.4417V62.732L65.0588 64.6838L65.0542 66.0917L75.051 63.829V51.5468L107.057 53.9192V67.0013H96.8225L95.4786 73.0898H87.1458L65.0085 77.1169L65.004 78.511L87.2737 74.4565H112.634L113.543 85.5549L87.1686 88.0918L87.2555 89.0014L113.616 86.4645L115.362 107.733L88.7273 104.255L88.549 105.612L115.477 109.132L116.51 121.698L88.3251 124.541L73.7025 125.574V106.403L87.5571 98.3216L86.8669 97.1377L73.3277 105.032L64.8943 103.921L64.8897 105.301L73.2409 106.403V118.603L64.8303 119.494L64.8257 120.875L73.2454 119.983V126.067H73.25L73.7482 143.314L73.7437 143.305L64.716 146.842L64.7114 148.319L73.7894 144.763L74.0591 154.156L64.684 154.75V155.057L64.7206 155.664L74.0819 155.102ZM111.806 151.797C111.838 150.984 111.87 150.161 111.902 149.329L119.042 149.347L119.435 151.313L111.806 151.797ZM119.892 151.285L119.453 149.087L118.388 139.049L117.785 131.731L137.262 130.264L137.861 150.152L119.892 151.285ZM124.321 121.4L134.565 120.367L134.277 124.39L125.094 125.382L124.321 121.4ZM123.864 121.446L125.578 130.222L117.712 130.817L116.999 122.136L123.864 121.446ZM137.234 129.345L126.036 130.19L125.272 126.278L135.136 125.213L135.488 120.271L137.957 120.02L137.065 123.736L137.234 129.345ZM123.97 97.7639L125.972 106.728L115.819 107.784L115.088 98.8564L123.97 97.7639ZM126.429 106.682L124.427 97.7091L139.342 95.8716L140.251 105.247L126.429 106.682ZM136.704 68.6057L114.197 67.047L116.341 54.6322L117.913 54.7511L136.873 54.7557L138.395 55.2356L136.179 63.2119L136.704 68.6057ZM135.347 29.1445C135.324 31.5031 135.84 39.2875 143.309 41.9524L142.459 47.0033L137.815 45.8011L130.474 31.0689L135.347 29.1445ZM129.194 31.5808L136.645 46.5416L136.407 52.4702H121.611L117.639 36.1564L129.194 31.5808ZM116.944 37.1711L120.669 52.4656H118.036L107.496 51.684L107.263 37.5642L116.944 37.1711ZM106.806 37.5871L107.039 51.652L89.9478 50.3858C90.0209 48.1049 90.0026 43.0311 89.9706 38.2727L106.806 37.5871ZM72.0296 27.0601L89.4267 29.5559C89.5135 36.778 89.5912 47.0124 89.5044 50.3492L67.6826 48.7311L72.0296 27.0601ZM115.879 54.6002L112.684 73.1173H107.514V53.9786L115.879 54.6002ZM97.9241 68.4H107.057V73.1173H96.8819L97.9241 68.4ZM113.031 73.812L113.964 68.4092L136.841 69.9907L138.121 83.2237L113.996 85.5457L113.031 73.812ZM138.208 84.1333L139.214 94.5094L114.978 97.4942L114.073 86.4553L138.208 84.1333ZM115.934 109.155L140.384 106.613L140.612 108.99L138.071 119.554L116.958 121.684L115.934 109.155ZM117.931 139.09L118.973 148.89H111.92C112.044 145.659 112.163 142.427 112.25 139.995C112.4 135.644 112.4 135.644 112.112 135.497L111.898 135.927L111.454 135.95C111.472 136.329 111.258 142.304 111.015 148.689L90.6151 138.916L89.8929 124.87L116.546 122.182L117.931 139.09ZM88.1057 125.048L87.964 143.085L74.2145 143.739L73.7071 126.072L88.1057 125.048ZM74.2373 144.612V144.603L74.2236 144.191L88.4165 143.519L88.5628 125.012L89.4358 124.925L90.1717 139.218L110.993 149.192C110.961 150.079 110.924 150.97 110.892 151.857L74.5116 154.156L74.2373 144.612Z" fill="white"/>
<path d="M94.9798 143.976L75.1144 145.371V151.747L107.902 149.969L94.9798 143.976Z" fill="#EBEBEB"/>
<path d="M135.9 71.6498L116.03 70.3928L114.805 73.8028L115.476 83.964L137.051 81.4043L135.9 71.6498Z" fill="#EBEBEB"/>
<path d="M74.3104 181.975L138.089 182.268C143.474 182.29 147.862 177.943 147.885 172.559L147.949 157.845H140.375H138.089H121.199H120.733H111.573H110.659H74.6166H74.1595H64.6656L64.6199 168.971V172.472C64.7525 177.724 69.0263 181.948 74.3104 181.975Z" fill="#EBEBEB"/>
<path d="M87.5382 27.1607L87.2046 8.4746H77.5004L74.6847 25.2821L87.5382 27.1607Z" fill="#EBEBEB"/>
<path d="M134.588 50.4406L135.575 46.3907L128.746 33.4L119.979 37.715L122.904 50.0018L134.588 50.4406Z" fill="#EBEBEB"/>
<path d="M75.1144 107.381C75.2195 107.971 75.1144 123.782 75.1144 123.782L87.8857 122.973L86.4184 101.366L75.1144 107.381Z" fill="#EBEBEB"/>
<path d="M117.712 120.217L117.04 110.421L138.944 107.605V109.297L136.297 118.306L117.712 120.217Z" fill="#EBEBEB"/>
<path d="M101.507 38.9768C101.507 40.4486 100.314 41.6462 98.838 41.6462C97.3661 41.6462 96.1686 40.4532 96.1686 38.9768C96.1686 37.5049 97.3616 36.3073 98.838 36.3073C100.314 36.3073 101.507 37.5049 101.507 38.9768Z" fill="#FEC54B"/>
<g opacity="0.6">
<path opacity="0.6" d="M101.508 38.8625C101.572 40.3343 100.429 41.5776 98.9571 41.6416C97.4853 41.7056 96.242 40.5629 96.178 39.091C96.114 37.6192 97.2567 36.3759 98.7286 36.3119C100.2 36.2479 101.444 37.3906 101.508 38.8625Z" fill="white"/>
</g>
<path d="M98.8426 40.659C99.8221 40.659 100.616 39.865 100.616 38.8855C100.616 37.906 99.8221 37.112 98.8426 37.112C97.8631 37.112 97.069 37.906 97.069 38.8855C97.069 39.865 97.8631 40.659 98.8426 40.659Z" fill="#FEC54B"/>
<path d="M140.082 145.549C140.082 146.18 139.57 146.687 138.944 146.687C138.317 146.687 137.805 146.175 137.805 145.549C137.805 144.918 138.317 144.411 138.944 144.411C139.57 144.411 140.082 144.918 140.082 145.549Z" fill="#FEC54B"/>
<path d="M138.258 145.179L137.984 138.789L118.726 139.726C118.224 139.753 117.721 139.643 117.273 139.415L89.9612 125.62C89.3304 125.3 88.9145 124.664 88.8779 123.956L85.1617 51.8533C85.1434 51.5059 85.276 51.1722 85.5228 50.9299C85.7696 50.6877 86.1125 50.5642 86.4553 50.5871L98.1616 51.4556V38.6569H99.5328V51.6293C99.5328 51.963 99.3911 52.2875 99.1489 52.5115C98.9021 52.74 98.5729 52.8543 98.2393 52.8314L86.5421 51.963L90.2492 123.878C90.2583 124.093 90.3863 124.289 90.5829 124.39L117.894 138.185C118.132 138.304 118.397 138.363 118.667 138.35L138.084 137.404C138.414 137.39 138.72 137.5 138.962 137.719C139.204 137.938 139.341 138.236 139.355 138.565L139.639 145.115L138.258 145.179Z" fill="#FEC54B"/>
<path d="M87.3929 86.6154C89.3014 86.6154 90.8485 85.0682 90.8485 83.1597C90.8485 81.2512 89.3014 79.7041 87.3929 79.7041C85.4844 79.7041 83.9372 81.2512 83.9372 83.1597C83.9372 85.0682 85.4844 86.6154 87.3929 86.6154Z" fill="#FEC54B"/>
<path d="M87.3932 85.5596C88.7186 85.5596 89.793 84.4852 89.793 83.1599C89.793 81.8345 88.7186 80.7601 87.3932 80.7601C86.0679 80.7601 84.9935 81.8345 84.9935 83.1599C84.9935 84.4852 86.0679 85.5596 87.3932 85.5596Z" fill="#FAFAFA"/>
<path d="M87.3931 85.7334C85.9761 85.7334 84.8196 84.5815 84.8196 83.1599C84.8196 81.7429 85.9715 80.5865 87.3931 80.5865C88.8101 80.5865 89.9665 81.7383 89.9665 83.1599C89.9665 84.5815 88.8101 85.7334 87.3931 85.7334ZM87.3931 80.9339C86.1635 80.9339 85.1624 81.9349 85.1624 83.1645C85.1624 84.3941 86.1635 85.3951 87.3931 85.3951C88.6227 85.3951 89.6237 84.3941 89.6237 83.1645C89.6237 81.9303 88.6227 80.9339 87.3931 80.9339Z" fill="#FEC54B"/>
<path d="M107.752 68.6655H91.2963C90.4964 68.6655 89.8473 69.3146 89.8473 70.1145V76.075C89.8473 76.8749 90.4964 77.524 91.2963 77.524H91.4883V78.9456L93.1339 77.524H107.752C108.552 77.524 109.201 76.8749 109.201 76.075V70.1145C109.201 69.3146 108.552 68.6655 107.752 68.6655Z" fill="#FEC54B"/>
<g opacity="0.4">
<g opacity="0.4">
<path opacity="0.4" d="M107.752 68.6655H91.2963C90.4964 68.6655 89.8473 69.3146 89.8473 70.1145V76.075C89.8473 76.8749 90.4964 77.524 91.2963 77.524H91.4883V78.9456L93.1339 77.524H107.752C108.552 77.524 109.201 76.8749 109.201 76.075V70.1145C109.201 69.3146 108.552 68.6655 107.752 68.6655Z" fill="white"/>
</g>
</g>
<path d="M93.5451 72.9983C93.5451 72.4544 93.9657 72.0475 94.537 72.0475C95.1038 72.0475 95.5244 72.4498 95.5244 72.9983C95.5244 73.5468 95.1038 73.9491 94.537 73.9491C93.9657 73.9491 93.5451 73.5423 93.5451 72.9983ZM95.2592 72.9983C95.2592 72.5869 94.953 72.2852 94.537 72.2852C94.1211 72.2852 93.8102 72.5869 93.8102 72.9983C93.8102 73.4097 94.1165 73.7114 94.537 73.7114C94.9484 73.7159 95.2592 73.4097 95.2592 72.9983Z" fill="white"/>
<path d="M97.3525 73.2274C97.3525 73.6571 97.0508 73.9497 96.6394 73.9497C96.4337 73.9497 96.2509 73.872 96.1366 73.712V73.9359H95.8898V71.9659H96.1457V72.7429C96.2646 72.5921 96.4383 72.5189 96.6394 72.5189C97.0508 72.5098 97.3525 72.7932 97.3525 73.2274ZM97.0965 73.2274C97.0965 72.9258 96.8908 72.7338 96.6211 72.7338C96.3514 72.7338 96.1503 72.9258 96.1503 73.2274C96.1503 73.5291 96.356 73.7257 96.6211 73.7257C96.8908 73.7211 97.0965 73.5246 97.0965 73.2274Z" fill="white"/>
<path d="M97.2202 74.3747L97.3024 74.1781C97.3527 74.2192 97.4259 74.2467 97.5081 74.2467C97.6453 74.2467 97.7184 74.1598 97.7184 73.9998V72.5234H97.9744V73.9953C97.9744 74.2832 97.8144 74.4615 97.5264 74.4615C97.4076 74.4615 97.2933 74.4341 97.2202 74.3747ZM97.6727 72.0846C97.6727 71.9932 97.7458 71.9155 97.8464 71.9155C97.947 71.9155 98.0201 71.9886 98.0201 72.0755C98.0201 72.1714 97.947 72.2446 97.8464 72.2446C97.7504 72.2492 97.6727 72.1806 97.6727 72.0846Z" fill="white"/>
<path d="M99.7297 73.3096H98.587C98.6189 73.5564 98.8201 73.721 99.0989 73.721C99.2635 73.721 99.4006 73.6662 99.5057 73.5519L99.6474 73.7164C99.5194 73.8673 99.3275 73.945 99.0898 73.945C98.6372 73.945 98.331 73.6433 98.331 73.2228C98.331 72.8068 98.6327 72.5051 99.0395 72.5051C99.4463 72.5051 99.7343 72.7977 99.7343 73.2319C99.7343 73.2548 99.7297 73.2868 99.7297 73.3096ZM98.587 73.1268H99.492C99.4646 72.8891 99.2863 72.7245 99.0395 72.7245C98.7926 72.7245 98.6144 72.8891 98.587 73.1268Z" fill="white"/>
<path d="M99.9583 73.2274C99.9583 72.8069 100.269 72.5098 100.703 72.5098C100.955 72.5098 101.165 72.6149 101.279 72.8114L101.087 72.9349C100.996 72.7977 100.859 72.7337 100.703 72.7337C100.429 72.7337 100.219 72.9257 100.219 73.2274C100.219 73.5337 100.425 73.7256 100.703 73.7256C100.859 73.7256 100.996 73.6617 101.087 73.5245L101.279 73.6479C101.17 73.8445 100.959 73.9496 100.703 73.9496C100.269 73.945 99.9583 73.6479 99.9583 73.2274Z" fill="white"/>
<path d="M102.413 73.8491C102.335 73.9177 102.221 73.9451 102.107 73.9451C101.823 73.9451 101.659 73.7897 101.659 73.5063V72.7338H101.421V72.5235H101.659V72.2173H101.915V72.5235H102.317V72.7338H101.915V73.4971C101.915 73.648 101.992 73.7348 102.134 73.7348C102.207 73.7348 102.28 73.712 102.335 73.6663L102.413 73.8491Z" fill="white"/>
<path d="M102.678 72.0846C102.678 71.9932 102.751 71.9155 102.851 71.9155C102.947 71.9155 103.025 71.9886 103.025 72.0755C103.025 72.1714 102.952 72.2446 102.851 72.2446C102.751 72.2492 102.678 72.1806 102.678 72.0846ZM102.723 72.5234H102.979V73.9313H102.723V72.5234Z" fill="white"/>
<path d="M104.712 72.5235L104.094 73.9313H103.834L103.217 72.5235H103.482L103.966 73.6525L104.46 72.5235H104.712Z" fill="white"/>
<path d="M106.18 73.3096H105.037C105.069 73.5564 105.27 73.721 105.549 73.721C105.713 73.721 105.85 73.6662 105.956 73.5519L106.097 73.7164C105.969 73.8673 105.777 73.945 105.54 73.945C105.087 73.945 104.781 73.6433 104.781 73.2228C104.781 72.8068 105.083 72.5051 105.489 72.5051C105.896 72.5051 106.184 72.7977 106.184 73.2319C106.184 73.2548 106.18 73.2868 106.18 73.3096ZM105.037 73.1268H105.942C105.914 72.8891 105.736 72.7245 105.489 72.7245C105.243 72.7245 105.06 72.8891 105.037 73.1268Z" fill="white"/>
<path d="M102.317 30.0132C102.317 27.906 100.416 26.2467 98.2353 26.6535C96.864 26.9095 95.7715 28.0294 95.5293 29.4053C95.3784 30.2646 95.5567 31.0737 95.9498 31.741L95.9589 31.7548C96.0915 31.9742 96.2561 32.1341 96.4206 32.3673L98.409 35.0001C98.6558 35.3293 99.1495 35.3293 99.3963 35.0001L101.348 32.413C101.348 32.413 101.714 31.9787 101.846 31.7548L101.855 31.7456C102.143 31.2337 102.317 30.644 102.317 30.0132ZM98.8935 31.5033C98.0616 31.5033 97.3896 30.8314 97.3896 29.9995C97.3896 29.1676 98.0616 28.4957 98.8935 28.4957C99.7254 28.4957 100.397 29.1676 100.397 29.9995C100.397 30.8314 99.7254 31.5033 98.8935 31.5033Z" fill="#FEC54B"/>
<path d="M80.1655 164.797H79.5255V164.564H81.066V164.797H80.426V166.424H80.1609V164.797H80.1655Z" fill="black"/>
<path d="M81.0431 165.721C81.0431 165.3 81.3539 165.003 81.7744 165.003C82.1949 165.003 82.5058 165.3 82.5058 165.721C82.5058 166.141 82.1995 166.443 81.7744 166.443C81.3539 166.443 81.0431 166.141 81.0431 165.721ZM82.2498 165.721C82.2498 165.419 82.0487 165.227 81.779 165.227C81.5093 165.227 81.3036 165.419 81.3036 165.721C81.3036 166.022 81.5093 166.219 81.779 166.219C82.0441 166.219 82.2498 166.022 82.2498 165.721Z" fill="black"/>
<path d="M83.6532 166.342C83.5755 166.411 83.4613 166.443 83.347 166.443C83.0636 166.443 82.899 166.288 82.899 166V165.227H82.6613V165.017H82.899V164.711H83.155V165.017H83.5572V165.227H83.155V165.99C83.155 166.141 83.2327 166.228 83.3744 166.228C83.4475 166.228 83.5207 166.205 83.5755 166.16L83.6532 166.342Z" fill="black"/>
<path d="M85.0744 165.574V166.425H84.8322V166.237C84.7453 166.365 84.5899 166.438 84.3705 166.438C84.0505 166.438 83.8494 166.269 83.8494 166.022C83.8494 165.798 83.9957 165.611 84.4162 165.611H84.8185V165.561C84.8185 165.346 84.695 165.222 84.4391 165.222C84.2699 165.222 84.1008 165.282 83.9911 165.373L83.886 165.181C84.0323 165.062 84.2425 164.998 84.4665 164.998C84.8596 165.003 85.0744 165.19 85.0744 165.574ZM84.8185 165.995V165.798H84.4254C84.174 165.798 84.1008 165.894 84.1008 166.018C84.1008 166.159 84.2197 166.246 84.4117 166.246C84.6036 166.246 84.7545 166.159 84.8185 165.995Z" fill="black"/>
<path d="M85.5501 164.454H85.8061V166.425H85.5501V164.454Z" fill="black"/>
<path d="M88.3335 164.455V166.425H88.0866V166.201C87.9724 166.361 87.7941 166.438 87.5838 166.438C87.1724 166.438 86.8708 166.15 86.8708 165.716C86.8708 165.286 87.1724 164.999 87.5838 164.999C87.7849 164.999 87.9586 165.072 88.0775 165.222V164.445H88.3335V164.455ZM88.0821 165.721C88.0821 165.419 87.8764 165.227 87.6112 165.227C87.3416 165.227 87.1359 165.419 87.1359 165.721C87.1359 166.022 87.3416 166.219 87.6112 166.219C87.8764 166.219 88.0821 166.022 88.0821 165.721Z" fill="black"/>
<path d="M88.7727 164.583C88.7727 164.491 88.8459 164.413 88.9464 164.413C89.0424 164.413 89.1201 164.487 89.1201 164.578C89.1201 164.674 89.047 164.747 88.9464 164.747C88.8459 164.747 88.7727 164.674 88.7727 164.583ZM88.8184 165.017H89.0744V166.425H88.8184V165.017Z" fill="black"/>
<path d="M89.3807 166.278L89.4858 166.077C89.6047 166.164 89.7967 166.224 89.9795 166.224C90.2172 166.224 90.3132 166.15 90.3132 166.032C90.3132 165.716 89.4218 165.99 89.4218 165.428C89.4218 165.177 89.6458 165.008 90.0069 165.008C90.1898 165.008 90.4 165.053 90.5189 165.136L90.4092 165.337C90.2812 165.255 90.1395 165.227 90.0024 165.227C89.7784 165.227 89.6687 165.309 89.6687 165.419C89.6687 165.753 90.56 165.478 90.56 166.027C90.56 166.283 90.3269 166.443 89.9521 166.443C89.7281 166.443 89.4996 166.37 89.3807 166.278Z" fill="black"/>
<path d="M91.6847 166.342C91.607 166.411 91.4927 166.443 91.3784 166.443C91.095 166.443 90.9305 166.288 90.9305 166V165.227H90.6928V165.017H90.9305V164.711H91.1865V165.017H91.5887V165.227H91.1865V165.99C91.1865 166.141 91.2642 166.228 91.4059 166.228C91.479 166.228 91.5521 166.205 91.607 166.16L91.6847 166.342Z" fill="black"/>
<path d="M93.1054 165.574V166.425H92.8631V166.237C92.7763 166.365 92.6209 166.438 92.4015 166.438C92.0815 166.438 91.8804 166.269 91.8804 166.022C91.8804 165.798 92.0267 165.611 92.4472 165.611H92.8494V165.561C92.8494 165.346 92.726 165.222 92.47 165.222C92.3009 165.222 92.1318 165.282 92.0221 165.373L91.917 165.181C92.0632 165.062 92.2735 164.998 92.4975 164.998C92.886 165.003 93.1054 165.19 93.1054 165.574ZM92.8494 165.995V165.798H92.4563C92.2049 165.798 92.1318 165.894 92.1318 166.018C92.1318 166.159 92.2506 166.246 92.4426 166.246C92.6346 166.246 92.7854 166.159 92.8494 165.995Z" fill="black"/>
<path d="M94.916 165.616V166.425H94.66V165.643C94.66 165.369 94.5229 165.232 94.2806 165.232C94.0109 165.232 93.8326 165.392 93.8326 165.698V166.425H93.5767V165.017H93.8235V165.227C93.9286 165.085 94.1069 165.003 94.3309 165.003C94.6737 165.003 94.916 165.2 94.916 165.616Z" fill="black"/>
<path d="M95.2683 165.721C95.2683 165.3 95.5791 165.003 96.0134 165.003C96.2648 165.003 96.4751 165.108 96.5893 165.305L96.3973 165.428C96.3059 165.291 96.1688 165.227 96.0134 165.227C95.7391 165.227 95.5289 165.419 95.5289 165.721C95.5289 166.027 95.7346 166.219 96.0134 166.219C96.1688 166.219 96.3059 166.155 96.3973 166.018L96.5893 166.141C96.4796 166.338 96.2694 166.443 96.0134 166.443C95.5791 166.443 95.2683 166.141 95.2683 165.721Z" fill="black"/>
<path d="M98.1616 165.808H97.0188C97.0508 166.054 97.2519 166.219 97.5308 166.219C97.6953 166.219 97.8324 166.164 97.9376 166.05L98.0793 166.214C97.9513 166.365 97.7593 166.443 97.5216 166.443C97.0691 166.443 96.7628 166.141 96.7628 165.721C96.7628 165.305 97.0645 165.003 97.4713 165.003C97.8782 165.003 98.1661 165.296 98.1661 165.73C98.1661 165.753 98.1616 165.785 98.1616 165.808ZM97.0188 165.625H97.9239C97.8964 165.387 97.7182 165.222 97.4713 165.222C97.2245 165.218 97.0462 165.382 97.0188 165.625Z" fill="black"/>
<path d="M81.8338 168.514V172.952H80.8053V169.336H79.9186V168.514H81.8338Z" fill="black"/>
<path d="M83.8092 172.381C83.8092 172.545 83.7817 172.664 83.64 173.016L83.2789 173.93H82.6527L82.9315 172.925C82.7213 172.843 82.5887 172.646 82.5887 172.385C82.5887 172.02 82.8538 171.777 83.2058 171.777C83.5532 171.773 83.8092 172.02 83.8092 172.381Z" fill="black"/>
<path d="M85.8796 168.514V172.952H84.8511V169.336H83.9644V168.514H85.8796Z" fill="black"/>
<path d="M86.6521 170.731C86.6521 169.268 87.4657 168.436 88.5536 168.436C89.6507 168.436 90.4552 169.268 90.4552 170.731C90.4552 172.193 89.6507 173.025 88.5536 173.025C87.4657 173.025 86.6521 172.193 86.6521 170.731ZM89.4221 170.731C89.4221 169.72 89.0656 169.304 88.5536 169.304C88.0463 169.304 87.6897 169.725 87.6897 170.731C87.6897 171.741 88.0463 172.157 88.5536 172.157C89.0702 172.157 89.4221 171.741 89.4221 170.731Z" fill="black"/>
<path d="M90.9581 170.731C90.9581 169.268 91.7718 168.436 92.8597 168.436C93.9567 168.436 94.7612 169.268 94.7612 170.731C94.7612 172.193 93.9567 173.025 92.8597 173.025C91.7718 173.025 90.9581 172.193 90.9581 170.731ZM93.7281 170.731C93.7281 169.72 93.3716 169.304 92.8597 169.304C92.3523 169.304 91.9957 169.725 91.9957 170.731C91.9957 171.741 92.3523 172.157 92.8597 172.157C93.3762 172.157 93.7281 171.741 93.7281 170.731Z" fill="black"/>
<path d="M103.03 170.996V172.948H102.042V171.147C102.042 170.594 101.795 170.342 101.398 170.342C100.954 170.342 100.644 170.626 100.644 171.238V172.952H99.6562V171.151C99.6562 170.598 99.4231 170.347 99.0117 170.347C98.5729 170.347 98.262 170.63 98.262 171.243V172.957H97.2747V169.547H98.2209V169.94C98.4723 169.647 98.8563 169.497 99.2905 169.497C99.7659 169.497 100.173 169.679 100.415 170.054C100.689 169.707 101.133 169.497 101.645 169.497C102.444 169.487 103.03 169.958 103.03 170.996Z" fill="black"/>
<path d="M77.1886 169.04C77.6722 166.983 76.397 164.924 74.3402 164.44C72.2834 163.956 70.224 165.232 69.7403 167.289C69.2566 169.345 70.5319 171.405 72.5887 171.888C74.6455 172.372 76.7049 171.097 77.1886 169.04Z" fill="#FEC54B"/>
<path d="M71.9283 168.861C71.9283 168.838 72.2849 168.82 72.9111 168.802C73.5373 168.783 74.4287 168.77 75.4983 168.761L75.4206 168.93C75.1189 168.582 74.7898 168.198 74.4424 167.801L74.3784 167.728L74.4378 167.654C74.7441 167.27 75.0686 166.868 75.4023 166.448L75.4937 166.64C75.3566 166.64 75.2057 166.64 75.0595 166.64C73.9304 166.635 72.8654 166.63 71.9238 166.626L72.0289 166.521C72.0198 167.682 72.006 168.66 71.9878 169.346C71.9695 170.031 71.9466 170.429 71.9238 170.429C71.9009 170.429 71.8781 170.031 71.8598 169.346C71.8415 168.66 71.8278 167.682 71.8186 166.521V166.416H71.9283C72.87 166.411 73.935 166.406 75.064 166.402C75.2149 166.402 75.3611 166.402 75.4983 166.402H75.7451L75.5897 166.594C75.2514 167.01 74.9269 167.412 74.6161 167.791V167.645C74.9543 168.047 75.2789 168.436 75.576 168.788L75.7222 168.962H75.4983C74.4287 168.953 73.5327 168.939 72.9111 168.921C72.2849 168.907 71.9283 168.884 71.9283 168.861Z" fill="#FAFAFA"/>
<path d="M135.374 161.634H123.805C122.584 161.634 121.593 162.626 121.593 163.847V172.952C121.593 174.172 122.584 175.164 123.805 175.164H124.097V177.335L126.616 175.164H135.374C136.595 175.164 137.586 174.172 137.586 172.952V163.847C137.586 162.626 136.595 161.634 135.374 161.634Z" fill="#FEC54B"/>
<path d="M124.906 165.812V170.484C124.906 170.584 124.988 170.666 125.089 170.666H134.88C134.98 170.666 135.062 170.584 135.062 170.484L135.04 168.774C135.04 168.737 135.026 168.696 135.003 168.669L133.6 166.79C133.568 166.744 133.513 166.717 133.453 166.717L131.835 166.703C131.735 166.703 131.652 166.621 131.652 166.52V165.817C131.652 165.716 131.57 165.634 131.47 165.634H125.084C124.988 165.629 124.906 165.711 124.906 165.812Z" fill="#FAFAFA"/>
<path d="M132.111 167.11V168.609C132.111 168.669 132.156 168.715 132.216 168.715L134.378 168.678C134.46 168.678 134.51 168.582 134.46 168.513L133.45 167.023C133.432 166.996 133.395 166.978 133.358 166.978L132.207 167.01C132.156 167.005 132.111 167.051 132.111 167.11Z" fill="#FEC54B"/>
<path d="M135.255 170.808H124.71V171.133H135.255V170.808Z" fill="#FAFAFA"/>
<path d="M128.197 170.931C128.197 171.507 127.731 171.974 127.155 171.974C126.579 171.974 126.113 171.507 126.113 170.931C126.113 170.355 126.579 169.889 127.155 169.889C127.731 169.889 128.197 170.355 128.197 170.931Z" fill="#FEC54B"/>
<path d="M127.772 170.931C127.772 171.27 127.498 171.544 127.16 171.544C126.822 171.544 126.547 171.27 126.547 170.931C126.547 170.593 126.822 170.319 127.16 170.319C127.494 170.319 127.772 170.593 127.772 170.931Z" fill="#FAFAFA"/>
<path d="M131.649 170.666C131.621 170.666 131.603 169.537 131.603 168.148C131.603 166.758 131.626 165.629 131.649 165.629C131.676 165.629 131.694 166.754 131.694 168.148C131.699 169.537 131.676 170.666 131.649 170.666Z" fill="#FEC54B"/>
<path d="M133.884 170.931C133.884 171.507 133.418 171.974 132.842 171.974C132.266 171.974 131.8 171.507 131.8 170.931C131.8 170.355 132.266 169.889 132.842 169.889C133.418 169.889 133.884 170.355 133.884 170.931Z" fill="#FEC54B"/>
<path d="M133.454 170.931C133.454 171.27 133.18 171.544 132.842 171.544C132.503 171.544 132.229 171.27 132.229 170.931C132.229 170.593 132.503 170.319 132.842 170.319C133.18 170.319 133.454 170.593 133.454 170.931Z" fill="#FAFAFA"/>
<path d="M132.842 169.007C132.842 169.035 132.691 169.053 132.508 169.053C132.325 169.053 132.174 169.03 132.174 169.007C132.174 168.98 132.325 168.961 132.508 168.961C132.695 168.957 132.842 168.98 132.842 169.007Z" fill="#FEC54B"/>
<path d="M241.928 92.3385C241.928 92.3385 249.301 93.5863 249.895 93.7417C250.49 93.9017 252.825 95.0079 252.944 95.721C253.063 96.434 252.944 98.5321 252.944 98.5321C252.944 98.5321 252.524 98.8749 252.259 98.1893C251.993 97.5037 252.035 96.1461 252.035 96.1461L250.727 95.6433L251.44 96.9094L251.559 99.876C251.559 99.876 250.645 99.7937 250.471 99.0806C250.293 98.3721 250.298 97.5768 250.298 97.5768L249.342 96.7677L250.055 97.7322L250.298 99.8714C250.298 99.8714 249.603 100.095 249.383 99.62C249.164 99.1446 249.146 97.7322 249.146 97.7322L246.458 96.7951L244.68 97.787L241.357 95.9084L241.928 92.3385Z" fill="#FFBE9D"/>
<path d="M216.116 74.1141C216.148 74.2604 225.002 86.4466 225.002 86.4466L242.783 91.9775L241.974 98.6557L220.179 94.2675L212.445 85.3907L216.116 74.1141Z" fill="#FEC54B"/>
<g opacity="0.2">
<g opacity="0.2">
<path opacity="0.2" d="M216.116 74.1141C216.148 74.2604 225.002 86.4466 225.002 86.4466L242.783 91.9775L241.974 98.6557L220.179 94.2675L212.445 85.3907L216.116 74.1141Z" fill="black"/>
</g>
</g>
<path d="M185.142 97.9652H148.812C148.044 97.9652 147.418 97.3436 147.418 96.5711V92.2789C147.418 91.511 148.039 90.8848 148.812 90.8848H185.142C185.91 90.8848 186.536 91.5064 186.536 92.2789V96.5711C186.536 97.3436 185.914 97.9652 185.142 97.9652Z" fill="#F5F5F5"/>
<path d="M185.142 97.9655C185.142 97.9564 185.22 97.9609 185.371 97.9335C185.517 97.9015 185.746 97.8421 185.979 97.6547C186.207 97.4764 186.445 97.161 186.491 96.7313C186.509 96.3017 186.491 95.7897 186.491 95.2229C186.486 94.6515 186.486 94.0207 186.482 93.326C186.482 92.9786 186.477 92.6175 186.477 92.2426C186.468 91.8815 186.303 91.5159 186.006 91.2645C185.86 91.1365 185.682 91.045 185.49 90.9948C185.298 90.9399 185.092 90.9491 184.873 90.9491C184.438 90.9491 183.995 90.9536 183.538 90.9536C182.619 90.9582 181.65 90.9582 180.635 90.9628C172.485 90.9719 161.236 90.9856 148.817 90.9993C148.46 90.9948 148.108 91.1548 147.875 91.4153C147.633 91.6804 147.519 92.0278 147.542 92.3981C147.542 93.166 147.542 93.9293 147.542 94.6835C147.542 95.0629 147.542 95.4378 147.542 95.8126V96.3748C147.542 96.5668 147.542 96.7313 147.587 96.9005C147.674 97.2296 147.903 97.5175 148.2 97.6821C148.346 97.7644 148.511 97.8147 148.68 97.8329C148.84 97.8467 149.036 97.8375 149.219 97.8421C152.149 97.8467 154.974 97.8467 157.666 97.8512C163.046 97.8604 167.896 97.8695 171.973 97.8787C176.037 97.8924 179.328 97.9061 181.618 97.9152C182.747 97.9244 183.629 97.9335 184.242 97.9381C184.534 97.9426 184.758 97.9472 184.923 97.9518C185.065 97.9564 185.142 97.9655 185.142 97.9655C185.142 97.9655 185.065 97.9746 184.909 97.9792C184.745 97.9838 184.521 97.9838 184.228 97.9929C183.62 97.9975 182.738 98.0066 181.604 98.0158C179.319 98.0249 176.023 98.0386 171.96 98.0523C167.887 98.0615 163.037 98.0661 157.653 98.0798C154.96 98.0798 152.135 98.0843 149.205 98.0889C149.018 98.0843 148.849 98.0981 148.643 98.0798C148.447 98.0569 148.25 97.9975 148.076 97.9015C147.724 97.7095 147.455 97.3667 147.35 96.9782C147.295 96.7862 147.295 96.5714 147.295 96.3931V95.8309C147.295 95.456 147.295 95.0766 147.295 94.7018C147.295 93.943 147.295 93.1843 147.295 92.4163C147.267 92.0232 147.404 91.5753 147.688 91.2736C147.967 90.9628 148.387 90.7754 148.808 90.7799C161.227 90.7936 172.476 90.8074 180.626 90.8165C181.646 90.8211 182.615 90.8211 183.529 90.8256C183.986 90.8256 184.434 90.8302 184.864 90.8302C185.074 90.8302 185.302 90.8211 185.513 90.8851C185.723 90.9445 185.919 91.045 186.079 91.1867C186.404 91.4656 186.582 91.8678 186.587 92.2609C186.587 92.6357 186.587 92.9969 186.582 93.3442C186.578 94.0345 186.573 94.6698 186.573 95.2412C186.564 95.8126 186.578 96.3108 186.55 96.7588C186.491 97.2113 186.239 97.5313 185.997 97.7141C185.75 97.9015 185.517 97.9518 185.366 97.9792C185.225 97.9792 185.142 97.9655 185.142 97.9655Z" fill="black"/>
<path d="M283.782 188.426C294.092 187.931 302.049 179.171 301.553 168.861C301.058 158.551 292.298 150.594 281.988 151.09C271.677 151.585 263.721 160.345 264.216 170.655C264.712 180.965 273.472 188.922 283.782 188.426Z" fill="black"/>
<path d="M264.207 169.456C264.207 169.474 264.202 169.488 264.202 169.506C264.051 179.827 272.297 188.315 282.619 188.462C292.94 188.612 301.428 180.366 301.575 170.045C301.575 170.027 301.575 170.013 301.575 169.995L264.207 169.456Z" fill="black"/>
<path d="M269.775 169.584C269.67 176.829 275.461 182.789 282.706 182.894C289.951 182.999 295.912 177.208 296.017 169.963C296.122 162.718 290.33 156.757 283.085 156.652C275.836 156.552 269.88 162.339 269.775 169.584Z" fill="#FAFAFA"/>
<path d="M283.081 156.652C275.836 156.547 269.875 162.339 269.77 169.584L296.012 169.963C296.117 162.718 290.33 156.757 283.081 156.652Z" fill="#E0E0E0"/>
<path d="M274.903 169.661C274.839 174.077 278.368 177.706 282.779 177.77C287.194 177.834 290.824 174.305 290.888 169.894C290.952 165.479 287.423 161.85 283.012 161.786C278.596 161.717 274.962 165.246 274.903 169.661Z" fill="black"/>
<path d="M274.02 142.368C274.02 142.368 293.154 136.581 301.071 157.37L261.029 169.771L274.02 142.368Z" fill="#FEC54B"/>
<path d="M168.466 188.43C178.776 187.934 186.732 179.175 186.237 168.865C185.741 158.554 176.981 150.598 166.671 151.093C156.361 151.589 148.405 160.349 148.9 170.659C149.396 180.969 158.155 188.925 168.466 188.43Z" fill="black"/>
<path d="M148.889 169.455C148.889 169.474 148.885 169.487 148.885 169.506C148.734 179.827 156.98 188.315 167.301 188.461C177.622 188.612 186.111 180.366 186.257 170.045C186.257 170.027 186.257 170.013 186.257 169.995L148.889 169.455Z" fill="black"/>
<path d="M154.452 169.584C154.347 176.829 160.139 182.789 167.384 182.894C174.629 182.999 180.589 177.208 180.694 169.963C180.799 162.718 175.008 156.757 167.763 156.652C160.513 156.552 154.557 162.339 154.452 169.584Z" fill="#FAFAFA"/>
<path d="M167.763 156.652C160.518 156.547 154.557 162.338 154.452 169.583L180.694 169.963C180.799 162.718 175.008 156.757 167.763 156.652Z" fill="#E0E0E0"/>
<path d="M159.581 169.661C159.517 174.077 163.046 177.706 167.456 177.77C171.872 177.834 175.501 174.305 175.565 169.894C175.629 165.479 172.101 161.849 167.69 161.785C163.274 161.717 159.645 165.246 159.581 169.661Z" fill="black"/>
<path d="M194.156 162.27C194.051 162.325 184.319 160.766 184.319 160.766C183.254 162.156 181.627 163.006 179.881 163.088C175.675 163.289 171.566 163.477 168.005 163.632C164.687 163.778 162.113 166.59 162.25 169.908V169.913C162.383 173.053 164.901 175.562 168.042 175.686L188.739 176.5C192.144 176.632 196.665 174.566 198.791 171.901L194.156 162.27Z" fill="black"/>
<path d="M143.309 154.001C143.309 154.001 142.417 135.786 159.536 131.992V129.656H219.502V135.224C219.502 135.224 210.699 145.824 213.574 154.623C216.449 163.427 217.345 164.322 217.345 164.322H251.472C251.472 164.322 255.604 159.112 255.782 151.391C255.96 143.666 252.751 130.461 250.356 122.018C248.176 114.343 246.8 107.921 246.8 107.921L257.039 104.507C257.039 104.507 275.986 129.277 276.758 130.671C277.531 132.065 280.164 135.315 279.542 142.432C278.925 149.554 261.898 171.531 257.409 174.004C252.921 176.481 248.898 176.637 244.871 177.254C241.379 177.793 215.539 177.437 208.783 177.331C206.434 177.295 204.116 176.696 202.11 175.48C200.089 174.255 198.567 172.226 196.89 168.898L193.329 161.932L143.309 154.001Z" fill="#FEC54B"/>
<path d="M147.898 152.735L140.342 164.565C139.373 166.078 140.941 167.984 142.586 167.271C143.386 166.923 144.246 166.384 145.119 165.552C148.574 162.265 154.732 153.608 154.732 153.608L147.898 152.735Z" fill="black"/>
<path d="M202.06 154.865C202.055 154.865 202.069 154.806 202.105 154.691C202.142 154.568 202.192 154.403 202.256 154.193C202.384 153.754 202.54 153.101 202.654 152.241C202.846 150.536 202.759 147.935 201.484 145.101C200.862 143.689 199.943 142.245 198.7 140.919C197.452 139.603 195.912 138.387 194.111 137.418C192.319 136.444 190.289 135.676 188.123 135.187C185.952 134.698 183.643 134.479 181.28 134.479C178.917 134.479 176.613 134.689 174.401 134.981C172.188 135.278 170.067 135.644 168.065 136.101C164.066 137.002 160.587 138.332 157.895 139.863C155.193 141.385 153.278 143.049 152.081 144.297C151.477 144.919 151.043 145.435 150.755 145.792C150.618 145.961 150.513 146.098 150.43 146.198C150.357 146.29 150.316 146.336 150.312 146.331C150.312 146.331 150.824 145.508 152.012 144.233C153.191 142.958 155.102 141.266 157.808 139.717C160.505 138.154 164.002 136.801 168.015 135.886C170.022 135.425 172.147 135.05 174.369 134.748C176.586 134.451 178.903 134.236 181.28 134.236C183.657 134.236 185.984 134.46 188.173 134.954C190.363 135.448 192.406 136.225 194.216 137.217C196.031 138.199 197.589 139.438 198.846 140.777C200.099 142.126 201.022 143.593 201.639 145.028C202.905 147.903 202.969 150.536 202.745 152.246C202.617 153.11 202.448 153.768 202.302 154.202C202.229 154.408 202.169 154.573 202.128 154.691C202.087 154.81 202.064 154.865 202.06 154.865Z" fill="black"/>
<path d="M198.604 150.774C198.576 150.765 198.704 150.486 198.828 149.965C198.969 149.444 199.029 148.653 198.896 147.702C198.764 146.747 198.398 145.645 197.781 144.526C197.479 143.963 197.109 143.406 196.675 142.862C196.25 142.313 195.751 141.792 195.189 141.321C194.06 140.375 192.808 139.708 191.624 139.237C190.431 138.775 189.306 138.501 188.351 138.341C187.396 138.181 186.61 138.112 186.07 138.08C185.526 138.048 185.229 138.035 185.229 138.016C185.229 138.007 185.302 138.003 185.449 137.994C185.59 137.989 185.805 137.98 186.075 137.984C186.619 137.989 187.409 138.03 188.379 138.172C189.348 138.309 190.49 138.57 191.706 139.027C192.913 139.497 194.193 140.169 195.345 141.134C195.921 141.618 196.428 142.149 196.862 142.711C197.301 143.264 197.676 143.84 197.978 144.416C198.595 145.559 198.951 146.692 199.065 147.675C199.18 148.653 199.093 149.462 198.919 149.983C198.864 150.253 198.75 150.44 198.7 150.577C198.645 150.71 198.613 150.779 198.604 150.774Z" fill="#F5F5F5"/>
<g opacity="0.4">
<g opacity="0.4">
<g opacity="0.4">
<path opacity="0.4" d="M186.861 134.817C190.212 135.457 193.142 136.659 195.889 138.492C198.636 140.325 200.743 142.926 201.936 146.006C203.134 149.087 202.956 153.169 201.694 155.72L205.931 156.072C207.358 151.313 205.803 145.476 202.375 141.751C198.357 137.381 192.826 134.817 186.861 134.817Z" fill="black"/>
</g>
</g>
</g>
<path d="M185.513 129.656H148.447C146.28 129.656 144.525 127.901 144.525 125.734V101.531C144.525 99.3643 146.28 97.609 148.447 97.609H185.513C187.679 97.609 189.435 99.3643 189.435 101.531V125.734C189.435 127.901 187.679 129.656 185.513 129.656Z" fill="black"/>
<path d="M189.434 104.758C189.434 104.822 179.337 104.877 166.886 104.877C154.43 104.877 144.333 104.822 144.333 104.758C144.333 104.694 154.43 104.639 166.886 104.639C179.337 104.639 189.434 104.694 189.434 104.758Z" fill="black"/>
<path d="M219.475 131.777C219.475 131.841 206 131.896 189.375 131.896C172.746 131.896 159.275 131.841 159.275 131.777C159.275 131.713 172.75 131.658 189.375 131.658C205.995 131.658 219.475 131.713 219.475 131.777Z" fill="black"/>
<path d="M219.502 129.656C219.502 129.656 220.49 128.477 220.586 126.968C220.682 125.46 219.991 123.581 218.373 123.581H197.667C194.312 123.581 191.592 126.301 191.592 129.656H219.502Z" fill="black"/>
<path d="M246.805 107.921L243.203 100.411C242.22 98.2764 243.001 95.7396 245.022 94.5374L255.791 88.1152C256.353 87.7815 256.998 87.6032 257.651 87.6032H259.978L260.911 102.783L257.322 104.155L259.594 107.848L246.805 107.921Z" fill="#FEC54B"/>
<path d="M260.015 88.1515C260.015 88.1515 263.699 88.9972 264.16 94.6743C264.622 100.356 260.91 102.12 260.91 102.12L260.015 88.1515Z" fill="#EBEBEB"/>
<path d="M248.061 97.4672C248.061 97.4672 240.615 100.996 239.706 101.576C239.075 101.979 238.535 102.683 239.029 103.921C239.875 106.033 243.353 104.045 243.353 104.045L250.283 100.58C250.283 100.58 252.948 99.323 251.965 97.746C250.863 95.9862 248.061 97.4672 248.061 97.4672Z" fill="black"/>
<path d="M237.521 96.1827C237.521 96.1827 244.515 97.3803 245.109 97.5403C245.703 97.7003 248.039 98.8065 248.158 99.5195C248.276 100.233 248.158 102.331 248.158 102.331C248.158 102.331 247.737 102.674 247.472 101.988C247.207 101.302 247.248 99.9446 247.248 99.9446L245.941 99.4418L246.654 100.708L246.773 103.675C246.773 103.675 245.858 103.592 245.685 102.879C245.506 102.171 245.511 101.375 245.511 101.375L244.56 100.566L245.273 101.531L245.516 103.67C245.516 103.67 244.821 103.894 244.601 103.419C244.382 102.943 244.364 101.531 244.364 101.531L241.676 100.594L239.898 101.586L237.1 100.054L237.521 96.1827Z" fill="#FFBE9D"/>
<path d="M248.418 86.4375C248.418 89.2715 247.115 91.5662 245.511 91.5662C243.906 91.5662 242.604 89.2715 242.604 86.4375C242.604 83.6035 243.906 81.3089 245.511 81.3089C247.115 81.3089 248.418 83.6081 248.418 86.4375Z" fill="black"/>
<path d="M245.987 89.9618L247.582 95.4972C248.295 95.1361 248.446 94.4231 248.327 93.8608C247.925 91.9639 247.701 90.6154 247.257 88.9516C247.207 88.7916 245.987 89.9618 245.987 89.9618Z" fill="black"/>
<g opacity="0.4">
<g opacity="0.4">
<path opacity="0.4" d="M214.364 156.991C214.204 156.533 214.044 156.067 213.893 155.587C213.752 155.139 213.582 154.678 213.464 154.234C213.244 153.439 213.116 152.621 213.066 152.15C210.369 163.129 214.488 170.859 221.554 171.403C231.88 172.198 244.473 172.774 249.565 171.439C258.849 169.003 262.254 161.264 263.068 159.985C263.881 158.709 271.264 145.211 266.738 132.216C262.213 119.221 254.324 105.421 254.324 105.421L246.804 107.926C246.804 107.926 248.18 114.343 250.361 122.023C252.756 130.465 255.965 143.671 255.786 151.396C255.608 159.121 251.476 164.327 251.476 164.327H217.349C217.344 164.322 216.613 163.591 214.364 156.991Z" fill="black"/>
</g>
</g>
<path d="M141.947 151.144L142.189 148.539L204.482 155.715C207.997 156.127 210.443 159.413 209.826 162.901L209.547 164.478L145.073 155.107C143.14 154.828 141.764 153.087 141.947 151.144Z" fill="#FEC54B"/>
<g opacity="0.6">
<g opacity="0.6">
<path opacity="0.6" d="M141.947 151.144L142.189 148.539L204.482 155.715C207.997 156.127 210.443 159.413 209.826 162.901L209.547 164.478L145.073 155.107C143.14 154.828 141.764 153.087 141.947 151.144Z" fill="black"/>
</g>
</g>
<g opacity="0.3">
<g opacity="0.3">
<g opacity="0.3">
<path opacity="0.3" d="M263.068 168.569C263.068 168.569 276.781 153.485 279.611 141.628C280.562 141.618 282.774 141.714 283.857 141.943C283.853 141.943 275.744 163.989 263.068 168.569Z" fill="black"/>
</g>
</g>
</g>
<path d="M279.409 136.316C279.419 136.316 279.441 136.444 279.483 136.695C279.519 136.947 279.592 137.317 279.638 137.797C279.725 138.757 279.784 140.174 279.533 141.893C279.286 143.611 278.696 145.613 277.723 147.689C276.772 149.773 275.456 151.926 274.093 154.179C271.346 158.7 268.288 162.393 266.067 165.035C264.951 166.352 264.028 167.403 263.388 168.13C263.077 168.477 262.83 168.752 262.648 168.957C262.474 169.145 262.383 169.241 262.378 169.236C262.373 169.232 262.451 169.126 262.611 168.925C262.785 168.715 263.022 168.427 263.32 168.066C263.955 167.307 264.842 166.238 265.939 164.926C268.128 162.261 271.154 158.554 273.892 154.056C275.259 151.802 276.571 149.663 277.526 147.597C278.504 145.54 279.103 143.566 279.368 141.87C279.643 140.169 279.611 138.771 279.547 137.811C279.515 137.331 279.455 136.961 279.437 136.705C279.409 136.449 279.4 136.316 279.409 136.316Z" fill="black"/>
<path d="M255.7 168.459C255.654 168.505 254.671 167.618 253.506 166.475C252.34 165.333 251.43 164.368 251.476 164.322C251.522 164.277 252.505 165.163 253.675 166.306C254.84 167.449 255.75 168.413 255.7 168.459Z" fill="black"/>
<path d="M215.004 167.997C214.949 167.97 215.324 167.051 216.01 166.046C216.691 165.035 217.409 164.345 217.45 164.391C217.5 164.437 216.874 165.186 216.207 166.183C215.535 167.17 215.068 168.025 215.004 167.997Z" fill="black"/>
<path d="M188.657 176.705C188.602 176.659 189.64 175.997 190.527 174.328C190.97 173.505 191.331 172.431 191.445 171.197C191.56 169.972 191.382 168.583 190.778 167.294C190.152 166.014 189.187 165.003 188.164 164.318C187.135 163.628 186.075 163.235 185.156 163.061C183.3 162.7 182.134 163.093 182.134 163.02C182.134 163.011 182.203 162.992 182.34 162.96C182.477 162.933 182.674 162.869 182.939 162.846C183.465 162.764 184.246 162.741 185.188 162.901C186.129 163.056 187.226 163.445 188.287 164.14C189.347 164.83 190.348 165.867 190.993 167.193C191.615 168.528 191.788 169.958 191.66 171.22C191.537 172.482 191.144 173.579 190.673 174.411C190.207 175.242 189.695 175.837 189.297 176.193C189.11 176.385 188.936 176.495 188.826 176.586C188.721 176.669 188.662 176.71 188.657 176.705Z" fill="black"/>
<path d="M165.907 171.928C165.843 171.933 165.743 170.946 165.683 169.73C165.624 168.514 165.633 167.527 165.697 167.522C165.761 167.517 165.862 168.5 165.921 169.721C165.98 170.937 165.976 171.928 165.907 171.928Z" fill="black"/>
<path d="M167.562 171.933C167.498 171.942 167.32 170.959 167.164 169.744C167.009 168.523 166.936 167.531 167 167.522C167.064 167.513 167.242 168.496 167.397 169.716C167.553 170.927 167.626 171.924 167.562 171.933Z" fill="black"/>
<path d="M193.251 129.656C193.251 129.72 185.677 129.775 176.339 129.775C166.996 129.775 159.422 129.72 159.422 129.656C159.422 129.592 166.996 129.537 176.339 129.537C185.677 129.537 193.251 129.592 193.251 129.656Z" fill="black"/>
<path d="M168.723 129.633C168.659 129.633 168.604 120.957 168.604 110.261C168.604 99.5607 168.659 90.885 168.723 90.885C168.787 90.885 168.842 99.5561 168.842 110.261C168.842 120.957 168.791 129.633 168.723 129.633Z" fill="black"/>
<path d="M164.088 129.601C164.024 129.597 164.349 120.93 164.81 110.239C165.277 99.547 165.706 90.8804 165.77 90.885C165.834 90.8896 165.51 99.5562 165.048 110.248C164.582 120.939 164.152 129.606 164.088 129.601Z" fill="black"/>
<path d="M153.598 182.465C153.593 182.469 153.525 182.401 153.397 182.264C153.273 182.122 153.081 181.925 152.862 181.646C152.409 181.103 151.806 180.271 151.175 179.169C149.914 176.989 148.661 173.579 148.675 169.68C148.693 165.776 149.973 162.38 151.253 160.209C151.893 159.112 152.505 158.284 152.958 157.745C153.177 157.466 153.374 157.274 153.497 157.132C153.625 156.995 153.694 156.927 153.698 156.931C153.703 156.936 153.648 157.018 153.534 157.164C153.424 157.315 153.237 157.516 153.031 157.8C152.601 158.357 152.012 159.194 151.399 160.291C150.165 162.467 148.926 165.826 148.913 169.68C148.899 173.528 150.106 176.902 151.321 179.087C151.925 180.188 152.505 181.029 152.935 181.592C153.141 181.88 153.324 182.085 153.433 182.232C153.548 182.378 153.602 182.455 153.598 182.465Z" fill="black"/>
<path d="M219.082 147.638L218.941 147.908L216.189 153.087L212.331 156.803L220.042 167.069L226.469 166.004C226.469 166.004 225.747 164.537 222.524 164.254L221.29 158.119L225.82 151.098" fill="black"/>
<path d="M212.33 156.798L220.037 167.065L226.464 166L225.582 165.154L220.307 165.73L213.149 156.008L212.33 156.798Z" fill="#E0E0E0"/>
<path d="M222.007 161.429C221.97 161.502 221.564 161.355 221.07 161.451C220.572 161.534 220.247 161.817 220.183 161.758C220.115 161.721 220.412 161.273 221.015 161.168C221.623 161.054 222.057 161.369 222.007 161.429Z" fill="black"/>
<path d="M221.651 159.916C221.596 159.971 221.244 159.642 220.718 159.628C220.188 159.61 219.818 159.916 219.767 159.856C219.74 159.829 219.795 159.71 219.959 159.582C220.119 159.454 220.398 159.331 220.727 159.34C221.056 159.349 221.326 159.491 221.477 159.632C221.628 159.77 221.678 159.893 221.651 159.916Z" fill="black"/>
<path d="M221.363 157.946C221.299 157.991 221.015 157.658 220.544 157.58C220.074 157.493 219.694 157.712 219.649 157.644C219.626 157.616 219.694 157.511 219.859 157.415C220.023 157.319 220.293 157.242 220.595 157.296C220.892 157.351 221.12 157.511 221.244 157.658C221.367 157.804 221.395 157.923 221.363 157.946Z" fill="black"/>
<path d="M222.83 156.136C222.757 156.177 222.515 155.838 222.076 155.646C221.642 155.441 221.23 155.482 221.212 155.404C221.18 155.336 221.655 155.139 222.195 155.386C222.734 155.624 222.908 156.113 222.83 156.136Z" fill="black"/>
<path d="M223.447 154.677C223.419 154.705 223.163 154.481 222.775 154.097C222.555 153.873 222.331 153.644 222.103 153.416C221.984 153.279 221.833 153.169 221.719 152.945C221.664 152.831 221.646 152.689 221.691 152.547C221.732 152.401 221.902 152.282 222.043 152.282C222.331 152.278 222.509 152.396 222.697 152.492C222.875 152.602 223.031 152.735 223.163 152.872C223.424 153.155 223.575 153.471 223.652 153.745C223.808 154.303 223.675 154.659 223.652 154.645C223.602 154.641 223.652 154.298 223.46 153.809C223.364 153.567 223.209 153.297 222.971 153.055C222.852 152.936 222.711 152.826 222.555 152.735C222.404 152.648 222.208 152.556 222.071 152.566C222.007 152.575 221.979 152.598 221.961 152.643C221.943 152.694 221.947 152.767 221.975 152.826C222.034 152.959 222.18 153.096 222.299 153.233C222.514 153.48 222.72 153.717 222.925 153.955C223.273 154.376 223.479 154.65 223.447 154.677Z" fill="black"/>
<path d="M223.712 154.828C223.68 154.833 223.648 154.49 223.931 154.047C224.21 153.626 224.887 153.11 225.778 153.388C225.847 153.43 225.906 153.512 225.915 153.603C225.924 153.695 225.901 153.763 225.869 153.818C225.81 153.932 225.732 153.992 225.673 154.06C225.54 154.188 225.403 154.303 225.261 154.394C224.983 154.582 224.699 154.7 224.457 154.769C223.968 154.906 223.648 154.86 223.652 154.828C223.648 154.783 223.954 154.755 224.393 154.577C224.612 154.49 224.864 154.362 225.111 154.175C225.234 154.083 225.357 153.978 225.476 153.859C225.536 153.795 225.595 153.736 225.618 153.686C225.641 153.626 225.636 153.64 225.623 153.626C225.6 153.608 225.508 153.594 225.426 153.59C225.344 153.585 225.261 153.585 225.184 153.594C225.024 153.608 224.873 153.649 224.731 153.704C224.452 153.814 224.242 153.992 224.096 154.17C223.803 154.527 223.758 154.837 223.712 154.828Z" fill="black"/>
<path d="M217.422 155.752C217.491 156.172 217.207 156.57 216.787 156.643C216.366 156.712 215.969 156.428 215.896 156.008C215.827 155.587 216.11 155.189 216.531 155.116C216.951 155.048 217.349 155.331 217.422 155.752Z" fill="#E0E0E0"/>
<path d="M242.485 152.575L244.547 165.959L261.213 163.481C260.879 161.904 251.778 159.989 251.778 159.989L250.809 151.359L242.485 152.575Z" fill="black"/>
<path d="M246.521 160.035C246.211 160.172 246.042 160.565 246.165 160.88C246.288 161.196 246.691 161.369 247.001 161.241C247.312 161.109 247.532 160.642 247.372 160.341C247.212 160.044 246.732 159.861 246.462 160.062" fill="#E0E0E0"/>
<path d="M244.547 165.959L244.391 164.601L260.431 162.732C260.431 162.732 261.222 162.942 261.217 163.481L244.547 165.959Z" fill="#E0E0E0"/>
<path d="M252.039 159.865C252.048 159.948 251.646 160.044 251.285 160.368C250.914 160.679 250.759 161.063 250.681 161.04C250.603 161.036 250.654 160.533 251.097 160.149C251.536 159.765 252.043 159.788 252.039 159.865Z" fill="black"/>
<path d="M253.894 160.327C253.926 160.405 253.593 160.592 253.369 160.981C253.131 161.36 253.117 161.744 253.035 161.749C252.962 161.771 252.834 161.305 253.122 160.83C253.405 160.354 253.881 160.249 253.894 160.327Z" fill="black"/>
<path d="M255.197 162.27C255.124 162.297 254.95 161.909 255.097 161.433C255.234 160.953 255.595 160.72 255.636 160.784C255.691 160.844 255.481 161.118 255.371 161.516C255.248 161.904 255.28 162.251 255.197 162.27Z" fill="black"/>
<path d="M251.6 157.923C251.577 158.001 251.189 157.946 250.732 158.046C250.275 158.138 249.941 158.343 249.886 158.279C249.831 158.229 250.133 157.873 250.672 157.763C251.212 157.649 251.628 157.85 251.6 157.923Z" fill="black"/>
<path d="M250.91 156.003C250.915 156.035 250.604 156.135 250.074 156.122C249.813 156.117 249.498 156.076 249.159 155.985C248.99 155.939 248.817 155.88 248.643 155.802C248.561 155.765 248.46 155.729 248.359 155.642C248.254 155.569 248.172 155.363 248.259 155.217C248.327 155.075 248.469 154.997 248.588 154.979C248.711 154.956 248.812 154.965 248.908 154.974C249.1 154.993 249.283 155.029 249.452 155.075C249.79 155.171 250.078 155.317 250.298 155.464C250.736 155.765 250.915 156.049 250.887 156.067C250.855 156.099 250.627 155.87 250.192 155.637C249.973 155.518 249.699 155.404 249.383 155.326C249.223 155.29 249.059 155.262 248.881 155.249C248.698 155.23 248.547 155.249 248.515 155.336C248.501 155.368 248.501 155.381 248.547 155.427C248.593 155.468 248.67 155.505 248.753 155.541C248.913 155.614 249.077 155.678 249.233 155.729C249.543 155.829 249.836 155.889 250.087 155.916C250.586 155.985 250.901 155.957 250.91 156.003Z" fill="black"/>
<path d="M250.819 156.135C250.791 156.154 250.585 155.884 250.48 155.363C250.425 155.102 250.407 154.782 250.457 154.43C250.485 154.257 250.526 154.074 250.595 153.891C250.668 153.713 250.755 153.475 251.065 153.388C251.23 153.356 251.385 153.466 251.449 153.571C251.522 153.676 251.545 153.772 251.582 153.864C251.641 154.056 251.664 154.243 251.664 154.426C251.664 154.787 251.564 155.107 251.436 155.34C251.175 155.82 250.851 155.966 250.837 155.943C250.805 155.907 251.065 155.706 251.253 155.253C251.344 155.029 251.413 154.746 251.399 154.43C251.394 154.275 251.367 154.11 251.312 153.95C251.262 153.777 251.17 153.644 251.106 153.672C251.024 153.681 250.901 153.836 250.855 153.987C250.791 154.147 250.745 154.312 250.713 154.472C250.654 154.787 250.649 155.084 250.677 155.326C250.732 155.825 250.864 156.117 250.819 156.135Z" fill="black"/>
<path d="M229.371 121.136L215.073 152.282L224.517 157.95L244.277 120.473" fill="black"/>
<path d="M252.939 158.659L242.682 160.304L236.543 123.672L206.215 125.871C205.41 125.921 204.601 125.853 203.824 125.638C195.304 123.302 196.46 112.446 197.278 110.705L239.245 109.498C243.797 109.365 247.719 112.679 248.35 117.191L252.939 158.659Z" fill="black"/>
<path d="M196.867 112.428L197.018 96.9414C197.018 96.9414 195.02 86.8715 194.426 82.9131C193.507 76.7651 192.25 73.8488 202.315 69.479L204.514 68.6288L207.919 68.6745C211.983 68.9808 216.261 72.6513 216.357 75.0876L220.275 109.987L196.867 112.428Z" fill="#FEC54B"/>
<path d="M197.498 73.0808C197.498 73.0808 194.66 79.1968 195.226 84.7688L205.817 94.9346C208.194 97.5767 211.161 98.7011 214.959 98.9297L236.873 101.325L237.48 95.5929L216.632 89.6872C215.805 89.5363 215.389 88.6678 214.754 88.1148L197.498 73.0808Z" fill="#FEC54B"/>
<path d="M195.788 74.8453C195.788 74.8453 195.907 74.7128 196.209 74.5619C196.51 74.4157 196.986 74.2648 197.626 74.1643C198.261 74.0728 199.066 74.0043 199.993 74.1688C200.222 74.2237 200.464 74.2785 200.688 74.4065C200.908 74.5345 201.118 74.6854 201.333 74.8453C201.758 75.1744 202.183 75.5493 202.613 75.9652C203.49 76.7834 204.322 77.821 205.296 78.8724C206.265 79.9283 207.334 81.0527 208.495 82.2366C209.652 83.4205 210.9 84.6592 212.239 85.9391C212.911 86.5744 213.601 87.2235 214.333 87.8589C214.703 88.1652 215.069 88.5217 215.42 88.8554C215.777 89.1845 216.184 89.4907 216.65 89.5776H216.655H216.659C222.857 91.3283 229.97 93.3395 237.507 95.4741L237.603 95.5016L237.594 95.6021C237.553 96.0089 237.503 96.4478 237.457 96.8866C237.297 98.4087 237.137 99.9171 236.986 101.334L236.973 101.453L236.854 101.439C233.668 101.087 230.564 100.749 227.579 100.42C226.085 100.255 224.622 100.095 223.191 99.9354C221.756 99.7891 220.357 99.6474 218.99 99.5103C217.624 99.3595 216.298 99.204 215.014 99.0166C213.729 98.8292 212.481 98.5915 211.334 98.1619C210.182 97.7413 209.154 97.138 208.23 96.498C207.302 95.8535 206.461 95.1816 205.671 94.5188C202.539 91.8448 200.24 89.4587 198.645 87.8315C197.854 87.0133 197.246 86.3688 196.839 85.9299C196.643 85.7151 196.492 85.546 196.382 85.4271C196.282 85.3129 196.232 85.2489 196.232 85.2489C196.232 85.2489 196.291 85.2992 196.396 85.4089C196.51 85.5231 196.666 85.6877 196.871 85.8979C197.297 86.3322 197.914 86.963 198.704 87.772C200.318 89.381 202.635 91.7488 205.771 94.4C206.562 95.0536 207.408 95.721 208.331 96.3563C209.25 96.9917 210.264 97.5814 211.398 97.9882C212.532 98.4087 213.761 98.6372 215.046 98.8201C216.326 99.0029 217.651 99.1583 219.018 99.3046C220.385 99.4417 221.783 99.5789 223.219 99.7206C224.649 99.876 226.117 100.036 227.607 100.196C230.592 100.52 233.695 100.859 236.886 101.206L236.753 101.311C236.904 99.8943 237.064 98.3858 237.224 96.8637C237.27 96.4249 237.315 95.9861 237.361 95.5793L237.448 95.7073C229.91 93.568 222.803 91.5477 216.604 89.7878L216.613 89.7924C216.074 89.6919 215.644 89.3536 215.279 89.0154C214.909 88.6634 214.575 88.3343 214.195 88.0189C213.464 87.3789 212.769 86.7253 212.097 86.0854C210.763 84.8009 209.519 83.553 208.363 82.3646C207.211 81.1761 206.146 80.0471 205.177 78.9821C204.203 77.9216 203.385 76.884 202.521 76.0658C202.096 75.6498 201.676 75.2704 201.26 74.9459C201.049 74.7859 200.844 74.6305 200.633 74.5071C200.428 74.3837 200.19 74.3288 199.971 74.274C199.066 74.1003 198.261 74.1597 197.63 74.2374C196.995 74.3242 196.519 74.4614 196.218 74.5985C195.921 74.7311 195.793 74.8545 195.788 74.8453Z" fill="black"/>
<path d="M201.255 55.1993L202.32 70.2744C202.493 72.7336 204.541 74.6443 207.01 74.6443C209.725 74.6443 211.878 72.3451 211.699 69.6345C211.603 68.1992 211.521 67.0245 211.521 67.0245C211.521 67.0245 215.169 66.4576 215.215 62.81C215.242 60.7028 214.876 55.9216 214.565 52.2556C214.355 49.7782 212.28 47.8766 209.793 47.8766H207.59C203.792 48.1006 200.93 51.4146 201.255 55.1993Z" fill="#FFBE9D"/>
<path d="M211.526 66.9742C211.526 66.9742 209.218 67.1616 206.768 65.6212C206.768 65.6212 207.892 68.2495 211.535 67.9204L211.526 66.9742Z" fill="#EB996E"/>
<path d="M213.743 56.9455C213.752 57.2197 213.528 57.4574 213.24 57.4711C212.952 57.4848 212.714 57.2746 212.7 57.0003C212.691 56.726 212.915 56.4884 213.203 56.4746C213.491 56.4609 213.733 56.6712 213.743 56.9455Z" fill="black"/>
<path d="M213.935 55.9169C213.871 55.9854 213.478 55.6929 212.915 55.6929C212.353 55.6883 211.942 55.9763 211.882 55.9077C211.85 55.8757 211.919 55.7569 212.097 55.6243C212.275 55.4963 212.573 55.3683 212.925 55.3683C213.272 55.3683 213.569 55.5009 213.738 55.6289C213.907 55.766 213.967 55.8849 213.935 55.9169Z" fill="black"/>
<path d="M208.477 56.9455C208.486 57.2197 208.262 57.4574 207.974 57.4711C207.686 57.4848 207.449 57.2746 207.435 57.0003C207.426 56.726 207.65 56.4884 207.938 56.4746C208.226 56.4609 208.468 56.6712 208.477 56.9455Z" fill="black"/>
<path d="M208.422 56.022C208.358 56.0906 207.96 55.798 207.403 55.798C206.84 55.7935 206.429 56.0814 206.37 56.0129C206.338 55.9809 206.406 55.862 206.584 55.7295C206.763 55.6015 207.06 55.4735 207.412 55.4735C207.759 55.4735 208.056 55.6061 208.225 55.734C208.395 55.8666 208.454 55.99 208.422 56.022Z" fill="black"/>
<path d="M210.456 60.1815C210.452 60.1495 210.804 60.0901 211.366 60.0169C211.508 60.0032 211.645 59.9758 211.668 59.8752C211.7 59.7701 211.64 59.6192 211.572 59.4501C211.439 59.1027 211.297 58.7416 211.147 58.3577C210.557 56.8035 210.132 55.5282 210.196 55.5054C210.26 55.4825 210.785 56.7212 211.375 58.2754C211.517 58.6593 211.654 59.025 211.782 59.3724C211.837 59.537 211.928 59.7198 211.855 59.9346C211.819 60.0398 211.713 60.1175 211.617 60.1449C211.526 60.1723 211.444 60.1723 211.375 60.1769C210.813 60.2089 210.461 60.2135 210.456 60.1815Z" fill="black"/>
<path d="M208.806 60.5701C208.898 60.5655 208.898 61.1734 209.419 61.6077C209.94 62.0419 210.589 61.9733 210.593 62.0556C210.603 62.0922 210.447 62.1745 210.173 62.179C209.903 62.1882 209.51 62.1013 209.195 61.8362C208.875 61.5711 208.742 61.2191 208.719 60.9677C208.696 60.7163 208.765 60.5655 208.806 60.5701Z" fill="black"/>
<path d="M208.569 53.8235C208.514 53.9744 207.952 53.9058 207.293 53.9835C206.635 54.0475 206.105 54.2441 206.018 54.1069C205.977 54.0429 206.073 53.8967 206.288 53.7504C206.498 53.6041 206.841 53.4624 207.234 53.4167C207.627 53.3756 207.993 53.435 208.23 53.5356C208.473 53.6315 208.591 53.7504 208.569 53.8235Z" fill="black"/>
<path d="M213.729 54.2943C213.628 54.4223 213.244 54.2897 212.778 54.2852C212.312 54.2623 211.919 54.372 211.832 54.2395C211.791 54.1755 211.855 54.0475 212.024 53.9286C212.193 53.8098 212.476 53.7092 212.796 53.7184C213.116 53.7275 213.391 53.8418 213.555 53.9743C213.72 54.1023 213.774 54.2303 213.729 54.2943Z" fill="black"/>
<path d="M202.484 57.942C202.42 57.9145 199.975 57.2015 200.057 59.6972C200.135 62.193 202.626 61.5987 202.626 61.5256C202.631 61.4479 202.484 57.942 202.484 57.942Z" fill="#FFBE9D"/>
<path d="M201.835 60.6024C201.826 60.5932 201.794 60.6344 201.721 60.671C201.652 60.7075 201.529 60.7304 201.396 60.6892C201.131 60.6024 200.893 60.191 200.866 59.7385C200.852 59.5099 200.893 59.2951 200.967 59.1123C201.035 58.9294 201.149 58.7969 201.282 58.7694C201.415 58.7329 201.511 58.8106 201.543 58.8791C201.579 58.9477 201.565 58.998 201.579 59.0026C201.588 59.0071 201.629 58.9568 201.607 58.8563C201.593 58.806 201.565 58.7511 201.501 58.7009C201.442 58.6552 201.351 58.6323 201.259 58.646C201.067 58.6643 200.898 58.8471 200.816 59.0483C200.724 59.2494 200.674 59.4916 200.688 59.7476C200.72 60.2504 200.994 60.7121 201.355 60.8035C201.533 60.8447 201.675 60.7852 201.748 60.7258C201.83 60.6618 201.844 60.607 201.835 60.6024Z" fill="#EB996E"/>
<path d="M201.099 57.8551C201.479 57.7637 202.137 58.1157 202.301 58.4722C202.466 58.8288 202.498 59.231 202.662 59.5875C202.822 59.9441 203.188 60.2686 203.572 60.1772C203.833 60.1132 204.025 59.8709 204.093 59.6058C204.162 59.3453 204.134 59.071 204.102 58.8013C203.956 57.6357 203.709 56.4793 203.664 55.3091C203.618 54.1344 203.782 52.9185 204.399 51.9174C205.017 50.9164 206.146 50.1805 207.316 50.2765C208.093 50.3405 208.801 50.7427 209.574 50.8524C210.488 50.9804 211.452 50.6559 212.106 50.0068C212.188 49.9245 212.581 49.6685 212.581 49.6685C212.581 49.6091 212.527 49.088 212.321 48.896C210.794 47.4836 208.038 47.0905 206.022 47.5979C204.002 48.1053 202.109 49.5314 201.241 51.4238C200.363 53.3116 200.619 55.9399 201.099 57.8551Z" fill="black"/>
<path d="M214.606 51.6934C214.606 51.6934 205.034 48.6126 200.893 56.8952C200.893 56.8952 200.276 54.8245 200.276 53.7138C200.276 52.9733 200.72 48.5532 205.268 47.1636C205.263 47.1636 212.115 44.549 214.606 51.6934Z" fill="#FEC54B"/>
<path d="M206.379 51.9038C206.717 52.4524 207.321 52.8226 207.961 52.882C208.601 52.9414 209.263 52.6809 209.693 52.2055C209.88 52.6763 210.388 53.0009 210.895 52.9734C211.403 52.946 211.873 52.5712 212.011 52.0821C212.289 52.3518 212.577 52.6306 212.943 52.7632C213.309 52.8957 213.766 52.8455 214.008 52.5392C214.25 52.2284 214.182 51.7576 213.944 51.4422C213.706 51.1268 213.336 50.9394 212.975 50.7885C211.837 50.3131 210.584 50.0754 209.364 50.24C208.143 50.4046 206.96 50.9988 206.196 51.9633" fill="black"/>
<g opacity="0.4">
<g opacity="0.4">
<g opacity="0.4">
<g opacity="0.4">
<path opacity="0.4" d="M214.606 51.6935C214.606 51.6935 213.518 50.3954 211.562 50.3131C208.737 50.1897 203.453 51.7758 200.893 56.8999C200.893 56.8999 200.276 54.8292 200.276 53.7185C200.276 52.978 200.72 48.5578 205.268 47.1683C205.263 47.1637 212.115 44.5491 214.606 51.6935Z" fill="black"/>
</g>
</g>
</g>
</g>
<path d="M201.292 55.9262C202.713 53.755 204.669 51.9586 206.868 50.5827C209.067 49.2068 212.705 47.8493 215.215 47.1819C215.969 46.9808 216.751 46.8071 217.518 46.9396C218.286 47.0722 219.036 47.5841 219.228 48.3384C219.466 49.2845 217.788 50.7427 217.002 51.3141C216.216 51.8854 214.607 52.7311 214.607 52.7311C214.607 52.7311 214.63 50.9758 211.823 50.6147C208.002 50.1302 201.292 55.9262 201.292 55.9262Z" fill="#FEC54B"/>
<g opacity="0.3">
<g opacity="0.3">
<g opacity="0.3">
<path opacity="0.3" d="M197.923 87.0317C198.91 89.4132 199.907 92.3523 201.337 94.4961C202.768 96.6399 204.679 98.5414 207.06 99.5379C210.045 100.786 213.579 100.991 216.55 99.707C216.792 99.6019 217.267 99.4693 217.222 99.2087C217.222 99.2087 216.239 99.099 215.933 99.0488C209.926 98.034 209.277 97.2935 206.402 95.0217C204.61 93.6093 200.638 89.3263 197.923 87.0317Z" fill="black"/>
</g>
</g>
</g>
<path d="M217.007 104.374C217.02 104.378 216.943 104.584 216.755 104.931C216.572 105.279 216.257 105.759 215.786 106.284C214.854 107.345 213.199 108.492 211.133 109.128C209.072 109.763 207.115 109.877 205.721 109.937C205.022 109.964 204.455 109.969 204.066 109.969C203.673 109.969 203.458 109.96 203.458 109.941C203.458 109.923 203.673 109.905 204.062 109.877C204.501 109.85 205.054 109.813 205.712 109.772C207.097 109.672 209.035 109.525 211.064 108.904C213.089 108.277 214.721 107.18 215.663 106.17C216.623 105.165 216.961 104.346 217.007 104.374Z" fill="black"/>
<path d="M242.869 161.397C242.865 161.397 242.851 161.351 242.833 161.255C242.81 161.15 242.783 161.008 242.751 160.835C242.682 160.451 242.581 159.907 242.458 159.212C242.211 157.786 241.855 155.752 241.42 153.242C240.566 148.187 239.386 141.225 238.084 133.537C237.503 130.058 236.95 126.726 236.443 123.686L236.562 123.778C231.236 124.166 226.679 124.5 223.438 124.738C221.838 124.847 220.563 124.934 219.672 124.994C219.247 125.016 218.913 125.039 218.666 125.053C218.561 125.058 218.474 125.062 218.406 125.062C218.346 125.062 218.319 125.062 218.319 125.058C218.319 125.053 218.346 125.048 218.406 125.039C218.474 125.03 218.561 125.021 218.662 125.012C218.904 124.989 219.238 124.957 219.663 124.916C220.554 124.838 221.829 124.733 223.425 124.596C226.661 124.34 231.213 123.974 236.539 123.549L236.639 123.54L236.657 123.641C237.169 126.676 237.732 130.008 238.317 133.486C239.592 141.179 240.749 148.146 241.585 153.206C241.992 155.72 242.321 157.758 242.549 159.185C242.655 159.879 242.741 160.423 242.801 160.812C242.824 160.99 242.847 161.127 242.86 161.237C242.869 161.347 242.869 161.397 242.869 161.397Z" fill="black"/>
<path d="M239.624 120.409C239.665 120.464 238.87 121.149 237.96 122.073C237.05 122.991 236.378 123.805 236.324 123.759C236.273 123.723 236.867 122.836 237.791 121.904C238.714 120.971 239.587 120.359 239.624 120.409Z" fill="black"/>
<path d="M211.608 69.959C211.618 69.959 211.636 70.0093 211.663 70.1099C211.695 70.2104 211.723 70.3613 211.75 70.5578C211.796 70.9509 211.773 71.5452 211.526 72.2217C211.279 72.889 210.799 73.6387 210.022 74.2009C209.25 74.7631 208.18 75.0557 207.088 74.9825C205.991 74.9094 204.985 74.498 204.24 73.9175C203.486 73.3416 202.969 72.6468 202.622 72.0297C202.279 71.4035 202.096 70.8595 202.005 70.4756C201.959 70.2836 201.927 70.1327 201.913 70.0322C201.9 69.9316 201.895 69.8768 201.904 69.8722C201.955 69.8539 202.069 70.7452 202.773 71.9474C203.129 72.5371 203.646 73.1999 204.377 73.7438C205.099 74.2923 206.064 74.6763 207.111 74.7494C208.153 74.818 209.163 74.5437 209.903 74.0226C210.649 73.5061 211.124 72.7976 211.38 72.1622C211.631 71.5223 211.686 70.9509 211.668 70.567C211.64 70.1784 211.581 69.9682 211.608 69.959Z" fill="black"/>
<path d="M218.053 89.9205C218.035 89.9205 218.003 89.7514 217.957 89.4451C217.907 89.084 217.843 88.6498 217.774 88.1378C217.624 86.9722 217.427 85.4729 217.212 83.8182C217.006 82.127 216.842 80.5957 216.741 79.485C216.691 78.9273 216.655 78.4793 216.636 78.1685C216.618 77.8577 216.613 77.684 216.632 77.684C216.65 77.684 216.682 77.8531 216.728 78.1594C216.778 78.5205 216.837 78.9547 216.906 79.4667C217.052 80.6323 217.24 82.1315 217.445 83.7908C217.651 85.4775 217.834 87.0088 217.939 88.1195C217.994 88.6772 218.03 89.1251 218.049 89.436C218.067 89.7468 218.072 89.9205 218.053 89.9205Z" fill="black"/>
</svg>
