<svg width="72" height="72" viewBox="0 0 72 72" fill="none" xmlns="http://www.w3.org/2000/svg">
<path d="M71.5613 30.4774C71.5028 30.132 71.335 29.819 71.0863 29.5922C68.7575 27.4679 68.3643 25.1255 68.0483 23.2435L68.007 22.9983C67.8979 22.356 67.4195 21.8611 66.8198 21.7701C66.6128 21.7387 66.3937 21.7226 66.1686 21.7226C64.8303 21.7226 62.9448 22.3307 61.7493 23.6889C61.5454 23.9207 61.4145 24.2161 61.3754 24.5329C61.2749 25.3478 61.2231 26.0936 61.1775 26.7515C61.0053 29.231 60.853 29.4939 60.1525 29.7329C59.7135 29.8827 59.3704 30.2547 59.2338 30.7287C58.5741 33.0187 57.6988 35.2102 56.6393 37.2778C56.116 36.2005 55.5378 35.2316 54.9996 34.3299C53.6833 32.1248 52.6436 30.3828 52.9988 28.2239C54.1499 21.2267 53.5656 15.9558 51.2616 12.5573C49.9786 10.6647 48.1507 9.37442 45.9294 8.77166C46.3715 5.05168 48.7689 3.36516 50.096 2.98167C50.8462 2.76498 51.2915 1.93339 51.0904 1.12441C50.8893 0.315569 50.1181 -0.164972 49.3681 0.0521737C46.628 0.843876 43.7012 3.75032 43.1422 8.39257C40.8979 8.38574 38.8595 9.12482 37.1821 10.5699C34.1171 13.2107 32.2652 18.118 31.6778 25.1552C31.501 27.2729 30.2306 28.5084 28.4721 30.2181C27.0367 31.6138 25.4378 33.172 24.157 35.5277C22.5616 34.8272 20.8502 34.3727 19.0631 34.2082C19.5697 30.6368 21.8991 29.0061 23.2005 28.6302C23.9507 28.4135 24.3959 27.5819 24.1948 26.7731C23.9937 25.9641 23.2225 25.4837 22.4726 25.7008C21.7659 25.9049 21.0472 26.2514 20.3594 26.7303C20.0395 25.0276 19.2655 23.4305 18.0935 22.1669C16.5233 20.4737 14.4354 19.5413 12.2147 19.5413C11.4878 19.5413 10.7639 19.6436 10.0628 19.8453C9.57671 19.9853 9.19688 20.3949 9.06708 20.9191C8.30307 24.0043 9.12797 27.3224 11.2199 29.5787C12.6755 31.1483 14.5766 32.0626 16.6157 32.1881C16.4379 32.8155 16.3058 33.4833 16.229 34.1915C7.16583 34.9257 0 43.1117 0 53.0689C0 63.5075 7.87571 72 17.5561 72C21.1538 72 24.5808 70.8469 27.5147 68.6597C27.9768 68.8784 28.4404 69.0889 28.9062 69.2869C33.1384 71.087 37.4157 71.9998 41.6188 71.9998C48.3795 71.9998 54.6542 69.6179 59.7645 65.1114C65.1059 60.4011 69.0426 53.4313 71.1486 44.9557C71.8358 42.1913 72.442 35.6778 71.5613 30.4774ZM30.3558 32.4706C32.2473 30.6312 34.2033 28.7292 34.479 25.4273C34.995 19.2457 36.495 15.0442 38.9378 12.9396C40.3879 11.6902 42.1804 11.2085 44.2658 11.509C46.3254 11.8055 47.9153 12.7603 48.9912 14.3474C50.825 17.0523 51.2417 21.5429 50.2295 27.6943C49.6814 31.0244 51.1828 33.5393 52.6346 35.9716C53.4482 37.3346 54.2858 38.7402 54.8553 40.376C50.1158 47.7563 42.9241 53.1384 35.0107 55.1092C35.0782 54.4326 35.1125 53.751 35.1125 53.0689C35.1125 46.2287 31.7304 40.2243 26.6749 36.8972C27.727 35.0299 29.0593 33.7313 30.3558 32.4706ZM13.2084 27.434C12.027 26.16 11.4563 24.3735 11.6287 22.6073C11.8231 22.5851 12.0184 22.5737 12.2144 22.5737C13.6838 22.5737 15.0654 23.1908 16.1044 24.3111C17.2859 25.5851 17.8567 27.3717 17.6842 29.1379C17.49 29.16 17.2945 29.1712 17.0989 29.1712H17.0986C15.6288 29.1714 14.2473 28.5543 13.2084 27.434ZM17.5561 68.9672C9.42638 68.9672 2.8125 61.8354 2.8125 53.0689C2.8125 44.3024 9.42638 37.1706 17.5561 37.1706C25.6859 37.1706 32.2999 44.3024 32.2999 53.0689C32.2999 53.9429 32.2337 54.8155 32.1027 55.6739C31.1981 55.7998 30.2873 55.8797 29.3722 55.9133C29.5649 54.9833 29.6656 54.033 29.6656 53.0689C29.6656 51.3612 29.3608 49.6941 28.7599 48.1141C28.4653 47.3396 27.6442 46.9687 26.9252 47.2866C26.2068 47.6045 25.8631 48.4902 26.1578 49.2651C26.6192 50.478 26.8531 51.7577 26.8531 53.0689C26.8531 54.0224 26.7278 54.9591 26.4828 55.866C24.4702 55.7264 22.4546 55.3677 20.4687 54.7939C20.0642 54.677 19.6322 54.7607 19.2907 55.0222C18.0408 55.979 16.7811 57.1825 16.0341 59.4902C15.8416 60.0849 16.01 60.746 16.4574 61.1512C19.0406 63.4911 21.7397 65.4747 24.5198 67.085C22.3917 68.321 20.0222 68.9672 17.5561 68.9672ZM68.432 44.1709C64.5736 59.6976 54.5502 68.9672 41.619 68.9672C34.0699 68.9672 26.1014 65.6298 19.0779 59.5476C19.4501 58.8271 19.9104 58.331 20.405 57.9077C23.0456 58.6102 25.731 58.966 28.3977 58.966C35.9449 58.966 43.2221 56.1927 49.4425 50.9458C52.605 48.2784 55.346 45.0641 57.5415 41.5C57.5677 41.4618 57.5923 41.4223 57.6149 41.3817C59.3481 38.5462 60.7364 35.4912 61.7154 32.3144C63.6863 31.245 63.8366 29.079 63.9824 26.9779C64.0158 26.4977 64.0499 26.0052 64.1021 25.4855C64.4762 25.1934 64.9719 24.9622 65.4689 24.8433C65.8436 26.7714 66.5723 29.2463 68.8751 31.5316C69.5266 35.9992 69.0535 41.6694 68.432 44.1709Z" fill="#E67F1E"/>
<path d="M45.352 14.6296C44.6362 14.3063 43.8117 14.6695 43.5113 15.4418C43.211 16.2141 43.5481 17.1027 44.2644 17.4266C45.2874 17.8891 45.8523 21.2177 44.9526 26.6847C44.8169 27.5093 45.3268 28.2964 46.0917 28.4428C46.1748 28.4587 46.2575 28.4664 46.339 28.4664C47.008 28.4664 47.6011 27.9496 47.7221 27.2148C48.5267 22.326 48.7686 16.1742 45.352 14.6296Z" fill="#E67F1E"/>
<path d="M54.6472 58.0317C54.1813 57.3616 53.2983 57.2271 52.677 57.7298C52.6764 57.7301 52.6704 57.735 52.67 57.7353C52.0436 58.2298 51.9102 59.176 52.3682 59.8517C52.6431 60.2572 53.0709 60.4717 53.5044 60.4717C53.7933 60.4717 54.0848 60.3765 54.3354 60.1791L54.3676 60.1534C54.9889 59.6509 55.1132 58.7018 54.6472 58.0317Z" fill="#E67F1E"/>
<path d="M51.4199 60.4839C51.066 59.7384 50.2189 59.4432 49.5274 59.8246C44.7142 62.4794 40.6534 62.3744 40.5935 62.3715C39.8205 62.3425 39.1674 62.9921 39.137 63.8277C39.1067 64.6644 39.7111 65.3694 40.4872 65.4021C40.5087 65.403 40.5844 65.4057 40.7099 65.4057C41.715 65.4057 45.9038 65.2297 50.8082 62.5243C51.4997 62.1433 51.7735 61.2295 51.4199 60.4839Z" fill="#E67F1E"/>
<path d="M26.1618 43.8827L26.1155 43.8326C25.565 43.2423 24.6747 43.2446 24.1268 43.8384C23.5791 44.4322 23.5815 45.3924 24.1321 45.983L24.1624 46.0156C24.4374 46.3156 24.7997 46.4655 25.1621 46.4655C25.5194 46.4655 25.877 46.3195 26.1511 46.0272C26.7032 45.4383 26.708 44.478 26.1618 43.8827Z" fill="#E67F1E"/>
</svg>
