<svg width="28" height="25" viewBox="0 0 28 25" fill="none" xmlns="http://www.w3.org/2000/svg">
<path d="M21.8573 19.4858C20.0733 16.5109 18.9999 15.212 18.9999 12C18.9981 10.3176 18.3908 8.692 17.2891 7.42046C16.1874 6.14893 14.6649 5.31636 12.9999 5.07497V4.99997C12.9999 4.73475 12.8946 4.4804 12.707 4.29286C12.5195 4.10533 12.2651 3.99997 11.9999 3.99997C11.7347 3.99997 11.4803 4.10533 11.2928 4.29286C11.1053 4.4804 10.9999 4.73475 10.9999 4.99997V5.07917C9.32459 5.39641 7.81104 6.28459 6.71703 7.59244C5.62301 8.9003 5.01619 10.547 4.99991 12.252C4.99991 15.212 3.73791 16.826 2.14251 19.4859C2.05157 19.6376 2.00251 19.8107 2.00032 19.9876C1.99814 20.1645 2.04291 20.3388 2.13008 20.4927C2.21724 20.6467 2.34368 20.7747 2.49649 20.8638C2.6493 20.9529 2.82302 20.9999 2.99991 21H20.9999C21.1768 20.9999 21.3506 20.9529 21.5034 20.8638C21.6562 20.7747 21.7827 20.6466 21.8698 20.4927C21.957 20.3388 22.0018 20.1644 21.9996 19.9875C21.9974 19.8106 21.9483 19.6375 21.8573 19.4858Z" fill="#384144"/>
<path d="M14 22H10C9.73481 22 9.48046 22.1054 9.29292 22.2929C9.10539 22.4804 9.00003 22.7348 9.00003 23C9.00003 23.2652 9.10539 23.5196 9.29292 23.7071C9.48046 23.8947 9.73481 24 10 24H14C14.2652 24 14.5196 23.8947 14.7071 23.7071C14.8947 23.5196 15 23.2652 15 23C15 22.7348 14.8947 22.4804 14.7071 22.2929C14.5196 22.1054 14.2652 22 14 22Z" fill="#384144"/>
<circle cx="21" cy="7" r="6" fill="#FEC54B" stroke="#FAFEFC" stroke-width="2"/>
</svg>
