<svg width="40" height="40" viewBox="0 0 40 40" fill="none" xmlns="http://www.w3.org/2000/svg">
<path d="M39.4141 32.0589H37.3407C37.269 29.2749 35.5011 27.0388 33.3383 27.0388C31.1749 27.0388 29.4067 29.2749 29.335 32.0589H28.8516C28.8086 30.3871 28.1537 28.9128 27.1689 28.0017V10.7598C27.1689 10.7555 27.1689 10.7511 27.1689 10.7464C27.1689 10.5844 27.114 10.4361 27.023 10.3232L23.4171 5.65119V1.97817C23.4171 0.887352 22.6062 0 21.6092 0H9.08508C8.08838 0 7.27722 0.887352 7.27722 1.97817V5.65119L3.66333 10.3325C3.57391 10.4484 3.52509 10.5951 3.52509 10.7464V13.7777C3.52509 14.1318 3.78723 14.4191 4.11102 14.4191C4.43451 14.4191 4.69696 14.1318 4.69696 13.7777V11.3879H25.997V27.2563C25.6329 27.1147 25.2475 27.0388 24.8483 27.0388C22.6855 27.0388 20.9177 29.2749 20.8459 32.0589H18.7729C18.4491 32.0589 18.187 32.3459 18.187 32.7004C18.187 33.0549 18.4491 33.3419 18.7729 33.3419H19.697L21.0632 38.7167H17.171C17.1768 38.661 17.1799 38.6045 17.1799 38.547V37.0994C17.1799 36.6627 16.8796 36.3033 16.4816 36.2632C15.86 36.2007 15.3912 35.6367 15.3912 34.9519C15.3912 34.267 15.86 33.7033 16.4819 33.6405C16.8799 33.6004 17.1802 33.241 17.1802 32.8046V30.7326C17.1802 30.3123 16.8958 29.9535 16.5189 29.8974C16.2494 29.8573 16.0458 29.6017 16.0458 29.3027C16.0458 29.0037 16.2494 28.7481 16.5192 28.708C16.8958 28.6522 17.1802 28.293 17.1802 27.8727V26.8865C17.1802 26.0853 16.5848 25.4335 15.853 25.4335H4.69696V16.3435C4.69696 15.989 4.43451 15.7021 4.11102 15.7021C3.78723 15.7021 3.52509 15.989 3.52509 16.3435V25.4335H2.77863C2.65869 25.4335 2.54089 25.4419 2.42523 25.4583C1.05927 25.6487 0 26.9293 0 28.4754V36.9581C0 38.5046 1.05927 39.7848 2.42523 39.9756C2.54089 39.9916 2.65869 40 2.77863 40H15.853C15.8621 40 15.8713 40 15.8804 39.9997H22.2455C22.2543 40 22.2629 40 22.2714 40H27.4261C27.9453 40 28.4052 39.6175 28.5446 39.0699L29.0933 36.9103L29.6423 39.0699C29.7818 39.6175 30.2417 40 30.7608 40H35.9155C36.4346 40 36.8948 39.6175 37.034 39.0699L38.49 33.3419H39.4141C39.7379 33.3419 40 33.0549 40 32.7004C40 32.3463 39.7379 32.0589 39.4141 32.0589ZM25.3207 10.1053H5.37323L8.13568 6.52718H22.5589L25.3207 10.1053ZM9.08508 1.28292H21.6095C21.9601 1.28292 22.2455 1.59496 22.2455 1.97817V5.24426H8.4491V1.97817C8.4491 1.59496 8.73444 1.28292 9.08508 1.28292ZM33.3383 28.3218C34.8578 28.3218 36.1014 29.9825 36.1682 32.0589H30.5075C30.5743 29.9825 31.8185 28.3218 33.3383 28.3218ZM24.8483 28.3218C25.3415 28.3218 25.8057 28.4965 26.2097 28.8035C26.2308 28.8226 26.2524 28.8396 26.2756 28.8553C27.0819 29.5071 27.6352 30.6932 27.6791 32.0589H22.0184C22.0853 29.9825 23.3289 28.3218 24.8483 28.3218ZM2.77863 38.7171C1.8927 38.7171 1.17188 37.928 1.17188 36.9581V28.4754C1.17188 27.5056 1.8927 26.7168 2.77863 26.7168H3.05695C2.73407 27.2136 2.54425 27.8206 2.54425 28.4754V29.9856C2.54425 30.3397 2.8067 30.627 3.13019 30.627C3.45398 30.627 3.71613 30.3397 3.71613 29.9856V28.4754C3.71613 27.5056 4.43695 26.7168 5.32288 26.7168H15.853C15.9384 26.7168 16.008 26.793 16.008 26.8865V27.5323C15.3421 27.7976 14.874 28.5005 14.874 29.3027C14.874 30.1052 15.3418 30.8081 16.008 31.0734V32.4314C14.9661 32.7168 14.2194 33.7381 14.2194 34.9519C14.2194 36.1659 14.9661 37.1873 16.008 37.4729V38.5474C16.008 38.6376 15.9436 38.7114 15.8621 38.7167H15.853C15.8469 38.7167 15.8408 38.7167 15.835 38.7171H5.32288C4.43695 38.7171 3.71613 37.928 3.71613 36.9581V32.5514C3.71613 32.1969 3.45398 31.9099 3.13019 31.9099C2.8067 31.9099 2.54425 32.1969 2.54425 32.5514V36.9581C2.54425 37.6132 2.73438 38.2203 3.05725 38.7171H2.77863ZM35.9073 38.7171H30.769L30.0854 36.0273C29.9899 35.6511 29.6738 35.3882 29.317 35.3882H28.8696C28.5129 35.3882 28.197 35.6508 28.1015 36.027L27.4176 38.7171H24.4812C24.4754 38.7171 24.4693 38.7167 24.4632 38.7167H22.2797L20.9134 33.3419H21.4313C21.4417 33.3422 21.4526 33.3422 21.4633 33.3419H28.2352C28.2404 33.3422 28.2455 33.3422 28.2507 33.3422C28.2559 33.3422 28.2611 33.3422 28.2666 33.3419H29.9203C29.9307 33.3422 29.9417 33.3422 29.9524 33.3419H36.7242C36.7294 33.3422 36.7346 33.3422 36.7398 33.3422C36.745 33.3422 36.7502 33.3422 36.7557 33.3419H37.2736L35.9073 38.7171Z" fill="#7A1E76"/>
<path d="M6.70996 31.1205C7.58826 31.1205 8.30298 30.3383 8.30298 29.3765C8.30298 28.415 7.58826 27.6329 6.70996 27.6329C5.83166 27.6329 5.11694 28.415 5.11694 29.3765C5.11694 30.338 5.83166 31.1205 6.70996 31.1205ZM6.70996 28.9158C6.9422 28.9158 7.1311 29.1226 7.1311 29.3765C7.1311 29.6307 6.9422 29.8375 6.70996 29.8375C6.47772 29.8375 6.28882 29.6307 6.28882 29.3765C6.28882 29.1226 6.47772 28.9158 6.70996 28.9158Z" fill="#7A1E76"/>
<path d="M10.6797 37.2558C11.915 37.2558 12.9197 36.1556 12.9197 34.8035C12.9197 33.4514 11.915 32.3513 10.6797 32.3513C9.44464 32.3513 8.4397 33.4514 8.4397 34.8035C8.4397 36.1556 9.44464 37.2558 10.6797 37.2558ZM10.6797 33.6342C11.2687 33.6342 11.7478 34.1587 11.7478 34.8035C11.7478 35.4483 11.2687 35.9728 10.6797 35.9728C10.0907 35.9728 9.61157 35.4483 9.61157 34.8035C9.61157 34.1587 10.0907 33.6342 10.6797 33.6342Z" fill="#7A1E76"/>
<path d="M9.71594 20.9463C11.446 20.9049 13.2041 21.9015 15.0672 22.9576C16.9385 24.018 18.8718 25.1138 20.8546 25.1138C20.9092 25.1138 20.9638 25.1128 21.0184 25.1111C21.5916 25.0934 22.0408 24.5863 22.0408 23.9565V19.4606C22.0408 19.1486 21.9285 18.8562 21.7246 18.6377C21.5189 18.4176 21.2476 18.2966 20.9574 18.307C19.2295 18.3474 17.4692 17.3515 15.6061 16.2957C13.6832 15.2059 11.6938 14.0784 9.65491 14.1422C9.08148 14.1599 8.63257 14.667 8.63257 15.2968V19.7924C8.63257 20.1047 8.74487 20.3971 8.94873 20.6156C9.15472 20.8357 9.42572 20.9527 9.71594 20.9463ZM9.80444 15.4224H9.82184C11.5159 15.4224 13.2426 16.4006 15.0672 17.435C16.9385 18.4954 18.8718 19.5912 20.8542 19.5912H20.8689V23.8305C20.8631 23.8309 20.8573 23.8309 20.8515 23.8309C19.1575 23.8309 17.4311 22.8523 15.6061 21.8183C13.7348 20.7576 11.8015 19.6621 9.81909 19.6621H9.80444V15.4224Z" fill="#7A1E76"/>
</svg>
