<svg width="17" height="17" viewBox="0 0 17 17" fill="none" xmlns="http://www.w3.org/2000/svg">
<path d="M10.0418 10.0418C9.84207 10.2562 9.6012 10.4281 9.33357 10.5474C9.06593 10.6666 8.77702 10.7308 8.48407 10.7359C8.19111 10.7411 7.90012 10.6872 7.62844 10.5775C7.35677 10.4677 7.10998 10.3044 6.9028 10.0972C6.69562 9.89004 6.53229 9.64325 6.42255 9.37158C6.31282 9.09991 6.25893 8.80891 6.2641 8.51596C6.26927 8.223 6.33339 7.93409 6.45264 7.66646C6.57189 7.39882 6.74382 7.15795 6.95818 6.95821M12.82 12.82C11.5768 13.7677 10.063 14.2927 8.5 14.3182C3.40909 14.3182 0.5 8.50002 0.5 8.50002C1.40465 6.81413 2.65937 5.34119 4.18 4.18002L12.82 12.82ZM6.97273 2.85639C7.47333 2.73921 7.98586 2.68063 8.5 2.68184C13.5909 2.68184 16.5 8.50002 16.5 8.50002C16.0585 9.32592 15.532 10.1035 14.9291 10.82L6.97273 2.85639Z" stroke="black" stroke-opacity="0.4" stroke-linecap="round" stroke-linejoin="round"/>
<path d="M0.5 0.5L16.5 16.5" stroke="black" stroke-opacity="0.4" stroke-linecap="round" stroke-linejoin="round"/>
</svg>
