<svg width="72" height="72" viewBox="0 0 72 72" fill="none" xmlns="http://www.w3.org/2000/svg">
<path d="M72 6.04744C72.0001 4.85141 71.6913 3.6822 71.1126 2.68769C70.534 1.69318 69.7114 0.918043 68.749 0.460322C67.7866 0.00260069 66.7276 -0.117145 65.7059 0.116228C64.6843 0.349602 63.7458 0.925612 63.0093 1.77141L50.5777 16.0382C50.3644 16.0118 50.15 15.9989 49.9355 15.9995C49.2249 15.9983 48.5202 16.1475 47.8568 16.4395C47.383 15.5889 46.7478 14.8724 45.9987 14.3435C47.0453 12.8882 47.6162 11.0588 47.6129 9.17147V3.99943C47.6129 3.6458 47.4905 3.30666 47.2728 3.05661C47.055 2.80656 46.7596 2.66608 46.4516 2.66608H41.947C41.0131 2.66293 40.088 2.87263 39.2252 3.283C38.3625 3.69338 37.5792 4.29628 36.9209 5.05677C36.5761 5.4534 36.2675 5.88945 36 6.35811C35.7324 5.88945 35.4239 5.4534 35.0791 5.05677C34.4208 4.29628 33.6375 3.69338 32.7748 3.283C31.912 2.87263 30.9869 2.66293 30.053 2.66608H25.5484C25.2404 2.66608 24.945 2.80656 24.7272 3.05661C24.5094 3.30666 24.3871 3.6458 24.3871 3.99943V9.17147C24.3824 11.0581 24.9517 12.8874 25.9966 14.3435C25.2475 14.8724 24.6123 15.5889 24.1386 16.4395C22.9397 15.9139 21.6227 15.8605 20.3945 16.2877C19.1663 16.7149 18.0965 17.5984 17.3532 18.7996C16.9929 18.713 16.6261 18.6684 16.2581 18.6662C14.9031 18.6683 13.5912 19.2135 12.5489 20.2077C11.5067 21.2018 10.7994 22.5826 10.5492 24.1116C9.41538 24.3579 8.37106 24.986 7.54905 25.9157C6.72705 26.8455 6.16452 28.0351 5.93303 29.333H3.48387C2.55989 29.333 1.67375 29.7544 1.0204 30.5046C0.36705 31.2547 0 32.2721 0 33.333V42.6664C0.00856017 48.7949 2.05805 54.6877 5.72853 59.1372C9.39901 63.5868 14.4126 66.2562 19.7419 66.5986V68C19.7419 69.0608 20.109 70.0783 20.7623 70.8284C21.4157 71.5786 22.3018 72 23.2258 72H48.7742C49.6982 72 50.5843 71.5786 51.2377 70.8284C51.891 70.0783 52.2581 69.0608 52.2581 68V66.5986C57.5874 66.2562 62.601 63.5868 66.2715 59.1372C69.9419 54.6877 71.9914 48.7949 72 42.6664V33.333C72 32.2721 71.6329 31.2547 70.9796 30.5046C70.3262 29.7544 69.4401 29.333 68.5161 29.333H66.0669C65.8355 28.0351 65.2729 26.8455 64.4509 25.9157C63.6289 24.986 62.5846 24.3579 61.4508 24.1116C61.3043 23.2389 61.0053 22.4093 60.5717 21.6729L70.4578 10.3235C70.9482 9.7631 71.337 9.09667 71.6017 8.36272C71.8664 7.62876 72.0018 6.84184 72 6.04744ZM38.563 6.94212C39.0063 6.43028 39.5337 6.0245 40.1146 5.74826C40.6954 5.47201 41.3182 5.33079 41.947 5.33277H45.2903V9.17147C45.2864 10.6272 44.7832 12.0226 43.8898 13.0555C43.7864 13.1742 43.6668 13.2702 43.5553 13.3768C42.1002 13.1781 40.6359 13.6505 39.4839 14.6902C38.7971 14.1036 38.0027 13.705 37.1613 13.5248V10.8275C37.1653 9.37112 37.6689 7.97521 38.563 6.94212ZM28.1114 13.0568C27.2173 12.0237 26.7137 10.6278 26.7097 9.17147V5.33277H30.053C30.6817 5.33079 31.3046 5.47201 31.8854 5.74826C32.4663 6.0245 32.9937 6.43028 33.437 6.94212C34.3311 7.97521 34.8347 9.37112 34.8387 10.8275V13.5248C33.9973 13.705 33.2029 14.1036 32.5161 14.6902C31.3641 13.6505 29.8997 13.1781 28.4446 13.3768C28.3355 13.2702 28.2194 13.1742 28.1114 13.0568ZM48.7742 69.3333H23.2258C22.9178 69.3333 22.6224 69.1928 22.4046 68.9428C22.1869 68.6927 22.0645 68.3536 22.0645 68V66.6666H49.9355V68C49.9355 68.3536 49.8131 68.6927 49.5953 68.9428C49.3776 69.1928 49.0822 69.3333 48.7742 69.3333ZM51.0968 63.9999H20.9032C15.9771 63.9932 11.2545 61.7434 7.77117 57.7441C4.28789 53.7447 2.32842 48.3224 2.32258 42.6664V39.2184L3.34335 40.3904C4.6126 41.8477 6.33406 42.6664 8.12903 42.6664C9.924 42.6664 11.6455 41.8477 12.9147 40.3904L14.2757 38.8277C15.1096 37.8707 16.2403 37.3331 17.4194 37.3331C18.5984 37.3331 19.7291 37.8707 20.563 38.8277L21.924 40.3904C23.1932 41.8477 24.9147 42.6664 26.7097 42.6664C28.5046 42.6664 30.2261 41.8477 31.4953 40.3904L32.8564 38.8277C33.6902 37.8707 34.821 37.3331 36 37.3331C37.179 37.3331 38.3098 37.8707 39.1436 38.8277L40.5046 40.3904C41.7739 41.8477 43.4953 42.6664 45.2903 42.6664C47.0853 42.6664 48.8067 41.8477 50.076 40.3904L51.437 38.8277C52.2709 37.8707 53.4016 37.3331 54.5806 37.3331C55.7597 37.3331 56.8904 37.8707 57.7242 38.8277L59.0853 40.3904C60.3545 41.8477 62.076 42.6664 63.871 42.6664C65.6659 42.6664 67.3874 41.8477 68.6566 40.3904L69.6774 39.2184V42.6664C69.6716 48.3224 67.7121 53.7447 64.2288 57.7441C60.7455 61.7434 56.0229 63.9932 51.0968 63.9999ZM69.6774 33.333V35.4477L67.0146 38.5051C66.1807 39.4621 65.05 39.9997 63.871 39.9997C62.6919 39.9997 61.5612 39.4621 60.7273 38.5051L59.3663 36.9424C58.0971 35.4851 56.3756 34.6664 54.5806 34.6664C52.7857 34.6664 51.0642 35.4851 49.795 36.9424L48.4339 38.5051C47.6001 39.4621 46.4693 39.9997 45.2903 39.9997C44.1113 39.9997 42.9805 39.4621 42.1467 38.5051L40.7857 36.9424C39.5164 35.4851 37.795 34.6664 36 34.6664C34.205 34.6664 32.4836 35.4851 31.2143 36.9424L29.8533 38.5051C29.0194 39.4621 27.8887 39.9997 26.7097 39.9997C25.5307 39.9997 24.3999 39.4621 23.5661 38.5051L22.205 36.9424C20.9358 35.4851 19.2143 34.6664 17.4194 34.6664C15.6244 34.6664 13.9029 35.4851 12.6337 36.9424L11.2726 38.5051C10.4388 39.4621 9.30805 39.9997 8.12903 39.9997C6.95002 39.9997 5.81927 39.4621 4.98542 38.5051L2.32258 35.4477V33.333C2.32258 32.9794 2.44493 32.6402 2.66271 32.3902C2.8805 32.1401 3.17588 31.9997 3.48387 31.9997H68.5161C68.8241 31.9997 69.1195 32.1401 69.3373 32.3902C69.5551 32.6402 69.6774 32.9794 69.6774 33.333ZM63.6573 29.333H8.34271C8.58203 28.5558 9.02465 27.8824 9.61003 27.4051C10.1954 26.9277 10.8949 26.6697 11.6129 26.6663C11.9209 26.6663 12.2163 26.5258 12.4341 26.2758C12.6518 26.0257 12.7742 25.6866 12.7742 25.3329C12.7703 24.6851 12.9044 24.0461 13.1648 23.4714C13.4252 22.8967 13.8041 22.4038 14.2684 22.0357C14.7327 21.6676 15.2683 21.4355 15.8286 21.3595C16.389 21.2834 16.957 21.3659 17.4832 21.5996C17.7548 21.7178 18.055 21.7149 18.3248 21.5915C18.5946 21.4681 18.8143 21.2331 18.9406 20.9329C19.155 20.415 19.4643 19.9564 19.8473 19.5885C20.2303 19.2206 20.6781 18.952 21.1599 18.8012C21.6417 18.6504 22.1462 18.6209 22.6389 18.7148C23.1315 18.8086 23.6007 19.0235 24.0143 19.3449C24.1617 19.4594 24.3301 19.5335 24.5064 19.5614C24.6828 19.5893 24.8623 19.5704 25.0312 19.5059C25.2002 19.4415 25.3539 19.3333 25.4806 19.1898C25.6073 19.0463 25.7036 18.8713 25.7621 18.6782C25.9988 17.8981 26.4404 17.2215 27.0261 16.7418C27.6118 16.262 28.3128 16.0027 29.0323 15.9995C29.5285 15.9999 30.0188 16.1238 30.4693 16.3627C30.9197 16.6017 31.3197 16.9499 31.6417 17.3835C31.7539 17.5205 31.8894 17.6297 32.0398 17.7043C32.1902 17.7789 32.3523 17.8174 32.5161 17.8174C32.6799 17.8174 32.842 17.7789 32.9924 17.7043C33.1428 17.6297 33.2783 17.5205 33.3906 17.3835C33.7192 16.9624 34.1214 16.6256 34.571 16.395C35.0206 16.1644 35.5076 16.0452 36 16.0452C36.4924 16.0452 36.9793 16.1644 37.429 16.395C37.8786 16.6256 38.2808 16.9624 38.6094 17.3835C38.7217 17.5205 38.8572 17.6297 39.0076 17.7043C39.1579 17.7789 39.32 17.8174 39.4839 17.8174C39.6477 17.8174 39.8098 17.7789 39.9602 17.7043C40.1105 17.6297 40.246 17.5205 40.3583 17.3835C40.6802 16.9499 41.0802 16.6017 41.5307 16.3627C41.9812 16.1238 42.4715 15.9999 42.9677 15.9995C43.6882 16.0033 44.3899 16.264 44.9757 16.7456C45.5615 17.2271 46.0026 17.9057 46.2379 18.6875C46.2966 18.8796 46.3927 19.0536 46.519 19.1964C46.6453 19.3392 46.7984 19.4469 46.9665 19.5112C47.1347 19.5756 47.3134 19.5949 47.4891 19.5677C47.6647 19.5404 47.8326 19.4674 47.9799 19.3542C48.3931 19.0314 48.8623 18.815 49.3552 18.7198C49.8482 18.6247 50.3532 18.653 50.8357 18.803C51.3181 18.9529 51.7667 19.2209 52.1505 19.5886C52.5343 19.9562 52.8444 20.4148 53.0593 20.9329C53.1857 21.2331 53.4054 21.4681 53.6752 21.5915C53.945 21.7149 54.2452 21.7178 54.5168 21.5996C55.043 21.3655 55.6111 21.2828 56.1715 21.3587C56.732 21.4346 57.2677 21.6667 57.7321 22.0349C58.1965 22.403 58.5754 22.8961 58.8357 23.4709C59.0961 24.0458 59.23 24.685 59.2258 25.3329C59.2258 25.6866 59.3481 26.0257 59.5659 26.2758C59.7837 26.5258 60.0791 26.6663 60.3871 26.6663C61.1051 26.6697 61.8046 26.9277 62.39 27.4051C62.9753 27.8824 63.418 28.5558 63.6573 29.333ZM68.8157 8.43813L58.9285 19.7876C57.986 19.0607 56.8772 18.6706 55.7419 18.6662C55.3739 18.6684 55.007 18.713 54.6468 18.7996C54.2074 18.0915 53.651 17.4894 53.0094 17.0275L64.6513 3.65676C65.2065 3.03913 65.9509 2.69688 66.7239 2.70387C67.4969 2.71087 68.2365 3.06655 68.7832 3.69415C69.3298 4.32175 69.6396 5.17095 69.6457 6.05848C69.6517 6.94601 69.3537 7.80071 68.8157 8.43813Z" fill="#E67F1E"/>
<path d="M37.1611 19.9996H34.8385V22.6663H37.1611V19.9996Z" fill="#E67F1E"/>
<path d="M31.3549 22.6663H29.0323V25.3329H31.3549V22.6663Z" fill="#E67F1E"/>
<path d="M23.2257 23.9996H20.9031V26.6663H23.2257V23.9996Z" fill="#E67F1E"/>
<path d="M51.0967 23.9996H48.7741V26.6663H51.0967V23.9996Z" fill="#E67F1E"/>
<path d="M42.9678 23.9996H40.6452V26.6663H42.9678V23.9996Z" fill="#E67F1E"/>
</svg>
