<svg width="35" height="30" viewBox="0 0 35 30" fill="none" xmlns="http://www.w3.org/2000/svg">
<g clip-path="url(#clip0_4855_35)">
<mask id="mask0_4855_35" style="mask-type:luminance" maskUnits="userSpaceOnUse" x="0" y="6" width="24" height="24">
<path d="M24 6H0V30H24V6Z" fill="white"/>
</mask>
<g mask="url(#mask0_4855_35)">
<path d="M18.1775 23.8443C16.6361 23.8428 15.3854 25.0911 15.3838 26.6325C15.3823 28.1739 16.6307 29.4247 18.1721 29.4262C19.7135 29.4277 20.9642 28.1793 20.9658 26.6379V26.6353C20.9643 25.0955 19.7172 23.8473 18.1775 23.8443Z" fill="#B1B1B1"/>
<path d="M23.1278 10.4797C23.061 10.4668 22.9932 10.4602 22.9251 10.4601H5.93181L5.66267 8.65955C5.49499 7.46378 4.47216 6.5741 3.26466 6.57373H1.07655C0.481978 6.57373 0 7.05571 0 7.65028C0 8.24485 0.481978 8.72683 1.07655 8.72683H3.26734C3.40423 8.72583 3.52008 8.82776 3.53648 8.96369L5.19436 20.3267C5.42166 21.7705 6.66363 22.8357 8.12528 22.8404H19.3241C20.7313 22.8423 21.9454 21.8532 22.2281 20.4747L23.9802 11.7412C24.0931 11.1574 23.7115 10.5927 23.1278 10.4797Z" fill="#B1B1B1"/>
<path d="M11.3406 26.5157C11.275 25.0196 10.0402 23.8418 8.54256 23.847C7.00243 23.9092 5.80435 25.2082 5.86658 26.7483C5.9263 28.2261 7.12843 29.4007 8.60717 29.4262H8.67445C10.2144 29.3587 11.408 28.0557 11.3406 26.5157Z" fill="#B1B1B1"/>
</g>
<path d="M26 17C30.4183 17 34 13.4183 34 9C34 4.58172 30.4183 1 26 1C21.5817 1 18 4.58172 18 9C18 13.4183 21.5817 17 26 17Z" fill="#B1B1B1" stroke="#FAFEFC" stroke-width="2"/>
<path d="M23.5499 7.62998C23.5832 6.96331 23.8167 6.44998 24.25 6.08998C24.69 5.72331 25.2666 5.53998 25.9799 5.53998C26.4667 5.53998 26.8832 5.62665 27.2299 5.79998C27.5767 5.96665 27.8367 6.19665 28.01 6.48998C28.19 6.77665 28.28 7.10331 28.28 7.46998C28.28 7.88998 28.17 8.24665 27.95 8.53998C27.7367 8.82665 27.48 9.01998 27.18 9.11998V9.15998C27.5667 9.27998 27.8667 9.49331 28.08 9.79998C28.3 10.1067 28.41 10.5 28.41 10.98C28.41 11.38 28.3166 11.7367 28.1299 12.05C27.9499 12.3633 27.68 12.61 27.32 12.79C26.9667 12.9633 26.54 13.05 26.04 13.05C25.2867 13.05 24.6733 12.86 24.2 12.48C23.7267 12.1 23.4767 11.54 23.45 10.8H24.8099C24.8232 11.1267 24.9332 11.39 25.1399 11.59C25.3532 11.7833 25.6433 11.88 26.01 11.88C26.35 11.88 26.61 11.7867 26.79 11.6C26.9767 11.4067 27.07 11.16 27.07 10.86C27.07 10.46 26.9433 10.1733 26.69 9.99998C26.4367 9.82665 26.0433 9.73998 25.51 9.73998H25.2199V8.58998H25.51C26.4567 8.58998 26.93 8.27331 26.93 7.63998C26.93 7.35331 26.8433 7.12998 26.67 6.96998C26.5033 6.80998 26.26 6.72998 25.94 6.72998C25.6267 6.72998 25.3832 6.81665 25.2099 6.98998C25.0432 7.15665 24.9467 7.36998 24.92 7.62998H23.5499Z" fill="white"/>
</g>
<defs>
<clipPath id="clip0_4855_35">
<rect width="35" height="30" fill="white"/>
</clipPath>
</defs>
</svg>
