<svg width="72" height="72" viewBox="0 0 72 72" fill="none" xmlns="http://www.w3.org/2000/svg">
<path d="M70.9453 57.7061H67.2133C67.0842 52.6949 63.902 48.6699 60.009 48.6699C56.1149 48.6699 52.9321 52.6949 52.803 57.7061H51.9329C51.8555 54.6968 50.6766 52.043 48.904 50.4031V19.3677C48.904 19.3598 48.904 19.352 48.904 19.3436C48.904 19.0519 48.8051 18.7849 48.6414 18.5817L42.1507 10.1721V3.5607C42.1507 1.59723 40.6912 0 38.8965 0H16.3532C14.5591 0 13.099 1.59723 13.099 3.5607V10.1721L6.59399 18.5985C6.43304 18.8072 6.34515 19.0712 6.34515 19.3436V24.7998C6.34515 25.4373 6.81702 25.9544 7.39984 25.9544C7.98212 25.9544 8.45453 25.4373 8.45453 24.7998V20.4982H46.7946V49.0614C46.1393 48.8064 45.4455 48.6699 44.727 48.6699C40.834 48.6699 37.6518 52.6949 37.5227 57.7061H33.7912C33.2084 57.7061 32.7365 58.2227 32.7365 58.8607C32.7365 59.4988 33.2084 60.0153 33.7912 60.0153H35.4545L37.9138 69.6901H30.9078C30.9183 69.5897 30.9238 69.4881 30.9238 69.3846V66.7789C30.9238 65.9929 30.3832 65.3459 29.6669 65.2737C28.548 65.1612 27.7042 64.1461 27.7042 62.9133C27.7042 61.6805 28.548 60.666 29.6675 60.553C30.3838 60.4808 30.9243 59.8337 30.9243 59.0483V55.3187C30.9243 54.5621 30.4124 53.9163 29.7339 53.8152C29.2489 53.7431 28.8825 53.283 28.8825 52.7448C28.8825 52.2066 29.2489 51.7465 29.7345 51.6744C30.4124 51.5739 30.9243 50.9275 30.9243 50.1709V48.3957C30.9243 46.9536 29.8526 45.7804 28.5353 45.7804H8.45453V29.4183C8.45453 28.7803 7.98212 28.2637 7.39984 28.2637C6.81702 28.2637 6.34515 28.7803 6.34515 29.4183V45.7804H5.00153C4.78564 45.7804 4.57361 45.7954 4.36542 45.8249C1.90668 46.1676 0 48.4727 0 51.2558V66.5245C0 69.3083 1.90668 71.6127 4.36542 71.9561C4.57361 71.985 4.78564 72 5.00153 72H28.5353C28.5518 72 28.5683 72 28.5848 71.9994H40.0419C40.0578 72 40.0732 72 40.0886 72H49.3671C50.3015 72 51.1293 71.3114 51.3803 70.3258L52.368 66.4386L53.3562 70.3258C53.6072 71.3114 54.4351 72 55.3694 72H64.648C65.5823 72 66.4107 71.3114 66.6612 70.3258L69.282 60.0153H70.9453C71.5281 60.0153 72 59.4988 72 58.8607C72 58.2233 71.5281 57.7061 70.9453 57.7061ZM45.5773 18.1896H9.67181L14.6442 11.7489H40.606L45.5773 18.1896ZM16.3532 2.30925H38.8971C39.5283 2.30925 40.0419 2.87093 40.0419 3.5607V9.43968H15.2084V3.5607C15.2084 2.87093 15.722 2.30925 16.3532 2.30925ZM60.009 50.9792C62.744 50.9792 64.9825 53.9686 65.1028 57.7061H54.9135C55.0338 53.9686 57.2734 50.9792 60.009 50.9792ZM44.727 50.9792C45.6147 50.9792 46.4502 51.2937 47.1775 51.8464C47.2154 51.8806 47.2544 51.9113 47.2961 51.9396C48.7474 53.1128 49.7433 55.2477 49.8224 57.7061H39.6332C39.7535 53.9686 41.9919 50.9792 44.727 50.9792ZM5.00153 69.6907C3.40686 69.6907 2.10937 68.2703 2.10937 66.5245V51.2558C2.10937 49.51 3.40686 48.0902 5.00153 48.0902H5.5025C4.92133 48.9844 4.57965 50.0771 4.57965 51.2558V53.974C4.57965 54.6114 5.05206 55.1286 5.63434 55.1286C6.21716 55.1286 6.68903 54.6114 6.68903 53.974V51.2558C6.68903 49.51 7.98651 48.0902 9.58118 48.0902H28.5353C28.6891 48.0902 28.8144 48.2273 28.8144 48.3957V49.5581C27.6158 50.0356 26.7731 51.3009 26.7731 52.7448C26.7731 54.1893 27.6152 55.4546 28.8144 55.932V58.3766C26.939 58.8902 25.5948 60.7286 25.5948 62.9133C25.5948 65.0987 26.939 66.9371 28.8144 67.4513V69.3853C28.8144 69.5476 28.6985 69.6805 28.5518 69.6901H28.5353C28.5244 69.6901 28.5134 69.6901 28.5029 69.6907H9.58118C7.98651 69.6907 6.68903 68.2703 6.68903 66.5245V58.5925C6.68903 57.9544 6.21716 57.4379 5.63434 57.4379C5.05206 57.4379 4.57965 57.9544 4.57965 58.5925V66.5245C4.57965 67.7038 4.92188 68.7965 5.50305 69.6907H5.00153ZM64.6331 69.6907H55.3843L54.1538 64.8491C53.9819 64.172 53.4128 63.6987 52.7706 63.6987H51.9653C51.3232 63.6987 50.7546 64.1714 50.5827 64.8485L49.3517 69.6907H44.0662C44.0557 69.6907 44.0447 69.6901 44.0338 69.6901H40.1034L37.6441 60.0153H38.5763C38.595 60.0159 38.6147 60.0159 38.634 60.0153H50.8233C50.8326 60.0159 50.842 60.0159 50.8513 60.0159C50.8607 60.0159 50.87 60.0159 50.8799 60.0153H53.8566C53.8753 60.0159 53.8951 60.0159 53.9143 60.0153H66.1036C66.113 60.0159 66.1223 60.0159 66.1317 60.0159C66.141 60.0159 66.1503 60.0159 66.1602 60.0153H67.0924L64.6331 69.6907Z" fill="#E67F1E"/>
<path d="M12.0778 56.0168C13.6587 56.0168 14.9452 54.609 14.9452 52.8777C14.9452 51.147 13.6587 49.7392 12.0778 49.7392C10.4969 49.7392 9.21036 51.147 9.21036 52.8777C9.21036 54.6084 10.4969 56.0168 12.0778 56.0168ZM12.0778 52.0484C12.4958 52.0484 12.8358 52.4207 12.8358 52.8777C12.8358 53.3353 12.4958 53.7076 12.0778 53.7076C11.6598 53.7076 11.3197 53.3353 11.3197 52.8777C11.3197 52.4207 11.6598 52.0484 12.0778 52.0484Z" fill="#E67F1E"/>
<path d="M19.2232 67.0604C21.4469 67.0604 23.2552 65.0801 23.2552 62.6463C23.2552 60.2126 21.4469 58.2323 19.2232 58.2323C17.0002 58.2323 15.1913 60.2126 15.1913 62.6463C15.1913 65.0801 17.0002 67.0604 19.2232 67.0604ZM19.2232 60.5415C20.2834 60.5415 21.1459 61.4857 21.1459 62.6463C21.1459 63.807 20.2834 64.7511 19.2232 64.7511C18.1631 64.7511 17.3006 63.807 17.3006 62.6463C17.3006 61.4857 18.1631 60.5415 19.2232 60.5415Z" fill="#E67F1E"/>
<path d="M17.4885 37.7034C20.6026 37.6288 23.7672 39.4227 27.1208 41.3236C30.4892 43.2324 33.9691 45.2048 37.538 45.2048C37.6363 45.2048 37.7347 45.203 37.833 45.2C38.8646 45.1682 39.6732 44.2553 39.6732 43.1217V35.0291C39.6732 34.4674 39.4711 33.9412 39.1041 33.5479C38.7339 33.1516 38.2455 32.9339 37.7231 32.9526C34.6129 33.0253 31.4444 31.2327 28.0909 29.3323C24.6296 27.3707 21.0486 25.3411 17.3787 25.4559C16.3465 25.4878 15.5384 26.4007 15.5384 27.5342V35.6263C15.5384 36.1885 15.7406 36.7147 16.1075 37.108C16.4783 37.5043 16.9661 37.7148 17.4885 37.7034ZM17.6478 27.7604H17.6791C20.7284 27.7604 23.8364 29.5212 27.1208 31.383C30.4892 33.2917 33.9691 35.2642 37.5375 35.2642H37.5638V42.895C37.5534 42.8956 37.543 42.8956 37.5325 42.8956C34.4833 42.8956 31.3758 41.1342 28.0909 39.2729C24.7225 37.3636 21.2425 35.3917 17.6742 35.3917H17.6478V27.7604Z" fill="#E67F1E"/>
</svg>
