<svg width="40" height="40" viewBox="0 0 40 40" fill="none" xmlns="http://www.w3.org/2000/svg">
<path d="M37.0735 28.0851C38.6871 28.0851 40 26.354 40 24.2255C40 23.1949 39.6955 22.2247 39.1426 21.4962L33.6264 14.2187C32.9168 13.2817 31.9723 12.766 30.9677 12.766C29.9632 12.766 29.0187 13.2817 28.309 14.2187L27.0877 15.8298C27.0426 14.663 26.649 13.5609 25.9839 12.7813L16.2316 1.34638C15.4916 0.478298 14.5387 0 13.5484 0C12.5581 0 11.6052 0.478298 10.8652 1.34638L1.1129 12.7813C0.405806 13.6102 0 14.8026 0 16.0502C0 18.463 1.48774 20.4255 3.31677 20.4255H9.67742V22.4009C9.67742 23.8383 9.53226 25.2698 9.24581 26.6562L7.88516 33.2357C7.79032 33.6953 7.74194 34.1694 7.74194 34.646C7.74194 36.0579 8.16129 37.3404 8.84129 38.2979H2.58065V40H11.8013H15.2961H37.4194V38.2979H35.8987C36.0419 37.9055 36.129 37.4715 36.129 37.0077C36.129 36.6264 36.0748 36.2528 35.9671 35.8962C35.2181 33.4281 34.8387 30.8289 34.8387 28.1702V28.0851H37.0735ZM20.4594 8.58043L23.3387 11.9566C22.9768 12.4613 22.4729 12.766 21.9355 12.766C20.8684 12.766 20 11.6204 20 10.2128C20 9.60936 20.169 9.0366 20.4594 8.58043ZM8.36194 6.5583C8.36839 6.64255 8.3871 6.7234 8.3871 6.80851C8.3871 8.21617 7.51871 9.3617 6.45161 9.3617C6.30968 9.3617 6.17032 9.32936 6.0329 9.28936L8.36194 6.5583ZM3.07871 18.7055C2.0729 18.5498 1.29032 17.4187 1.29032 16.0502C1.29032 15.2877 1.53806 14.5591 1.97032 14.0519L4.94581 10.5634C5.40839 10.8868 5.92452 11.0638 6.45161 11.0638C8.23032 11.0638 9.67742 9.15489 9.67742 6.80851C9.67742 6.2817 9.59935 5.7617 9.45677 5.27489L11.7226 2.61787C12.7297 1.43574 14.3677 1.43574 15.3742 2.61787L19.4903 7.44426C18.9923 8.21106 18.7097 9.18979 18.7097 10.2128C18.7097 12.5591 20.1568 14.4681 21.9355 14.4681C22.8439 14.4681 23.7 13.9515 24.3045 13.0885L25.1264 14.0528C25.5587 14.5591 25.8064 15.2885 25.8064 16.0502C25.8064 17.5123 24.9123 18.7038 23.8071 18.7234C21.7516 18.7072 19.9581 17.9498 18.0594 17.1464C17.2219 16.7923 16.371 16.4357 15.4806 16.1311C15.4645 13.8034 14.0265 11.9149 12.2581 11.9149C10.66 11.9149 9.33871 13.4604 9.08581 15.4757C5.69548 16.0332 3.71677 17.9719 3.07871 18.7055ZM17.5606 18.7234H17.4194V18.6647C17.4665 18.6843 17.5135 18.7038 17.5606 18.7234ZM14.1606 15.7387C13.1697 15.4851 12.12 15.3191 10.9677 15.3191C10.7858 15.3191 10.6129 15.3294 10.4374 15.337C10.7006 14.3396 11.4129 13.617 12.2581 13.617C13.2135 13.617 14.0039 14.5362 14.1606 15.7387ZM5.38258 18.7234C6.36065 18.0443 7.79032 17.3404 9.67742 17.1072V18.7234H5.38258ZM15.2955 38.2979H11.8013C10.2742 38.2979 9.03226 36.6596 9.03226 34.646C9.03226 34.3209 9.06516 33.9974 9.12968 33.6843L10.4903 27.1038C10.8071 25.5728 10.9677 23.9906 10.9677 22.4017V17.0213C12.8948 17.0213 14.5587 17.5234 16.129 18.1362V22.4009C16.129 23.9898 16.2897 25.5728 16.6065 27.103L17.9671 33.6843C18.0316 33.9974 18.0645 34.3209 18.0645 34.646C18.0645 36.6596 16.8226 38.2979 15.2955 38.2979ZM18.2555 38.2979C18.9355 37.3404 19.3548 36.0579 19.3548 34.646C19.3548 34.1694 19.3065 33.6953 19.2116 33.2374L17.851 26.657C17.5645 25.2706 17.4194 23.8391 17.4194 22.4017V20.4255H23.6039L22.7923 21.4962C22.24 22.2247 21.9355 23.1949 21.9355 24.2255C21.9355 26.354 23.2484 28.0851 24.8619 28.0851H27.0968V28.1702C27.0968 30.8289 26.7174 33.4289 25.9677 35.8979C25.8606 36.2536 25.8064 36.6264 25.8064 37.0077C25.8064 37.4715 25.8935 37.9055 26.0368 38.2979H18.2555ZM33.5484 28.0851V28.1702C33.5484 31.0468 33.9594 33.8587 34.7684 36.5277C34.8148 36.6817 34.8387 36.8434 34.8387 37.0077C34.8387 37.7192 34.4 38.2979 33.8606 38.2979H28.0748C27.5355 38.2979 27.0968 37.7192 27.0968 37.0077C27.0968 36.8434 27.1206 36.6809 27.1665 36.5285C27.9761 33.8579 28.3871 31.046 28.3871 28.1702V28.0851H30.9677V26.383H24.8619C23.96 26.383 23.2258 25.4145 23.2258 24.2255C23.2258 23.6494 23.3961 23.1081 23.7052 22.6996L29.2213 15.4221C30.1542 14.1923 31.7813 14.1923 32.7142 15.4221L38.2303 22.6996C38.5394 23.1072 38.7097 23.6494 38.7097 24.2255C38.7097 25.4145 37.9755 26.383 37.0735 26.383H32.2581V28.0851H33.5484Z" fill="#7A1E76"/>
<path d="M32.3459 30.5557L31.062 30.7217C31.1956 32.5123 31.473 34.2894 31.8852 36.0026L33.1149 35.4877C32.7291 33.8877 32.4704 32.2289 32.3459 30.5557Z" fill="#7A1E76"/>
<path d="M40 38.2979H38.7097V40H40V38.2979Z" fill="#7A1E76"/>
<path d="M1.29032 38.2979H0V40H1.29032V38.2979Z" fill="#7A1E76"/>
<path d="M3.87089 15.3192H2.58057V17.0213H3.87089V15.3192Z" fill="#7A1E76"/>
<path d="M13.5484 5.10638H12.2581V6.80851H13.5484V5.10638Z" fill="#7A1E76"/>
<path d="M16.7742 10.2128H15.4839V11.9149H16.7742V10.2128Z" fill="#7A1E76"/>
<path d="M24.5162 15.3192H23.2258V17.0213H24.5162V15.3192Z" fill="#7A1E76"/>
<path d="M25.8064 22.9787H24.5161V24.6809H25.8064V22.9787Z" fill="#7A1E76"/>
<path d="M29.6775 20.4255H28.3872V22.1277H29.6775V20.4255Z" fill="#7A1E76"/>
<path d="M32.2581 22.9787H30.9678V24.6809H32.2581V22.9787Z" fill="#7A1E76"/>
<path d="M36.1289 21.2766H34.8386V22.9787H36.1289V21.2766Z" fill="#7A1E76"/>
<path d="M31.6128 16.1702H30.3225V17.8723H31.6128V16.1702Z" fill="#7A1E76"/>
</svg>
