<svg width="24" height="24" viewBox="0 0 24 24" fill="none" xmlns="http://www.w3.org/2000/svg">
<path d="M20.835 4.55251C19.7694 3.49088 18.3266 2.8948 16.8225 2.8948C15.3183 2.8948 13.8755 3.49088 12.81 4.55251L12 5.36251L11.19 4.55251C10.1244 3.49088 8.68158 2.8948 7.17745 2.8948C5.67332 2.8948 4.23049 3.49088 3.16495 4.55251C2.10287 5.61932 1.50659 7.0634 1.50659 8.56876C1.50659 10.0741 2.10287 11.5182 3.16495 12.585L11.4675 20.8875C11.5372 20.9578 11.6201 21.0136 11.7115 21.0517C11.8029 21.0898 11.9009 21.1094 12 21.1094C12.099 21.1094 12.197 21.0898 12.2884 21.0517C12.3798 21.0136 12.4627 20.9578 12.5325 20.8875L20.835 12.585C21.897 11.5182 22.4933 10.0741 22.4933 8.56876C22.4933 7.0634 21.897 5.61932 20.835 4.55251Z" fill="#B1B1B1"/>
</svg>
