<svg width="40" height="40" viewBox="0 0 40 40" fill="none" xmlns="http://www.w3.org/2000/svg">
<path d="M39.7563 16.9319C39.7238 16.74 39.6306 16.5661 39.4924 16.4401C38.1986 15.2599 37.9802 13.9586 37.8046 12.9131L37.7817 12.7769C37.721 12.42 37.4553 12.145 37.1221 12.0945C37.0071 12.077 36.8854 12.0681 36.7603 12.0681C36.0168 12.0681 34.9693 12.4059 34.3052 13.1605C34.1919 13.2893 34.1192 13.4534 34.0974 13.6294C34.0416 14.0821 34.0128 14.4964 33.9875 14.862C33.8918 16.2394 33.8072 16.3855 33.4181 16.5183C33.1742 16.6015 32.9835 16.8081 32.9077 17.0715C32.5412 18.3437 32.0549 19.5612 31.4663 20.7099C31.1756 20.1114 30.8543 19.5731 30.5553 19.0722C29.8241 17.8471 29.2464 16.8793 29.4438 15.68C30.0833 11.7926 29.7587 8.86434 28.4787 6.97628C27.7659 5.92484 26.7504 5.20801 25.5163 4.87315C25.762 2.80649 27.0938 1.86953 27.8311 1.65648C28.2479 1.5361 28.4953 1.07411 28.3835 0.62467C28.2718 0.175316 27.8434 -0.091651 27.4267 0.0289854C25.9045 0.46882 24.2785 2.08351 23.9679 4.66254C22.721 4.65875 21.5886 5.06935 20.6567 5.87219C18.9539 7.33928 17.9251 10.0656 17.5988 13.9751C17.5006 15.1516 16.7948 15.838 15.8178 16.7878C15.0204 17.5632 14.1321 18.4289 13.4206 19.7376C12.5342 19.3484 11.5834 19.0959 10.5906 19.0045C10.872 17.0204 12.1662 16.1145 12.8891 15.9056C13.3059 15.7853 13.5533 15.3233 13.4416 14.8739C13.3299 14.4245 12.9014 14.1576 12.4848 14.2782C12.0922 14.3916 11.6929 14.5841 11.3108 14.8502C11.1331 13.9042 10.7031 13.0169 10.052 12.3149C9.17962 11.3743 8.01969 10.8563 6.78594 10.8563C6.38211 10.8563 5.97993 10.9131 5.59047 11.0252C5.32039 11.1029 5.10938 11.3305 5.03727 11.6217C4.61282 13.3357 5.0711 15.1791 6.23329 16.4326C7.04196 17.3046 8.09813 17.8126 9.23094 17.8822C9.13219 18.2308 9.05876 18.6019 9.0161 18.9953C3.98102 19.4032 0 23.951 0 29.4827C0 35.282 4.37539 40 9.75337 40C11.7521 40 13.656 39.3594 15.2859 38.1443C15.5427 38.2658 15.8002 38.3827 16.059 38.4927C18.4102 39.4928 20.7865 39.9999 23.1216 39.9999C26.8775 39.9999 30.3635 38.6766 33.2025 36.173C36.1699 33.5561 38.357 29.6841 39.527 24.9754C39.9088 23.4396 40.2456 19.821 39.7563 16.9319ZM16.8643 18.0392C17.9152 17.0173 19.0018 15.9607 19.155 14.1263C19.4417 10.6921 20.275 8.35787 21.6321 7.18866C22.4377 6.49458 23.4335 6.22693 24.5921 6.3939C25.7363 6.5586 26.6196 7.08908 27.2174 7.97077C28.2361 9.4735 28.4676 11.9683 27.9053 15.3857C27.6008 17.2358 28.4349 18.6329 29.2414 19.9842C29.6935 20.7415 30.1588 21.5223 30.4752 22.4311C27.8421 26.5313 23.8467 29.5213 19.4504 30.6162C19.4879 30.2403 19.507 29.8617 19.507 29.4827C19.507 25.6826 17.628 22.3468 14.8194 20.4984C15.4039 19.4611 16.1441 18.7396 16.8643 18.0392ZM7.33797 15.2411C6.68165 14.5333 6.36461 13.5409 6.46039 12.5596C6.56836 12.5473 6.67688 12.541 6.78579 12.541C7.60211 12.541 8.36969 12.8838 8.94688 13.5061C9.60329 14.214 9.9204 15.2065 9.82454 16.1877C9.71665 16.2 9.60805 16.2062 9.49938 16.2062H9.49922C8.68266 16.2063 7.91516 15.8635 7.33797 15.2411ZM9.75337 38.3151C5.23688 38.3151 1.5625 34.353 1.5625 29.4827C1.5625 24.6124 5.23688 20.6503 9.75337 20.6503C14.2699 20.6503 17.9444 24.6124 17.9444 29.4827C17.9444 29.9683 17.9076 30.453 17.8349 30.9299C17.3323 30.9999 16.8263 31.0443 16.3179 31.063C16.4249 30.5463 16.4809 30.0183 16.4809 29.4827C16.4809 28.534 16.3116 27.6078 15.9777 26.7301C15.8141 26.2998 15.3579 26.0937 14.9584 26.2704C14.5593 26.4469 14.3684 26.939 14.5321 27.3695C14.7884 28.0433 14.9184 28.7543 14.9184 29.4827C14.9184 30.0124 14.8488 30.5328 14.7127 31.0367C13.5945 30.9591 12.4748 30.7599 11.3715 30.4411C11.1468 30.3761 10.9068 30.4226 10.717 30.5679C10.0227 31.0994 9.32282 31.7681 8.90782 33.0501C8.80087 33.3805 8.89446 33.7478 9.14297 33.9729C10.5781 35.2729 12.0776 36.3748 13.6221 37.2694C12.4399 37.9561 11.1234 38.3151 9.75337 38.3151ZM38.0178 24.5394C35.8742 33.1653 30.3056 38.3151 23.1217 38.3151C18.9277 38.3151 14.5008 36.461 10.5988 33.082C10.8056 32.6817 11.0613 32.4061 11.3361 32.1709C12.8031 32.5612 14.295 32.7589 15.7765 32.7589C19.9694 32.7589 24.0123 31.2181 27.4681 28.3032C29.225 26.8213 30.7478 25.0356 31.9675 23.0555C31.9821 23.0343 31.9957 23.0124 32.0083 22.9898C32.9712 21.4146 33.7424 19.7173 34.2864 17.9524C35.3813 17.3583 35.4648 16.155 35.5458 14.9877C35.5643 14.7209 35.5833 14.4473 35.6123 14.1586C35.8201 13.9964 36.0955 13.8679 36.3716 13.8018C36.5798 14.873 36.9846 16.2479 38.2639 17.5176C38.6259 19.9995 38.3631 23.1497 38.0178 24.5394Z" fill="#7A1E76"/>
<path d="M25.1956 8.12755C24.798 7.94794 24.3399 8.1497 24.1731 8.57875C24.0062 9.0078 24.1935 9.50147 24.5914 9.68141C25.1598 9.93836 25.4736 11.7876 24.9738 14.8248C24.8984 15.2829 25.1817 15.7202 25.6066 15.8015C25.6527 15.8104 25.6987 15.8147 25.744 15.8147C26.1156 15.8147 26.4452 15.5276 26.5124 15.1193C26.9594 12.4033 27.0938 8.98565 25.1956 8.12755Z" fill="#7A1E76"/>
<path d="M30.3596 32.2398C30.1008 31.8676 29.6102 31.7929 29.2651 32.0721C29.2648 32.0723 29.2614 32.075 29.2612 32.0752C28.9132 32.3499 28.8391 32.8755 29.0935 33.2509C29.2462 33.4762 29.4839 33.5954 29.7248 33.5954C29.8852 33.5954 30.0472 33.5425 30.1864 33.4328L30.2043 33.4186C30.5494 33.1394 30.6185 32.6121 30.3596 32.2398Z" fill="#7A1E76"/>
<path d="M28.5666 33.6022C28.37 33.188 27.8994 33.024 27.5152 33.2359C24.8412 34.7108 22.5852 34.6524 22.5519 34.6508C22.1225 34.6347 21.7597 34.9956 21.7428 35.4598C21.7259 35.9247 22.0617 36.3163 22.4929 36.3345C22.5048 36.335 22.5469 36.3365 22.6166 36.3365C23.175 36.3365 25.5021 36.2387 28.2268 34.7357C28.6109 34.524 28.763 34.0164 28.5666 33.6022Z" fill="#7A1E76"/>
<path d="M14.5344 24.3793L14.5087 24.3515C14.2029 24.0235 13.7082 24.0248 13.4039 24.3547C13.0996 24.6846 13.1009 25.218 13.4068 25.5461L13.4236 25.5642C13.5764 25.7309 13.7777 25.8142 13.979 25.8142C14.1775 25.8142 14.3762 25.7331 14.5285 25.5706C14.8352 25.2435 14.8379 24.71 14.5344 24.3793Z" fill="#7A1E76"/>
</svg>
