<svg width="24" height="24" viewBox="0 0 24 24" fill="none" xmlns="http://www.w3.org/2000/svg">
<path d="M20.835 4.55248C19.7694 3.49086 18.3266 2.89478 16.8225 2.89478C15.3183 2.89478 13.8755 3.49086 12.81 4.55248L12 5.36248L11.19 4.55248C10.1244 3.49086 8.68158 2.89478 7.17745 2.89478C5.67332 2.89478 4.23049 3.49086 3.16495 4.55248C2.10287 5.6193 1.50659 7.06337 1.50659 8.56874C1.50659 10.0741 2.10287 11.5182 3.16495 12.585L11.4675 20.8875C11.5372 20.9578 11.6201 21.0136 11.7115 21.0517C11.8029 21.0897 11.9009 21.1093 12 21.1093C12.099 21.1093 12.197 21.0897 12.2884 21.0517C12.3798 21.0136 12.4627 20.9578 12.5325 20.8875L20.835 12.585C21.897 11.5182 22.4933 10.0741 22.4933 8.56874C22.4933 7.06337 21.897 5.6193 20.835 4.55248Z" fill="#E67F1E"/>
</svg>
