<svg width="72" height="72" viewBox="0 0 72 72" fill="none" xmlns="http://www.w3.org/2000/svg">
<path d="M70.8 42.1165V38.8848C70.7983 37.2287 69.4562 35.8865 67.8 35.8848C67.4688 35.8844 67.2004 35.6161 67.1999 35.2847V34.0848C67.1982 32.4286 65.8561 31.0864 64.1999 31.0847H62.6038C62.3264 31.085 62.0865 30.8921 62.0272 30.6212L61.4553 28.3682C61.3077 27.7452 60.9141 27.2084 60.3643 26.8805C59.8185 26.5532 59.1655 26.4552 58.5478 26.608C57.9172 26.7677 57.2486 26.661 56.699 26.3129C56.1495 25.9647 55.7675 25.4059 55.6425 24.7675L55.5885 24.5085L70.5257 13.5828C71.2969 13.0211 71.8123 12.1752 71.9578 11.2325C72.1034 10.2897 71.8673 9.32764 71.3014 8.55952C70.7396 7.78789 69.8934 7.27221 68.9502 7.12666C68.007 6.98096 67.0445 7.2175 66.2763 7.78381L50.5066 19.312C49.9987 19.1702 49.4747 19.0937 48.9473 19.0845H47.0512C46.776 19.0815 46.5021 19.0472 46.2346 18.9822L57.0908 5.89883C57.9152 4.91189 58.1496 3.55975 57.7055 2.35301C57.2614 1.14614 56.2064 0.268615 54.9388 0.0516251C53.6713 -0.165365 52.3844 0.311226 51.5641 1.30153L37.4115 18.3571C36.436 18.6094 35.3991 18.4355 34.5594 17.8786C33.3849 17.1009 32.0077 16.6856 30.5991 16.6843H30.0828C28.8813 16.6807 27.7584 17.2816 27.095 18.2834C26.8185 18.6928 26.3905 18.9752 25.9053 19.0681C25.4201 19.1611 24.9179 19.0569 24.5098 18.7786C23.4024 18.1024 21.9791 18.2538 21.0387 19.1477L19.9582 20.2282C19.5977 20.594 19.2959 21.0135 19.0634 21.4716C18.6865 22.2112 17.9288 22.6791 17.0987 22.6846C14.9458 22.6874 13.2013 24.4319 13.1986 26.5846C13.1992 26.68 13.1444 26.7669 13.058 26.8072L10.6233 28.0242C9.25795 28.717 8.39575 30.1161 8.39083 31.6471L6.94053 32.618C5.60174 33.5079 4.79748 35.0091 4.79833 36.6166V37.0848C3.47332 37.0861 2.39962 38.1599 2.39822 39.4849V41.885H2.11344C1.31847 41.8851 0.590858 42.3314 0.230145 43.0397C-0.130568 43.7481 -0.063347 44.599 0.404243 45.242L0.79041 46.1866C4.25677 54.6091 10.2753 61.7336 17.9999 66.5589V68.4211C18.002 70.3335 19.5515 71.8835 21.464 71.8859H50.536C52.4485 71.8836 53.9984 70.3338 54.0008 68.4211V66.5583C61.7237 61.7338 67.7412 54.6109 71.2079 46.1906L71.5957 45.242C72.0353 44.6375 72.1231 43.8461 71.8266 43.1601C71.6213 42.7 71.2568 42.3294 70.8 42.1165ZM67.6992 9.71619C67.9501 9.52831 68.266 9.44942 68.5757 9.49765C68.8894 9.54378 69.1714 9.71394 69.3586 9.96989C69.5126 10.1765 69.5971 10.4265 69.6 10.6841C69.5974 11.0652 69.4144 11.4226 69.1067 11.6474L38.7315 33.8652L37.5659 34.2535C37.3277 34.3333 37.0699 34.3333 36.8317 34.2535L35.0739 33.6675C35.0384 33.6558 35.0019 33.6554 34.9663 33.6449L67.6992 9.71619ZM47.0514 21.4844H47.5348L38.9523 27.7587L44.5979 20.955C45.3692 21.3027 46.2053 21.4833 47.0514 21.4844ZM53.4142 2.83073C53.6149 2.58604 53.9053 2.43191 54.2205 2.40294C54.7018 2.36131 55.1613 2.61276 55.3857 3.04055C55.6102 3.46834 55.556 3.98923 55.2482 4.36175L31.0253 33.5535L29.521 34.6532C29.5082 34.6415 29.4915 34.6363 29.4791 34.6239C29.0202 34.1639 28.4439 33.8385 27.8129 33.683L53.4142 2.83073ZM4.79833 39.4849C6.12333 39.4836 7.19703 38.4098 7.19844 37.0848V36.6166C7.19858 35.811 7.60218 35.059 8.27369 34.6138L9.73158 33.6376C10.3975 33.1891 10.7973 32.4394 10.7985 31.6366C10.8061 31.016 11.1557 30.4502 11.7073 30.1659L14.1209 28.9588C15.0241 28.5121 15.5966 27.5924 15.5986 26.5845C15.601 25.757 16.2712 25.0869 17.0987 25.0844C18.8287 25.0752 20.4098 24.1039 21.1997 22.5647C21.3184 22.3297 21.4718 22.114 21.6549 21.9249L22.7354 20.8444C22.8688 20.7366 23.0532 20.7169 23.2065 20.7941C24.1431 21.4199 25.2902 21.6471 26.3945 21.4256C27.4989 21.2042 28.4697 20.5521 29.0924 19.6135C29.3124 19.2818 29.6845 19.0829 30.0827 19.0845H30.5989C31.5349 19.0854 32.4502 19.3611 33.2311 19.8773C33.892 20.3157 34.634 20.6176 35.4132 20.7654L24.2381 34.2326C24.0384 34.2496 23.8379 34.2136 23.6565 34.1284C22.2859 33.4422 20.6302 33.7113 19.5472 34.7958L18.35 35.9929C17.8848 36.4621 17.8865 37.2191 18.3537 37.6863C18.8208 38.1534 19.5777 38.1551 20.047 37.6899L21.2442 36.4927C21.5984 36.1386 22.1398 36.0517 22.5872 36.2772C23.4311 36.7026 24.4103 36.7722 25.3059 36.4705L26.5944 36.041C27.0113 35.8999 27.4722 36.0086 27.7821 36.3212C28.9838 37.5178 30.8615 37.704 32.2746 36.7665L33.3048 36.0804C33.6027 35.8821 33.9753 35.8322 34.3149 35.9451L36.0728 36.5311C36.8037 36.7737 37.5935 36.7737 38.3245 36.5311L40.0835 35.9451C40.4232 35.8339 40.7952 35.8838 41.0936 36.0804L43.7334 37.8401C44.2846 38.2024 45.0249 38.0516 45.3908 37.5029C45.7567 36.954 45.611 36.2128 45.0647 35.8432L42.4638 34.1089L53.5169 26.0242C54.2282 27.8649 55.9976 29.0794 57.9709 29.0812C58.3592 29.0795 58.746 29.0337 59.124 28.9446L59.696 31.196C60.0156 32.5418 61.2201 33.4902 62.6035 33.4853H64.1996C64.5308 33.4857 64.7993 33.754 64.7997 34.0853V35.2853C64.8014 36.9415 66.1435 38.2837 67.7997 38.2853C68.1309 38.2858 68.3994 38.5542 68.3998 38.8854V41.8854H4.79833V39.4849ZM68.9859 45.2818C65.6622 53.3367 59.8698 60.1302 52.4417 64.6856H49.2006C48.5378 64.6856 48.0006 65.2228 48.0006 65.8856C48.0006 66.5483 48.5379 67.0855 49.2006 67.0855H51.6007V68.4209C51.6001 69.0088 51.1237 69.4851 50.536 69.4856H21.464C20.8764 69.4848 20.4004 69.0085 20.3998 68.4209V67.0855H34.8002C35.463 67.0855 36.0002 66.5483 36.0002 65.8856C36.0002 65.2228 35.463 64.6856 34.8002 64.6856H19.557C12.1254 60.1327 6.33188 53.3368 3.01234 45.2782L2.60565 44.285H69.3937L68.9859 45.2818Z" fill="#E67F1E"/>
<path d="M52.8051 61.0831C53.0161 61.0831 53.2233 61.0274 53.4057 60.9213C58.309 57.9143 62.2342 53.549 64.7052 48.3551C64.8731 47.9606 64.8178 47.5066 64.5602 47.1641C64.3026 46.8215 63.8818 46.6423 63.4563 46.6941C63.0307 46.7458 62.6652 47.0208 62.4973 47.4151C60.2364 52.1513 56.6486 56.1289 52.1698 58.8647L52.1652 58.8676C51.7118 59.152 51.5017 59.7024 51.6502 60.2165C51.7987 60.7307 52.2698 61.0842 52.8051 61.0831Z" fill="#E67F1E"/>
</svg>
