<svg width="75" height="63" viewBox="0 0 75 63" fill="none" xmlns="http://www.w3.org/2000/svg">
<rect width="75" height="63" fill="white"/>
<g clip-path="url(#clip0_172_2140)">
<path d="M44.1776 37.8443C42.6362 37.8428 41.3855 39.0911 41.3839 40.6325C41.3824 42.1739 42.6308 43.4247 44.1722 43.4262C45.7136 43.4277 46.9643 42.1793 46.9658 40.6379V40.6352C46.9644 39.0955 45.7173 37.8473 44.1776 37.8443Z" fill="#B1B1B1"/>
<path d="M49.1278 24.4797C49.061 24.4667 48.9931 24.4602 48.9251 24.4601H31.9318L31.6627 22.6595C31.495 21.4638 30.4721 20.5741 29.2647 20.5737H27.0765C26.482 20.5737 26 21.0557 26 21.6503C26 22.2448 26.482 22.7268 27.0765 22.7268H29.2673C29.4042 22.7258 29.5201 22.8277 29.5365 22.9637L31.1944 34.3266C31.4216 35.7705 32.6636 36.8357 34.1253 36.8404H45.3241C46.7313 36.8422 47.9453 35.8532 48.2281 34.4747L49.9802 25.7412C50.0931 25.1574 49.7115 24.5926 49.1278 24.4797Z" fill="#B1B1B1"/>
<path d="M37.3404 40.5157C37.2749 39.0195 36.0401 37.8417 34.5425 37.8469C33.0023 37.9092 31.8042 39.2082 31.8665 40.7483C31.9262 42.2261 33.1283 43.4007 34.6071 43.4262H34.6743C36.2143 43.3587 37.4079 42.0556 37.3404 40.5157Z" fill="#B1B1B1"/>
</g>
<circle cx="49.9999" cy="25" r="5.992" fill="#FEC54B" stroke="#FAFEFC" stroke-width="1.984"/>
<defs>
<clipPath id="clip0_172_2140">
<rect width="23.808" height="23.808" fill="white" transform="translate(26 20) scale(1.00806)"/>
</clipPath>
</defs>
</svg>
