<svg width="72" height="72" viewBox="0 0 72 72" fill="none" xmlns="http://www.w3.org/2000/svg">
<path d="M66.7324 50.5532C69.6368 50.5532 72 47.4373 72 43.606C72 41.7508 71.4519 40.0044 70.4566 38.6931L60.5276 25.5937C59.2502 23.9071 57.5501 22.9787 55.7419 22.9787C53.9338 22.9787 52.2337 23.9071 50.9563 25.5937L48.7579 28.4936C48.6766 26.3934 47.9683 24.4095 46.771 23.0063L29.2169 2.42349C27.8849 0.860936 26.1697 0 24.3871 0C22.6045 0 20.8893 0.860936 19.5573 2.42349L2.00323 23.0063C0.730452 24.4984 0 26.6446 0 28.8904C0 33.2334 2.67794 36.766 5.97019 36.766H17.4194V40.3215C17.4194 42.9089 17.1581 45.4856 16.6425 47.9811L14.1933 59.8243C14.0226 60.6516 13.9355 61.5049 13.9355 62.3627C13.9355 64.9042 14.6903 67.2128 15.9143 68.9362H4.64516V72H21.2423H27.533H67.3548V68.9362H64.6177C64.8755 68.23 65.0323 67.4487 65.0323 66.6138C65.0323 65.9275 64.9347 65.255 64.7408 64.6131C63.3925 60.1706 62.7097 55.4921 62.7097 50.7064V50.5532H66.7324ZM36.8268 15.4448L42.0097 21.5219C41.3582 22.4303 40.4512 22.9787 39.4839 22.9787C37.5631 22.9787 36 20.9168 36 18.383C36 17.2969 36.3043 16.2659 36.8268 15.4448ZM15.0515 11.8049C15.0631 11.9566 15.0968 12.1021 15.0968 12.2553C15.0968 14.7891 13.5337 16.8511 11.6129 16.8511C11.3574 16.8511 11.1066 16.7929 10.8592 16.7209L15.0515 11.8049ZM5.54168 33.67C3.73123 33.3896 2.32258 31.3537 2.32258 28.8904C2.32258 27.5178 2.76852 26.2065 3.54658 25.2934L8.90245 19.0141C9.7351 19.5963 10.6641 19.9149 11.6129 19.9149C14.8146 19.9149 17.4194 16.4788 17.4194 12.2553C17.4194 11.3071 17.2788 10.3711 17.0222 9.49481L21.1006 4.71217C22.9134 2.58434 25.8619 2.58434 27.6735 4.71217L35.0826 13.3997C34.1861 14.7799 33.6774 16.5416 33.6774 18.383C33.6774 22.6065 36.2822 26.0426 39.4839 26.0426C41.119 26.0426 42.66 25.1127 43.7481 23.5593L45.2276 25.295C46.0057 26.2065 46.4516 27.5193 46.4516 28.8904C46.4516 31.5222 44.8421 33.6669 42.8528 33.7021C39.1529 33.673 35.9245 32.3096 32.5068 30.8635C30.9995 30.2262 29.4677 29.5843 27.8652 29.0359C27.8361 24.8461 25.2476 21.4468 22.0645 21.4468C19.188 21.4468 16.8097 24.2288 16.3545 27.8563C10.2519 28.8597 6.69019 32.3494 5.54168 33.67ZM31.6092 33.7021H31.3548V33.5964C31.4396 33.6317 31.5244 33.6669 31.6092 33.7021ZM25.4892 28.3297C23.7054 27.8732 21.816 27.5745 19.7419 27.5745C19.4145 27.5745 19.1032 27.5929 18.7874 27.6066C19.2612 25.8112 20.5432 24.5106 22.0645 24.5106C23.7844 24.5106 25.207 26.1651 25.4892 28.3297ZM9.68865 33.7021C11.4492 32.4797 14.0226 31.2128 17.4194 30.793V33.7021H9.68865ZM27.5319 68.9362H21.2423C18.4935 68.9362 16.2581 65.9872 16.2581 62.3627C16.2581 61.7775 16.3173 61.1954 16.4334 60.6317L18.8826 48.7869C19.4528 46.031 19.7419 43.1831 19.7419 40.3231V30.6383C23.2107 30.6383 26.2057 31.5421 29.0323 32.6451V40.3215C29.0323 43.1816 29.3214 46.031 29.8916 48.7854L32.3408 60.6317C32.4569 61.1954 32.5161 61.7775 32.5161 62.3627C32.5161 65.9872 30.2806 68.9362 27.5319 68.9362ZM32.8599 68.9362C34.0839 67.2128 34.8387 64.9042 34.8387 62.3627C34.8387 61.5049 34.7516 60.6516 34.5809 59.8274L32.1317 47.9826C31.6161 45.4871 31.3548 42.9105 31.3548 40.3231V36.766H42.487L41.0261 38.6931C40.032 40.0044 39.4839 41.7508 39.4839 43.606C39.4839 47.4373 41.8471 50.5532 44.7515 50.5532H48.7742V50.7064C48.7742 55.4921 48.0914 60.1721 46.7419 64.6162C46.5492 65.2565 46.4516 65.9275 46.4516 66.6138C46.4516 67.4487 46.6084 68.23 46.8662 68.9362H32.8599ZM60.3871 50.5532V50.7064C60.3871 55.8843 61.1268 60.9457 62.5831 65.7498C62.6667 66.0271 62.7097 66.3181 62.7097 66.6138C62.7097 67.8945 61.92 68.9362 60.9492 68.9362H50.5347C49.5639 68.9362 48.7742 67.8945 48.7742 66.6138C48.7742 66.3181 48.8172 66.0255 48.8996 65.7513C50.357 60.9442 51.0968 55.8827 51.0968 50.7064V50.5532H55.7419V47.4894H44.7515C43.128 47.4894 41.8065 45.746 41.8065 43.606C41.8065 42.5689 42.113 41.5946 42.6693 40.8592L52.5983 27.7598C54.2775 25.5462 57.2063 25.5462 58.8856 27.7598L68.8146 40.8592C69.3708 41.593 69.6774 42.5689 69.6774 43.606C69.6774 45.746 68.3559 47.4894 66.7324 47.4894H58.0645V50.5532H60.3871Z" fill="#E67F1E"/>
<path d="M58.2224 55.0003L55.9114 55.2991C56.1518 58.5222 56.6512 61.7209 57.3932 64.8046L59.6067 63.8778C58.9122 60.9978 58.4465 58.0121 58.2224 55.0003Z" fill="#E67F1E"/>
<path d="M71.9998 68.9362H69.6772V72H71.9998V68.9362Z" fill="#E67F1E"/>
<path d="M2.32258 68.9362H0V72H2.32258V68.9362Z" fill="#E67F1E"/>
<path d="M6.96745 27.5745H4.64487V30.6383H6.96745V27.5745Z" fill="#E67F1E"/>
<path d="M24.3871 9.1915H22.0645V12.2553H24.3871V9.1915Z" fill="#E67F1E"/>
<path d="M30.1935 18.383H27.8709V21.4468H30.1935V18.383Z" fill="#E67F1E"/>
<path d="M44.1291 27.5745H41.8065V30.6383H44.1291V27.5745Z" fill="#E67F1E"/>
<path d="M46.4516 41.3617H44.129V44.4255H46.4516V41.3617Z" fill="#E67F1E"/>
<path d="M53.4196 36.766H51.097V39.8298H53.4196V36.766Z" fill="#E67F1E"/>
<path d="M58.0645 41.3617H55.7419V44.4255H58.0645V41.3617Z" fill="#E67F1E"/>
<path d="M65.032 38.2979H62.7094V41.3617H65.032V38.2979Z" fill="#E67F1E"/>
<path d="M56.9031 29.1064H54.5806V32.1702H56.9031V29.1064Z" fill="#E67F1E"/>
</svg>
