<svg width="131" height="187" viewBox="0 0 131 187" fill="none" xmlns="http://www.w3.org/2000/svg">
<path d="M79.7899 110.737L43.932 70.7022L10.2068 112.562C-13.8882 142.474 7.37944 187 45.7751 187C85.2901 187 106.172 140.185 79.7899 110.737ZM45.7751 176.443C16.9518 176.443 0.991426 143.025 19.0747 120.569L44.3856 89.1499L71.3079 119.197C91.1088 141.306 75.4379 176.443 45.7751 176.443Z" fill="#FBFBFB"/>
<path d="M95.6879 0.151115C61.1609 8.68104 47.2394 44.0153 44.5945 60.6161C52.234 37.8242 83.8045 27.403 98.6348 25.0415C109.807 20.4881 112.483 14.3831 112.424 11.8998C111.84 0.823309 101.023 -0.54786 95.6879 0.151115Z" fill="#12B76A"/>
<path d="M123.256 48.824C91.6589 32.4998 57.91 49.9161 44.9852 60.6648C65.746 48.5477 96.3645 61.5015 109.079 69.4931C120.484 73.4258 126.519 70.595 128.11 68.6879C134.966 59.9688 127.731 51.8123 123.256 48.824Z" fill="#12B76A"/>
</svg>
