<svg width="24" height="24" viewBox="0 0 24 24" fill="none" xmlns="http://www.w3.org/2000/svg">
<g clip-path="url(#clip0_22_244)">
<path d="M23.5606 6.62186L19.4996 10.6829C19.2067 10.9758 18.8228 11.1222 18.4389 11.1222C18.055 11.1222 17.6711 10.9758 17.3782 10.6829C16.7925 10.0971 16.7925 9.14734 17.3782 8.56154L18.8786 7.06122H3.15233C2.32391 7.06122 1.65234 6.38965 1.65234 5.56123C1.65234 4.73281 2.32391 4.06123 3.15233 4.06123H18.8786L17.3782 2.56091C16.7925 1.97512 16.7925 1.02539 17.3782 0.439592C17.9641 -0.146203 18.9137 -0.146203 19.4996 0.439592L23.5606 4.50059C24.1463 5.08634 24.1463 6.03612 23.5606 6.62186ZM20.0273 16.9391H5.12131L6.62167 15.4388C7.20742 14.853 7.20742 13.9033 6.62167 13.3175C6.03583 12.7317 5.08615 12.7317 4.50031 13.3175L0.439311 17.3785C-0.146437 17.9643 -0.146437 18.914 0.439311 19.4998L4.50031 23.5608C4.79323 23.8537 5.17709 24.0002 5.56099 24.0002C5.9449 24.0002 6.32875 23.8537 6.62167 23.5608C7.20742 22.975 7.20742 22.0253 6.62167 21.4395L5.12131 19.9392H20.0273C20.8557 19.9392 21.5272 19.2676 21.5272 18.4392C21.5272 17.6108 20.8557 16.9391 20.0273 16.9391Z" fill="#B1B1B1"/>
</g>
<defs>
<clipPath id="clip0_22_244">
<rect width="23.808" height="23.808" fill="white" transform="scale(1.00806)"/>
</clipPath>
</defs>
</svg>
