<svg width="21" height="19" viewBox="0 0 21 19" fill="none" xmlns="http://www.w3.org/2000/svg">
<path d="M19.3405 1.65875C18.2743 0.59646 16.8306 0 15.3255 0C13.8204 0 12.3767 0.59646 11.3105 1.65875L10.5 2.46926L9.68944 1.65875C8.62324 0.59646 7.1795 0 5.67442 0C4.16934 0 2.72561 0.59646 1.6594 1.65875C0.59665 2.72624 0 4.17122 0 5.67752C0 7.18383 0.59665 8.62881 1.6594 9.6963L9.96712 18.004C10.0369 18.0744 10.1199 18.1302 10.2113 18.1683C10.3028 18.2064 10.4009 18.226 10.5 18.226C10.599 18.226 10.6971 18.2064 10.7886 18.1683C10.88 18.1302 10.963 18.0744 11.0328 18.004L19.3405 9.6963C20.4033 8.62881 20.9999 7.18383 20.9999 5.67752C20.9999 4.17122 20.4033 2.72624 19.3405 1.65875Z" fill="#FF2E6C"/>
</svg>
