<svg width="72" height="72" viewBox="0 0 72 72" fill="none" xmlns="http://www.w3.org/2000/svg">
<path d="M4.79986 45V38.4107H2.39986V45C2.40454 49.4314 4.04961 53.6798 6.97417 56.8133C9.89872 59.9467 13.8639 61.7093 17.9999 61.7143H34.7999V59.1429H17.9999C14.5002 59.1386 11.1451 57.6472 8.67043 54.9958C6.19581 52.3445 4.80383 48.7496 4.79986 45Z" fill="#E67F1E"/>
<path d="M69.5574 25.7721C69.4274 23.8939 69.0205 22.0497 68.3519 20.3079L66.1329 21.2882C66.6753 22.7009 67.0164 24.193 67.1448 25.7143H52.857C53.0422 23.4867 53.6892 21.3316 54.7509 19.4061C56.1546 16.9186 58.0382 15.4686 59.9184 15.4299C59.9273 15.4299 59.937 15.4299 59.9459 15.4289C59.9637 15.4281 59.9822 15.4289 60 15.4289C61.7829 15.4289 63.605 16.7238 64.9992 18.9807L67.0008 17.5619C65.3583 14.9021 63.1578 13.2525 60.8598 12.9201C60.2043 10.2426 58.9457 7.70175 57.3288 5.83361C55.3082 3.49907 52.895 2.35318 50.535 2.60679C48.0815 2.87036 45.87 4.64625 44.3477 7.44268C43.7988 5.99088 43.045 4.63806 42.1127 3.43157C40.3736 1.2187 38.2025 0 36 0C32.3585 0 28.9826 3.34896 27.372 8.19643C26.6022 6.91591 25.654 5.76913 24.5604 4.79588C22.545 3.03525 20.2782 2.28214 18.1767 2.67557C14.9301 3.28114 12.2768 6.57788 11.252 11.2791L13.589 11.8638C14.391 8.18454 16.3067 5.63448 18.5889 5.20891C21.4256 4.67743 24.7989 7.56627 26.535 11.9602C26.4909 12.3252 26.4577 12.6905 26.4353 13.0559C26.2177 13.0829 26.0016 13.1214 25.7877 13.1715C24.4119 13.5222 23.1642 14.3026 22.2027 15.4138C22.1109 15.3013 22.0169 15.192 21.9185 15.0867C21.3369 14.4662 20.6532 13.9662 19.902 13.6119C17.3004 12.3744 14.172 12.8062 11.594 13.869C9.48217 14.7409 7.56284 16.0741 5.958 17.7838C4.2993 19.5612 3.165 21.622 2.6784 23.7431L5.0091 24.3571C5.391 22.6917 6.3063 21.0475 7.65555 19.6018C9.02243 18.1461 10.6571 17.0109 12.4556 16.2686C14.402 15.4663 16.9556 15.0183 18.9252 15.9607C19.4078 16.1872 19.8471 16.5074 20.2211 16.9051C20.4093 17.1084 20.5786 17.3309 20.7267 17.5693C19.5303 19.8436 18.8886 22.7626 18.9332 25.7143H3C2.20463 25.7153 1.4421 26.0542 0.879688 26.6568C0.317277 27.2594 0.000913101 28.0764 0 28.9286V32.7857C0.000913101 33.6379 0.317277 34.4549 0.879688 35.0575C1.4421 35.6601 2.20463 35.999 3 36H67.2V45C67.2016 47.5419 66.5631 50.0372 65.352 52.2229C64.1408 54.4086 62.4018 56.2037 60.3182 57.4192C59.8178 56.2793 59.1147 55.255 58.2482 54.4036C56.2718 52.4572 53.5577 51.4286 50.4 51.4286C47.2512 51.4286 44.0045 52.4695 41.4924 54.2843C38.7245 56.2841 37.2 58.9227 37.2 61.7143C37.2 64.5059 38.7245 67.1445 41.4924 69.1443C44.0045 70.9591 47.2512 72 50.4 72C53.5577 72 56.2718 70.9714 58.2486 69.025C59.1909 68.0958 59.9405 66.9649 60.449 65.7055C60.9574 64.4461 61.2133 63.0864 61.2 61.7143C61.1995 61.1096 61.15 60.5062 61.0518 59.9108C63.6246 58.5159 65.7857 56.3836 67.2949 53.7512C68.804 51.1188 69.602 48.0894 69.6 45V35.9357C70.2772 35.7866 70.8857 35.3919 71.3229 34.818C71.7601 34.2442 71.9992 33.5264 72 32.7857V28.9286C71.9989 28.1802 71.7545 27.4557 71.3087 26.8796C70.8629 26.3035 70.2436 25.9119 69.5574 25.7721ZM50.4 69.4286C47.7174 69.4286 44.9597 68.5479 42.8342 67.0122C40.7486 65.5055 39.6 63.6241 39.6 61.7143C39.6 59.8045 40.7486 57.923 42.8342 56.4164C44.9597 54.8807 47.7174 54 50.4 54C55.3458 54 58.8 57.1722 58.8 61.7143C58.8 66.2564 55.3458 69.4286 50.4 69.4286ZM50.775 5.16536C53.8011 4.84023 57.1026 8.35875 58.409 13.0693C56.7923 13.4998 55.2599 14.5787 53.9615 16.1965C53.7167 15.797 53.4345 15.4255 53.1192 15.0875C52.4177 14.3421 51.5722 13.7705 50.6423 13.4129C49.1513 12.8245 47.4173 12.7033 45.5655 13.0433C45.5291 12.4559 45.4652 11.8709 45.374 11.2905C46.4205 7.79995 48.5204 5.40755 50.775 5.16536ZM36 2.57143C39.0795 2.57143 42.0663 6.36718 42.9566 11.4059C42.9584 11.4181 42.9603 11.4303 42.9624 11.4425C43.0925 12.192 43.1688 12.951 43.1904 13.7129C43.184 13.7155 43.1777 13.7176 43.1712 13.72C43.1562 13.7252 43.1412 13.7308 43.1255 13.7361C40.884 14.6009 38.8471 15.9824 37.1586 17.783L38.8554 19.6014C41.4816 16.7879 46.0653 14.351 49.8141 15.8246C50.4141 16.0476 50.9595 16.4123 51.4101 16.8918C51.8606 17.3713 52.2047 17.9533 52.4168 18.5946C51.2922 20.7895 50.6204 23.2174 50.4468 25.7143H38.2311C38.1819 25.3805 38.1234 25.0454 38.0529 24.7108C37.7997 23.5138 37.429 22.3489 36.9468 21.2355C36.9407 21.2218 36.9345 21.2082 36.9282 21.1948C35.16 17.1264 32.127 14.0786 29.0043 13.2368C28.9874 13.2321 28.9701 13.2281 28.9527 13.2242C28.9106 13.213 28.8708 13.2035 28.8315 13.1943C28.8567 12.7893 28.8962 12.383 28.9532 11.9787L28.9563 11.9549C29.7011 6.69134 32.7924 2.57143 36 2.57143ZM23.1213 18.2923C23.7272 17.3067 24.773 16.0531 26.3154 15.6799C26.714 15.5852 27.1231 15.5518 27.5304 15.5806C31.9377 15.8783 34.8396 21.1413 35.7114 25.276C35.7423 25.4223 35.7702 25.5685 35.7962 25.7143H21.3338C21.2816 22.9484 21.9242 20.2397 23.1213 18.2923ZM69.6 32.7857C69.6 32.9562 69.5368 33.1197 69.4243 33.2403C69.3118 33.3608 69.1591 33.4286 69 33.4286H3C2.84087 33.4286 2.68826 33.3608 2.57574 33.2403C2.46321 33.1197 2.4 32.9562 2.4 32.7857V28.9286C2.4 28.7581 2.46321 28.5946 2.57574 28.474C2.68826 28.3534 2.84087 28.2857 3 28.2857H69C69.1591 28.2857 69.3118 28.3534 69.4243 28.474C69.5368 28.5946 69.6 28.7581 69.6 28.9286V32.7857Z" fill="#E67F1E"/>
<path d="M27.6 38.5715H34.8V41.1429H27.6V38.5715Z" fill="#E67F1E"/>
<path d="M27.6 43.7143H34.8V46.2857H27.6V43.7143Z" fill="#E67F1E"/>
<path d="M27.6 48.8572H34.8V51.4286H27.6V48.8572Z" fill="#E67F1E"/>
<path d="M27.6 54H34.8V56.5714H27.6V54Z" fill="#E67F1E"/>
<path d="M18 38.5715H25.2V41.1429H18V38.5715Z" fill="#E67F1E"/>
<path d="M18 43.7143H25.2V46.2857H18V43.7143Z" fill="#E67F1E"/>
<path d="M18 48.8572H25.2V51.4286H18V48.8572Z" fill="#E67F1E"/>
<path d="M18 54H25.2V56.5714H18V54Z" fill="#E67F1E"/>
<path d="M8.39987 38.5715H15.5999V41.1429H8.39987V38.5715Z" fill="#E67F1E"/>
<path d="M8.39987 43.7143H15.5999V46.2857H8.39987V43.7143Z" fill="#E67F1E"/>
<path d="M8.39987 48.8572H15.5999V51.4286H8.39987V48.8572Z" fill="#E67F1E"/>
<path d="M37.1999 38.5715H44.3999V41.1429H37.1999V38.5715Z" fill="#E67F1E"/>
<path d="M37.1999 43.7143H44.3999V46.2857H37.1999V43.7143Z" fill="#E67F1E"/>
<path d="M37.1999 48.8572H44.3999V51.4286H37.1999V48.8572Z" fill="#E67F1E"/>
<path d="M46.7998 38.5715H53.9998V41.1429H46.7998V38.5715Z" fill="#E67F1E"/>
<path d="M46.7998 43.7143H53.9998V46.2857H46.7998V43.7143Z" fill="#E67F1E"/>
<path d="M56.3998 38.5715H63.5998V41.1429H56.3998V38.5715Z" fill="#E67F1E"/>
<path d="M56.3998 43.7143H63.5998V46.2857H56.3998V43.7143Z" fill="#E67F1E"/>
<path d="M56.3998 48.8572H63.5998V51.4286H56.3998V48.8572Z" fill="#E67F1E"/>
<path d="M13.2001 54H15.6001V56.5714H13.2001V54Z" fill="#E67F1E"/>
</svg>
