<svg width="28" height="28" viewBox="0 0 28 28" fill="none" xmlns="http://www.w3.org/2000/svg">
<path fill-rule="evenodd" clip-rule="evenodd" d="M10.5 5.83325V5.24992C10.5 4.47642 10.808 3.73442 11.3552 3.18725C11.9012 2.64009 12.6432 2.33325 13.4167 2.33325H14.5833C15.3568 2.33325 16.0988 2.64009 16.646 3.18725C17.1932 3.73442 17.5 4.47642 17.5 5.24992V5.83325H23.3333C23.9773 5.83325 24.5 6.35592 24.5 6.99992C24.5 7.64392 23.9773 8.16659 23.3333 8.16659H22.1667V20.9999C22.1667 23.5771 20.0783 25.6666 17.5 25.6666C15.3627 25.6666 12.6385 25.6666 10.5 25.6666C7.92283 25.6666 5.83333 23.5771 5.83333 20.9999V8.16659H4.66667C4.02267 8.16659 3.5 7.64392 3.5 6.99992C3.5 6.35592 4.02267 5.83325 4.66667 5.83325H10.5ZM19.8333 8.16659H8.16667V20.9999C8.16667 22.2891 9.212 23.3333 10.5 23.3333H17.5C18.7892 23.3333 19.8333 22.2891 19.8333 20.9999V8.16659ZM15.1667 11.6666V19.8333C15.1667 20.4773 15.6893 20.9999 16.3333 20.9999C16.9773 20.9999 17.5 20.4773 17.5 19.8333V11.6666C17.5 11.0226 16.9773 10.4999 16.3333 10.4999C15.6893 10.4999 15.1667 11.0226 15.1667 11.6666ZM10.5 11.6666V19.8333C10.5 20.4773 11.0227 20.9999 11.6667 20.9999C12.3107 20.9999 12.8333 20.4773 12.8333 19.8333V11.6666C12.8333 11.0226 12.3107 10.4999 11.6667 10.4999C11.0227 10.4999 10.5 11.0226 10.5 11.6666ZM15.1667 5.83325V5.24992C15.1667 5.09475 15.106 4.94659 14.9963 4.83692C14.8867 4.72842 14.7385 4.66659 14.5833 4.66659C14.2018 4.66659 13.7982 4.66659 13.4167 4.66659C13.2627 4.66659 13.1145 4.72842 13.0048 4.83692C12.8952 4.94659 12.8333 5.09475 12.8333 5.24992V5.83325H15.1667Z" fill="white"/>
</svg>
