<svg width="72" height="72" viewBox="0 0 72 72" fill="none" xmlns="http://www.w3.org/2000/svg">
<path d="M66.1936 18.5806C69.395 18.5806 72 15.9757 72 12.7742C72 11.512 71.5787 10.2911 70.8166 9.29032C71.5787 8.2895 72 7.06867 72 5.80645C72 2.60496 69.395 0 66.1936 0C64.9313 0 63.7105 0.421308 62.7097 1.1834C61.7089 0.421308 60.488 0 59.2258 0C56.0243 0 53.4194 2.60496 53.4194 5.80645C53.4194 8.1846 54.8596 10.2276 56.91 11.1253L52.8387 15.1966L52.617 14.9749C51.1977 13.5556 49.3117 12.7742 47.3039 12.7742C44.9535 12.7742 42.7063 13.8969 41.2944 15.7795L41.2491 15.8413C40.3418 13.6219 38.4292 11.9253 36.3913 11.0833C36.3714 8.95804 35.5413 6.94109 34.042 5.44298C32.2615 3.66249 29.7966 2.82668 27.3113 3.13571C25.7735 1.15902 23.4328 0 20.9032 0C18.3737 0 16.033 1.15902 14.4951 3.13458C12.0149 2.83008 9.54606 3.66249 7.76556 5.44298C6.26632 6.94109 5.43504 8.95804 5.41633 11.0833C2.59986 12.2457 0 15.0214 0 18.5806C0 20.9786 1.43177 22.9224 2.56981 24.0888C1.90467 26.8395 2.68945 29.7059 4.703 31.7172C5.44638 32.4617 6.31395 33.0423 7.28358 33.4438C8.48456 33.9434 9.29032 35.209 9.29032 36.5971V44.129H3.48387C1.56332 44.129 0 45.6924 0 47.6129C0 49.2284 1.11139 50.5791 2.60496 50.9703L7.23255 64.8536C8.65751 69.128 12.6421 72 17.1477 72H54.8534C59.3596 72 63.3436 69.128 64.7675 64.8548L69.395 50.9715C70.8886 50.5791 72 49.2284 72 47.6129C72 45.6924 70.4367 44.129 68.5161 44.129H66.1346C65.6662 38.0277 61.5626 32.9386 55.9846 31.0214L56.3549 30.7254C58.1796 29.2659 59.2258 27.0885 59.2258 24.7517C59.2258 22.7382 58.4093 20.766 56.9843 19.3422L56.8034 19.1613L60.8747 15.09C61.7724 17.1404 63.8154 18.5806 66.1936 18.5806ZM8.17326 31.2993C7.48658 31.0146 6.87248 30.6035 6.34627 30.0762C4.78465 28.5157 4.26071 26.23 4.97858 24.1098L5.2224 23.3885L4.65934 22.8776C3.78553 22.0878 2.32258 20.4779 2.32258 18.5806C2.32258 15.8283 4.6996 13.6554 6.93655 13.0078L7.86649 12.7385L7.76783 11.7756C7.59035 10.0139 8.188 8.30311 9.4077 7.08512C10.8105 5.6834 12.8139 5.10503 14.7719 5.53711L15.5668 5.71232L16.0023 5.02508C17.0769 3.33304 18.9095 2.32258 20.9032 2.32258C22.8969 2.32258 24.7296 3.33304 25.8053 5.02508L26.2407 5.71232L27.0357 5.53711C28.9937 5.10389 30.9982 5.6834 32.3999 7.08512C33.6196 8.30425 34.2161 10.0139 34.0386 11.7756L33.9411 12.7385L34.871 13.0078C37.1069 13.6554 39.4839 15.8283 39.4839 18.5806C39.4839 20.4779 38.0209 22.0878 37.1471 22.8776L36.584 23.3885L36.8279 24.1098C37.5457 26.2288 37.0218 28.5157 35.459 30.0773C34.934 30.6035 34.3199 31.0146 33.6343 31.2993C31.6985 32.1016 30.4107 33.949 30.231 36.0862C29.8369 36.0346 29.4388 36 29.0323 36C28.2288 36 27.4542 36.1128 26.7097 36.3056V30.3364L27.7326 26.2441L35.5135 20.6861L34.1639 18.7967L28.6002 22.7705L30.1578 16.5393L27.9056 15.9768L24.4217 29.9123L24.3916 37.2543C23.515 37.7629 22.7302 38.4099 22.0645 39.1658V15.0968H19.7419V44.129H17.4194V30.1935L13.9009 15.9768L11.6486 16.5393L13.2063 22.7705L7.64252 18.7967L6.29297 20.6861L14.0738 26.2441L15.0968 30.3364V44.129H11.6129V36.5971C11.6129 34.2439 10.2622 32.1657 8.17326 31.2993ZM29.0323 38.3226C32.4776 38.3226 35.3394 40.8391 35.8957 44.129H22.1689C22.7251 40.8391 25.5869 38.3226 29.0323 38.3226ZM9.8222 65.0323H11.6129V67.4858C10.8758 66.7986 10.2679 65.9707 9.8222 65.0323ZM55.7419 65.0323H58.0645V68.9924C57.333 69.3071 56.5562 69.5169 55.7419 69.6065V65.0323ZM53.4194 69.6774H51.0968V65.0323H53.4194V69.6774ZM48.7742 69.6774H46.4516V65.0323H48.7742V69.6774ZM44.129 69.6774H41.8065V65.0323H44.129V69.6774ZM39.4839 69.6774H37.1613V65.0323H39.4839V69.6774ZM34.8387 69.6774H32.5161V65.0323H34.8387V69.6774ZM30.1935 69.6774H27.871V65.0323H30.1935V69.6774ZM25.5484 69.6774H23.2258V65.0323H25.5484V69.6774ZM20.9032 69.6774H18.5806V65.0323H20.9032V69.6774ZM16.2581 69.6065C15.4438 69.5169 14.667 69.3083 13.9355 68.9924V65.0323H16.2581V69.6065ZM60.3871 67.4858V65.0323H62.1778C61.7321 65.9707 61.1242 66.7986 60.3871 67.4858ZM63.0346 62.7097H8.96541L5.09482 51.0968H66.9052L63.0346 62.7097ZM69.6774 47.6129C69.6774 48.2537 69.1569 48.7742 68.5161 48.7742H3.48387C2.84312 48.7742 2.32258 48.2537 2.32258 47.6129C2.32258 46.9722 2.84312 46.4516 3.48387 46.4516H68.5161C69.1569 46.4516 69.6774 46.9722 69.6774 47.6129ZM38.3816 44.129C38.5607 42.1501 39.1992 40.3072 40.1808 38.6917L45.2858 40.7359L51.0911 38.4133L56.901 40.7359L62.0139 38.6917C62.9955 40.3083 63.6339 42.1512 63.8131 44.1302H38.3816V44.129ZM60.5799 36.7615L56.8998 38.233L51.09 35.9104L45.2847 38.233L41.6125 36.7632C43.9538 34.1628 47.3317 32.5161 51.0968 32.5161C54.8619 32.5161 58.2397 34.1628 60.5799 36.7615ZM54.9033 28.9115L54.279 29.411L48.4328 23.5649L46.7907 25.207L51.8124 30.2281C51.5742 30.2179 51.3383 30.1935 51.0968 30.1935C50.1595 30.1935 49.2454 30.2911 48.3552 30.455L46.1114 28.2112L44.4693 29.8533L45.791 31.1751C44.9235 31.5023 44.0956 31.9054 43.3125 32.38L41.4662 30.5338L39.8241 32.1759L41.3919 33.7438C39.3421 35.4693 37.7675 37.7329 36.8619 40.3106C35.8293 38.6929 34.3136 37.4159 32.5161 36.685V36.5982C32.5161 35.2113 33.3219 33.9445 34.524 33.4461C35.4925 33.0435 36.3601 32.4628 37.1023 31.7206C39.1159 29.7093 39.9018 26.8418 39.2366 24.0911C40.3049 22.9956 41.6171 21.21 41.7753 19.0105L43.1526 17.1755C44.1279 15.8747 45.6804 15.099 47.3039 15.099C48.6908 15.099 49.9933 15.6389 50.9737 16.6193L55.3422 20.9883C56.3339 21.9772 56.9032 23.3489 56.9032 24.7517C56.9032 26.3797 56.174 27.8954 54.9033 28.9115ZM54.4808 16.8387L60.7273 10.5922C61.9873 9.33228 62.7097 7.58808 62.7097 5.80645H60.3871C60.3871 6.97681 59.9131 8.12223 59.0852 8.9501L58.7892 9.24609C57.0762 9.02892 55.7419 7.57844 55.7419 5.80645C55.7419 3.8859 57.3053 2.32258 59.2258 2.32258C60.2289 2.32258 61.156 2.75126 61.8353 3.5281L62.7097 4.52779L63.584 3.5281C64.2634 2.75126 65.1905 2.32258 66.1936 2.32258C68.1141 2.32258 69.6774 3.8859 69.6774 5.80645C69.6774 6.80954 69.2487 7.73664 68.4719 8.41595L67.4722 9.29032L68.4719 10.1647C69.2487 10.844 69.6774 11.7711 69.6774 12.7742C69.6774 14.6947 68.1141 16.2581 66.1936 16.2581C64.4216 16.2581 62.9711 14.9238 62.7539 13.2108L63.0499 12.9148C63.8778 12.0869 65.0232 11.6129 66.1936 11.6129V9.29032C64.4119 9.29032 62.6677 10.0127 61.4078 11.2727L55.1613 17.5192L54.4808 16.8387Z" fill="#E67F1E"/>
<path d="M31.355 53.4193H40.6453V55.7419H31.355V53.4193Z" fill="#E67F1E"/>
<path d="M31.355 58.0645H40.6453V60.3871H31.355V58.0645Z" fill="#E67F1E"/>
<path d="M22.0645 53.4193H24.3871V60.3871H22.0645V53.4193Z" fill="#E67F1E"/>
<path d="M26.7094 53.4193H29.0319V60.3871H26.7094V53.4193Z" fill="#E67F1E"/>
<path d="M52.2579 53.4193H61.5482V55.7419H52.2579V53.4193Z" fill="#E67F1E"/>
<path d="M52.2579 58.0645H61.5482V60.3871H52.2579V58.0645Z" fill="#E67F1E"/>
<path d="M42.9674 53.4193H45.29V60.3871H42.9674V53.4193Z" fill="#E67F1E"/>
<path d="M47.6128 53.4193H49.9353V60.3871H47.6128V53.4193Z" fill="#E67F1E"/>
<path d="M10.4516 53.4193H19.7419V55.7419H10.4516V53.4193Z" fill="#E67F1E"/>
<path d="M10.4516 58.0645H19.7419V60.3871H10.4516V58.0645Z" fill="#E67F1E"/>
</svg>
