<svg width="40" height="40" viewBox="0 0 40 40" fill="none" xmlns="http://www.w3.org/2000/svg">
<path d="M40 3.35969C40.0001 2.69523 39.8285 2.04567 39.507 1.49316C39.1855 0.940654 38.7286 0.510024 38.1939 0.255734C37.6592 0.00144483 37.0709 -0.0650808 36.5033 0.0645713C35.9357 0.194223 35.4143 0.514229 35.0052 0.984115L28.0987 8.91011C27.9802 8.89546 27.8611 8.88829 27.7419 8.88863C27.3472 8.88796 26.9557 8.97083 26.5871 9.13307C26.3239 8.66051 25.971 8.26243 25.5548 7.96862C26.1363 7.16009 26.4535 6.14377 26.4516 5.09526V2.2219C26.4516 2.02544 26.3836 1.83703 26.2626 1.69812C26.1417 1.5592 25.9776 1.48116 25.8064 1.48116H23.3039C22.7851 1.47941 22.2711 1.5959 21.7918 1.82389C21.3125 2.05188 20.8773 2.38682 20.5116 2.80932C20.3201 3.02967 20.1486 3.27191 20 3.53228C19.8514 3.27191 19.6799 3.02967 19.4884 2.80932C19.1226 2.38682 18.6875 2.05188 18.2082 1.82389C17.7289 1.5959 17.2149 1.47941 16.6961 1.48116H14.1935C14.0224 1.48116 13.8583 1.5592 13.7373 1.69812C13.6164 1.83703 13.5484 2.02544 13.5484 2.2219V5.09526C13.5458 6.1434 13.8621 7.15969 14.4426 7.96862C14.0264 8.26243 13.6735 8.66051 13.4103 9.13307C12.7443 8.84107 12.0126 8.81141 11.3303 9.04873C10.6479 9.28605 10.0536 9.77691 9.64064 10.4442C9.44053 10.3961 9.2367 10.3713 9.03226 10.3701C8.27947 10.3713 7.55067 10.6742 6.97163 11.2265C6.39259 11.7788 5.99966 12.5459 5.86064 13.3953C5.23077 13.5322 4.65059 13.8811 4.19392 14.3976C3.73725 14.9142 3.42473 15.575 3.29613 16.2961H1.93548C1.42216 16.2961 0.929864 16.5302 0.56689 16.947C0.203916 17.3637 0 17.929 0 18.5183V23.7036C0.00475565 27.1083 1.14336 30.382 3.18252 32.854C5.22167 35.326 8.00698 36.809 10.9677 36.9992V37.7778C10.9677 38.3671 11.1717 38.9324 11.5346 39.3491C11.8976 39.7659 12.3899 40 12.9032 40H27.0968C27.6101 40 28.1024 39.7659 28.4654 39.3491C28.8283 38.9324 29.0323 38.3671 29.0323 37.7778V36.9992C31.993 36.809 34.7783 35.326 36.8175 32.854C38.8566 30.382 39.9952 27.1083 40 23.7036V18.5183C40 17.929 39.7961 17.3637 39.4331 16.947C39.0701 16.5302 38.5778 16.2961 38.0645 16.2961H36.7039C36.5753 15.575 36.2627 14.9142 35.8061 14.3976C35.3494 13.8811 34.7692 13.5322 34.1393 13.3953C34.058 12.9105 33.8918 12.4496 33.651 12.0405L39.1432 5.73527C39.4157 5.42395 39.6317 5.05371 39.7787 4.64595C39.9258 4.2382 40.001 3.80102 40 3.35969ZM21.4239 3.85673C21.6702 3.57238 21.9632 3.34695 22.2859 3.19348C22.6086 3.04001 22.9546 2.96155 23.3039 2.96265H25.1613V5.09526C25.1591 5.90401 24.8796 6.67922 24.3832 7.25306C24.3258 7.31898 24.2593 7.37232 24.1974 7.43158C23.389 7.32117 22.5755 7.58359 21.9355 8.16121C21.5539 7.83535 21.1126 7.61391 20.6452 7.5138V6.01527C20.6474 5.20618 20.9272 4.43067 21.4239 3.85673ZM15.6174 7.2538C15.1207 6.67986 14.841 5.90435 14.8387 5.09526V2.96265H16.6961C17.0454 2.96155 17.3914 3.04001 17.7141 3.19348C18.0368 3.34695 18.3298 3.57238 18.5761 3.85673C19.0728 4.43067 19.3526 5.20618 19.3548 6.01527V7.5138C18.8874 7.61391 18.446 7.83535 18.0645 8.16121C17.4245 7.58359 16.611 7.32117 15.8026 7.43158C15.7419 7.37232 15.6774 7.31898 15.6174 7.2538ZM27.0968 38.5185H12.9032C12.7321 38.5185 12.568 38.4405 12.447 38.3015C12.326 38.1626 12.2581 37.9742 12.2581 37.7778V37.037H27.7419V37.7778C27.7419 37.9742 27.674 38.1626 27.553 38.3015C27.432 38.4405 27.2679 38.5185 27.0968 38.5185ZM28.3871 35.5555H11.6129C8.87618 35.5518 6.25247 34.3019 4.31732 32.08C2.38216 29.8582 1.29357 26.8458 1.29032 23.7036V21.788L1.85742 22.4391C2.56255 23.2487 3.51892 23.7035 4.51613 23.7035C5.51334 23.7035 6.4697 23.2487 7.17484 22.4391L7.93097 21.571C8.39421 21.0393 9.02241 20.7406 9.67742 20.7406C10.3324 20.7406 10.9606 21.0393 11.4239 21.571L12.18 22.4391C12.8851 23.2487 13.8415 23.7035 14.8387 23.7035C15.8359 23.7035 16.7923 23.2487 17.4974 22.4391L18.2535 21.571C18.7168 21.0393 19.345 20.7406 20 20.7406C20.655 20.7406 21.2832 21.0393 21.7464 21.571L22.5026 22.4391C23.2077 23.2487 24.1641 23.7035 25.1613 23.7035C26.1585 23.7035 27.1149 23.2487 27.82 22.4391L28.5761 21.571C29.0394 21.0393 29.6676 20.7406 30.3226 20.7406C30.9776 20.7406 31.6058 21.0393 32.069 21.571L32.8252 22.4391C33.5303 23.2487 34.4867 23.7035 35.4839 23.7035C36.4811 23.7035 37.4374 23.2487 38.1426 22.4391L38.7097 21.788V23.7036C38.7064 26.8458 37.6178 29.8582 35.6827 32.08C33.7475 34.3019 31.1238 35.5518 28.3871 35.5555ZM38.7097 18.5183V19.6932L37.2303 21.3917C36.7671 21.9234 36.1389 22.2221 35.4839 22.2221C34.8289 22.2221 34.2007 21.9234 33.7374 21.3917L32.9813 20.5235C32.2761 19.7139 31.3198 19.2591 30.3226 19.2591C29.3254 19.2591 28.369 19.7139 27.6639 20.5235L26.9077 21.3917C26.4445 21.9234 25.8163 22.2221 25.1613 22.2221C24.5063 22.2221 23.8781 21.9234 23.4148 21.3917L22.6587 20.5235C21.9536 19.7139 20.9972 19.2591 20 19.2591C19.0028 19.2591 18.0464 19.7139 17.3413 20.5235L16.5852 21.3917C16.1219 21.9234 15.4937 22.2221 14.8387 22.2221C14.1837 22.2221 13.5555 21.9234 13.0923 21.3917L12.3361 20.5235C11.631 19.7139 10.6746 19.2591 9.67742 19.2591C8.68021 19.2591 7.72384 19.7139 7.01871 20.5235L6.26258 21.3917C5.79933 21.9234 5.17114 22.2221 4.51613 22.2221C3.86112 22.2221 3.23293 21.9234 2.76968 21.3917L1.29032 19.6932V18.5183C1.29032 18.3219 1.35829 18.1335 1.47929 17.9946C1.60028 17.8556 1.76438 17.7776 1.93548 17.7776H38.0645C38.2356 17.7776 38.3997 17.8556 38.5207 17.9946C38.6417 18.1335 38.7097 18.3219 38.7097 18.5183ZM35.3652 16.2961H4.63484C4.76779 15.8643 5.0137 15.4902 5.3389 15.225C5.66411 14.9599 6.05273 14.8165 6.45161 14.8146C6.62272 14.8146 6.78682 14.7366 6.90781 14.5976C7.0288 14.4587 7.09677 14.2703 7.09677 14.0739C7.0946 13.714 7.1691 13.3589 7.31378 13.0397C7.45846 12.7204 7.66894 12.4466 7.92688 12.2421C8.18482 12.0376 8.4824 11.9086 8.79369 11.8664C9.10499 11.8241 9.42055 11.8699 9.7129 11.9998C9.86376 12.0654 10.0306 12.0639 10.1804 11.9953C10.3303 11.9267 10.4524 11.7962 10.5226 11.6294C10.6417 11.3417 10.8135 11.0869 11.0263 10.8825C11.2391 10.6781 11.4878 10.5289 11.7555 10.4451C12.0232 10.3613 12.3034 10.345 12.5771 10.3971C12.8509 10.4492 13.1115 10.5686 13.3413 10.7472C13.4232 10.8108 13.5167 10.8519 13.6147 10.8675C13.7126 10.883 13.8124 10.8724 13.9062 10.8366C14.0001 10.8008 14.0855 10.7407 14.1559 10.661C14.2263 10.5813 14.2798 10.484 14.3123 10.3768C14.4438 9.94339 14.6891 9.56752 15.0145 9.30098C15.3399 9.03444 15.7293 8.89036 16.129 8.88863C16.4047 8.88882 16.6771 8.95766 16.9274 9.0904C17.1776 9.22315 17.3999 9.41663 17.5787 9.65752C17.6411 9.73362 17.7164 9.79426 17.7999 9.83571C17.8834 9.87716 17.9735 9.89854 18.0645 9.89854C18.1555 9.89854 18.2456 9.87716 18.3291 9.83571C18.4127 9.79426 18.4879 9.73362 18.5503 9.65752C18.7329 9.42358 18.9563 9.23645 19.2061 9.10834C19.4559 8.98023 19.7264 8.91401 20 8.91401C20.2736 8.91401 20.5441 8.98023 20.7939 9.10834C21.0437 9.23645 21.2671 9.42358 21.4497 9.65752C21.512 9.73362 21.5873 9.79426 21.6709 9.83571C21.7544 9.87716 21.8445 9.89854 21.9355 9.89854C22.0265 9.89854 22.1165 9.87716 22.2001 9.83571C22.2836 9.79426 22.3589 9.73362 22.4213 9.65752C22.6001 9.41663 22.8224 9.22315 23.0726 9.0904C23.3229 8.95766 23.5953 8.88882 23.871 8.88863C24.2712 8.89074 24.661 9.03557 24.9865 9.30309C25.312 9.57061 25.557 9.94761 25.6877 10.382C25.7203 10.4887 25.7737 10.5854 25.8439 10.6647C25.9141 10.744 25.9991 10.8038 26.0925 10.8396C26.1859 10.8753 26.2852 10.886 26.3828 10.8709C26.4804 10.8558 26.5737 10.8152 26.6555 10.7523C26.8851 10.573 27.1457 10.4528 27.4196 10.3999C27.6934 10.347 27.974 10.3628 28.242 10.4461C28.5101 10.5294 28.7593 10.6783 28.9725 10.8825C29.1857 11.0868 29.358 11.3416 29.4774 11.6294C29.5476 11.7962 29.6697 11.9267 29.8195 11.9953C29.9694 12.0639 30.1362 12.0654 30.2871 11.9998C30.5794 11.8697 30.895 11.8238 31.2064 11.866C31.5178 11.9081 31.8154 12.0371 32.0734 12.2416C32.3314 12.4461 32.5419 12.72 32.6865 13.0394C32.8312 13.3588 32.9055 13.7139 32.9032 14.0739C32.9032 14.2703 32.9712 14.4587 33.0922 14.5976C33.2132 14.7366 33.3773 14.8146 33.5484 14.8146C33.9473 14.8165 34.3359 14.9599 34.6611 15.225C34.9863 15.4902 35.2322 15.8643 35.3652 16.2961ZM38.231 4.68785L32.7381 10.9931C32.2145 10.5893 31.5985 10.3725 30.9677 10.3701C30.7633 10.3713 30.5595 10.3961 30.3593 10.4442C30.1152 10.0508 29.8061 9.71633 29.4497 9.45974L35.9174 2.03153C36.2258 1.6884 36.6394 1.49827 37.0688 1.50215C37.4983 1.50604 37.9092 1.70364 38.2129 2.0523C38.5165 2.40097 38.6886 2.87275 38.692 3.36582C38.6954 3.8589 38.5298 4.33373 38.231 4.68785Z" fill="#7A1E76"/>
<path d="M20.6451 11.1109H19.3547V12.5924H20.6451V11.1109Z" fill="#7A1E76"/>
<path d="M17.4195 12.5924H16.1292V14.0739H17.4195V12.5924Z" fill="#7A1E76"/>
<path d="M12.9031 13.3331H11.6128V14.8146H12.9031V13.3331Z" fill="#7A1E76"/>
<path d="M28.387 13.3331H27.0967V14.8146H28.387V13.3331Z" fill="#7A1E76"/>
<path d="M23.8711 13.3331H22.5808V14.8146H23.8711V13.3331Z" fill="#7A1E76"/>
</svg>
