<svg width="21" height="21" viewBox="0 0 21 21" fill="none" xmlns="http://www.w3.org/2000/svg">
<path d="M20.9343 10.7871C20.8781 10.9241 20.7825 11.0413 20.6598 11.124C20.537 11.2067 20.3925 11.2513 20.2445 11.252H17.9949V18.7505C17.9949 19.3471 17.7579 19.9193 17.336 20.3411C16.9142 20.763 16.342 21 15.7454 21H12.746C12.5471 21 12.3564 20.921 12.2158 20.7804C12.0752 20.6398 11.9962 20.449 11.9962 20.2502V15.7511C11.9962 15.5522 11.9172 15.3615 11.7765 15.2209C11.6359 15.0802 11.4452 15.0012 11.2463 15.0012H9.74663C9.54775 15.0012 9.35703 15.0802 9.21641 15.2209C9.07578 15.3615 8.99678 15.5522 8.99678 15.7511V20.2502C8.99678 20.449 8.91778 20.6398 8.77716 20.7804C8.63653 20.921 8.44581 21 8.24694 21H5.24756C4.65094 21 4.07876 20.763 3.65689 20.3411C3.23502 19.9193 2.99802 19.3471 2.99802 18.7505V11.252H0.748485C0.600447 11.2513 0.455939 11.2067 0.333175 11.124C0.21041 11.0413 0.114881 10.9241 0.0586276 10.7871C0.00120492 10.6506 -0.0144838 10.5001 0.013541 10.3546C0.0415658 10.2091 0.112048 10.0752 0.216095 9.96979L9.96408 0.221803C10.0338 0.151521 10.1167 0.0957369 10.2081 0.0576683C10.2995 0.0195996 10.3975 0 10.4965 0C10.5955 0 10.6935 0.0195996 10.7848 0.0576683C10.8762 0.0957369 10.9592 0.151521 11.0289 0.221803L20.7768 9.96979C20.8809 10.0752 20.9514 10.2091 20.9794 10.3546C21.0074 10.5001 20.9917 10.6506 20.9343 10.7871Z" fill="#B1B1B1"/>
</svg>
